M48
;Layer_Color=9474304
;FILE_FORMAT=4:4
METRIC,LZ
;TYPE=PLATED
T1F00S00C0.1000
%
T01
X-000144Y000202
X000695Y000062
X000809Y000048
X00081999Y00018401
X001019Y000265
X00122Y000276
X001169Y000163
X001435Y00005
X001583Y00006
X001652Y000058
X001739Y000106
X001791Y000109
X001753Y000204
X001705Y000202
X001655
X001603Y000204
X001597Y000281
X001669Y000288
X0015125Y0003025
X001835Y0002245
X001972Y000136
X0019Y000058
X001844Y000357
X001753Y000372
X001665Y000367
X001578Y000363
X001494Y000488
X001394
X001369Y000538
X001444Y000588
X001395Y000638
X001294Y000588
X001269Y000663
X001234Y000703
X001186Y000719
X001134Y0006495
X001177Y000559
X001244Y000488
X001243Y000365
X001022Y000413
X000889Y000365
X000739Y000377
Y000651
X00086Y00062
X000862Y000738
Y000788
X00086025Y00096175
X000854Y001007
X000919Y001064
X001019
X001069
X001144Y001047
X001183Y000973
X00119526Y00089569
X001255Y000893
X001268Y000798
X001344Y000738
X0014915Y0007655
X001562Y00077
X001578Y000698
X001643Y000705
X001672Y000606
X001661Y000514
X001848Y000614
X001803Y000704
X00167865Y00080575
X001706Y000974
X001535Y000954
X001457Y000913
X001406Y001025
X001356
X001085Y000972
X001064Y000843
X001004Y000653
X000984Y001023
X000735Y000988
X000655Y0008
Y000747
X000553Y000844
X-000186Y00078
X-000226
X-000126Y001032
X-000139Y000409
X001975Y000606
X002009Y000866
X001929Y00086
X001882Y000951
X001979Y001001
M30
