%FSLAX44Y44*%
%MOMM*%
G71*
G01*
G75*
G04 Layer_Physical_Order=1*
G04 Layer_Color=255*
%ADD10C,0.2500*%
%ADD11R,2.9000X0.8000*%
%ADD12R,3.2000X0.8000*%
%ADD13O,0.6000X0.4000*%
%ADD14O,1.0500X0.7000*%
G04:AMPARAMS|DCode=15|XSize=0.4mm|YSize=0.37mm|CornerRadius=0.037mm|HoleSize=0mm|Usage=FLASHONLY|Rotation=270.000|XOffset=0mm|YOffset=0mm|HoleType=Round|Shape=RoundedRectangle|*
%AMROUNDEDRECTD15*
21,1,0.4000,0.2960,0,0,270.0*
21,1,0.3260,0.3700,0,0,270.0*
1,1,0.0740,-0.1480,-0.1630*
1,1,0.0740,-0.1480,0.1630*
1,1,0.0740,0.1480,0.1630*
1,1,0.0740,0.1480,-0.1630*
%
%ADD15ROUNDEDRECTD15*%
%ADD16C,0.0750*%
%ADD17C,0.1500*%
%ADD18C,0.7500*%
%ADD19C,0.0100*%
%ADD20C,0.3000*%
G36*
X102960Y49479D02*
X103028Y49415D01*
X103103Y49359D01*
X103186Y49310D01*
X103276Y49269D01*
X103374Y49235D01*
X103480Y49209D01*
X103593Y49190D01*
X103714Y49179D01*
X103842Y49175D01*
Y48425D01*
X103714Y48421D01*
X103593Y48410D01*
X103480Y48391D01*
X103374Y48365D01*
X103276Y48331D01*
X103186Y48290D01*
X103103Y48241D01*
X103028Y48185D01*
X102960Y48121D01*
X102900Y48050D01*
Y49550D01*
X102960Y49479D01*
D02*
G37*
G36*
X150603Y49722D02*
X150863Y49507D01*
X150900Y49550D01*
Y49482D01*
X150994Y49418D01*
X151122Y49344D01*
X151250Y49283D01*
X151377Y49236D01*
X151503Y49202D01*
X151628Y49182D01*
X151752Y49175D01*
Y48425D01*
X151628Y48418D01*
X151503Y48398D01*
X151377Y48364D01*
X151250Y48317D01*
X151122Y48256D01*
X150994Y48182D01*
X150900Y48118D01*
Y48050D01*
X150863Y48094D01*
X150734Y47993D01*
X150603Y47878D01*
X150471Y47750D01*
Y48349D01*
X150426Y48365D01*
X150320Y48391D01*
X150207Y48410D01*
X150086Y48421D01*
X149958Y48425D01*
Y49175D01*
X150086Y49179D01*
X150207Y49190D01*
X150320Y49209D01*
X150426Y49235D01*
X150471Y49251D01*
Y49850D01*
X150603Y49722D01*
D02*
G37*
G36*
X188151Y46756D02*
X188146Y46826D01*
X188123Y46889D01*
X188082Y46944D01*
X188023Y46992D01*
X187946Y47033D01*
X187852Y47066D01*
X187740Y47092D01*
X187610Y47110D01*
X187462Y47121D01*
X187296Y47125D01*
X187336Y47875D01*
X187502Y47879D01*
X187782Y47907D01*
X187896Y47932D01*
X187993Y47965D01*
X188074Y48004D01*
X188137Y48050D01*
X188183Y48104D01*
X188212Y48165D01*
X188224Y48233D01*
X188151Y46756D01*
D02*
G37*
G36*
X152579Y47740D02*
X152515Y47672D01*
X152459Y47597D01*
X152410Y47514D01*
X152369Y47424D01*
X152335Y47326D01*
X152309Y47220D01*
X152290Y47107D01*
X152279Y46986D01*
X152275Y46858D01*
X151525D01*
X151521Y46986D01*
X151510Y47107D01*
X151491Y47220D01*
X151465Y47326D01*
X151431Y47424D01*
X151390Y47514D01*
X151341Y47597D01*
X151285Y47672D01*
X151221Y47740D01*
X151150Y47800D01*
X152650D01*
X152579Y47740D01*
D02*
G37*
G36*
X182960Y49479D02*
X183028Y49415D01*
X183103Y49359D01*
X183186Y49310D01*
X183276Y49269D01*
X183374Y49235D01*
X183480Y49209D01*
X183593Y49190D01*
X183714Y49179D01*
X183842Y49175D01*
Y48425D01*
X183714Y48421D01*
X183593Y48410D01*
X183480Y48391D01*
X183374Y48365D01*
X183276Y48331D01*
X183186Y48290D01*
X183103Y48241D01*
X183028Y48185D01*
X182960Y48121D01*
X182900Y48050D01*
Y49550D01*
X182960Y49479D01*
D02*
G37*
G36*
X167303Y52322D02*
X167564Y52106D01*
X167694Y52018D01*
X167822Y51944D01*
X167950Y51883D01*
X168077Y51836D01*
X168203Y51802D01*
X168328Y51782D01*
X168452Y51775D01*
Y51025D01*
X168328Y51018D01*
X168203Y50998D01*
X168077Y50964D01*
X167950Y50917D01*
X167822Y50856D01*
X167694Y50782D01*
X167564Y50694D01*
X167434Y50593D01*
X167303Y50478D01*
X167171Y50350D01*
Y52450D01*
X167303Y52322D01*
D02*
G37*
G36*
X-24456Y59928D02*
X-24231Y59890D01*
X-23856Y59858D01*
X-20856Y59770D01*
X-17031Y59750D01*
Y52250D01*
X-24531Y52030D01*
Y59969D01*
X-24456Y59928D01*
D02*
G37*
G36*
X175703Y50233D02*
X175796Y50157D01*
X175889Y50093D01*
X175981Y50042D01*
X176072Y50002D01*
X176162Y49975D01*
X176252Y49960D01*
X176340Y49958D01*
X176429Y49967D01*
X176516Y49990D01*
X175651Y48764D01*
X175643Y48858D01*
X175627Y48951D01*
X175602Y49045D01*
X175568Y49138D01*
X175525Y49231D01*
X175473Y49324D01*
X175411Y49417D01*
X175341Y49510D01*
X175262Y49603D01*
X175174Y49696D01*
X175609Y50322D01*
X175703Y50233D01*
D02*
G37*
G36*
X148329Y49251D02*
X148374Y49235D01*
X148480Y49209D01*
X148593Y49190D01*
X148714Y49179D01*
X148842Y49175D01*
Y48425D01*
X148714Y48421D01*
X148593Y48410D01*
X148480Y48391D01*
X148374Y48365D01*
X148329Y48349D01*
Y47750D01*
X148197Y47878D01*
X147937Y48093D01*
X147900Y48050D01*
Y48118D01*
X147806Y48182D01*
X147678Y48256D01*
X147550Y48317D01*
X147423Y48364D01*
X147297Y48398D01*
X147172Y48418D01*
X147048Y48425D01*
Y49175D01*
X147172Y49182D01*
X147297Y49202D01*
X147423Y49236D01*
X147550Y49283D01*
X147678Y49344D01*
X147806Y49418D01*
X147900Y49482D01*
Y49550D01*
X147937Y49507D01*
X148066Y49607D01*
X148197Y49722D01*
X148329Y49850D01*
Y49251D01*
D02*
G37*
G36*
X177165Y38535D02*
X177075Y38438D01*
X176997Y38338D01*
X176930Y38234D01*
X176875Y38128D01*
X176831Y38018D01*
X176798Y37906D01*
X176777Y37790D01*
X176768Y37671D01*
X176770Y37550D01*
X176783Y37425D01*
X176638Y37570D01*
X176630Y37571D01*
X176537Y37568D01*
X176444Y37554D01*
X176351Y37530D01*
X176258Y37495D01*
X176165Y37450D01*
X176072Y37394D01*
X175979Y37327D01*
X175885Y37250D01*
X175792Y37161D01*
X175261Y37692D01*
X175350Y37785D01*
X175427Y37878D01*
X175494Y37972D01*
X175550Y38065D01*
X175595Y38158D01*
X175630Y38251D01*
X175654Y38345D01*
X175668Y38438D01*
X175671Y38530D01*
X175670Y38538D01*
X175525Y38683D01*
X175650Y38670D01*
X175771Y38668D01*
X175890Y38677D01*
X176006Y38698D01*
X176118Y38731D01*
X176228Y38775D01*
X176334Y38830D01*
X176437Y38897D01*
X176538Y38975D01*
X176635Y39065D01*
X177165Y38535D01*
D02*
G37*
G36*
X188224Y40567D02*
X188212Y40635D01*
X188183Y40696D01*
X188137Y40750D01*
X188074Y40796D01*
X187993Y40835D01*
X187896Y40868D01*
X187782Y40893D01*
X187650Y40911D01*
X187502Y40921D01*
X187336Y40925D01*
X187296Y41675D01*
X187462Y41679D01*
X187610Y41690D01*
X187740Y41708D01*
X187852Y41734D01*
X187946Y41767D01*
X188023Y41808D01*
X188082Y41856D01*
X188123Y41911D01*
X188146Y41974D01*
X188151Y42044D01*
X188224Y40567D01*
D02*
G37*
G36*
X183961Y34266D02*
X183802Y34308D01*
X183649Y34336D01*
X183502Y34350D01*
X183363Y34349D01*
X183230Y34334D01*
X183162Y34317D01*
X183146Y34255D01*
X183132Y34162D01*
X183130Y34070D01*
X183137Y33977D01*
X182900Y34214D01*
X182873Y34200D01*
X182767Y34126D01*
X182669Y34038D01*
X182301Y34731D01*
X182340Y34774D01*
X182077Y35037D01*
X182170Y35029D01*
X182262Y35032D01*
X182355Y35046D01*
X182449Y35070D01*
X182542Y35105D01*
X182580Y35123D01*
X182583Y35129D01*
X182650Y35261D01*
X182778Y35562D01*
X182839Y35732D01*
X182957Y36110D01*
X183961Y34266D01*
D02*
G37*
G36*
X159003Y37222D02*
X159264Y37006D01*
X159394Y36918D01*
X159522Y36844D01*
X159650Y36783D01*
X159777Y36736D01*
X159903Y36702D01*
X160028Y36682D01*
X160152Y36675D01*
Y35925D01*
X160028Y35918D01*
X159903Y35898D01*
X159777Y35864D01*
X159650Y35817D01*
X159522Y35756D01*
X159394Y35682D01*
X159264Y35594D01*
X159134Y35493D01*
X159003Y35378D01*
X158871Y35250D01*
Y37350D01*
X159003Y37222D01*
D02*
G37*
G36*
X170900Y43050D02*
X170840Y43121D01*
X170772Y43185D01*
X170697Y43241D01*
X170614Y43290D01*
X170524Y43331D01*
X170426Y43365D01*
X170320Y43391D01*
X170207Y43410D01*
X170086Y43421D01*
X169958Y43425D01*
Y44175D01*
X170086Y44179D01*
X170207Y44190D01*
X170320Y44209D01*
X170426Y44235D01*
X170524Y44269D01*
X170614Y44310D01*
X170697Y44359D01*
X170772Y44415D01*
X170840Y44479D01*
X170900Y44550D01*
Y43050D01*
D02*
G37*
G36*
X-24553Y45679D02*
X-24530Y45615D01*
X-24491Y45559D01*
X-24436Y45510D01*
X-24366Y45469D01*
X-24280Y45435D01*
X-24179Y45409D01*
X-24062Y45390D01*
X-23929Y45379D01*
X-23781Y45375D01*
Y44625D01*
X-23929Y44621D01*
X-24062Y44610D01*
X-24179Y44591D01*
X-24280Y44565D01*
X-24366Y44531D01*
X-24436Y44490D01*
X-24491Y44441D01*
X-24530Y44385D01*
X-24553Y44321D01*
X-24561Y44250D01*
Y45750D01*
X-24553Y45679D01*
D02*
G37*
G36*
X152279Y45614D02*
X152290Y45493D01*
X152309Y45380D01*
X152335Y45274D01*
X152369Y45176D01*
X152410Y45086D01*
X152459Y45003D01*
X152515Y44928D01*
X152579Y44860D01*
X152650Y44800D01*
X151150D01*
X151221Y44860D01*
X151285Y44928D01*
X151341Y45003D01*
X151390Y45086D01*
X151431Y45176D01*
X151465Y45274D01*
X151491Y45380D01*
X151510Y45493D01*
X151521Y45614D01*
X151525Y45742D01*
X152275D01*
X152279Y45614D01*
D02*
G37*
G36*
X175885Y45350D02*
X175979Y45273D01*
X176072Y45206D01*
X176165Y45150D01*
X176258Y45105D01*
X176351Y45070D01*
X176444Y45046D01*
X176537Y45032D01*
X176630Y45030D01*
X176723Y45037D01*
X175663Y43977D01*
X175671Y44070D01*
X175668Y44163D01*
X175654Y44255D01*
X175630Y44349D01*
X175595Y44442D01*
X175550Y44535D01*
X175494Y44628D01*
X175427Y44721D01*
X175350Y44815D01*
X175261Y44908D01*
X175792Y45439D01*
X175885Y45350D01*
D02*
G37*
G36*
X180885D02*
X180979Y45273D01*
X181072Y45206D01*
X181165Y45150D01*
X181258Y45105D01*
X181351Y45070D01*
X181444Y45046D01*
X181537Y45032D01*
X181630Y45030D01*
X181723Y45037D01*
X180663Y43977D01*
X180671Y44070D01*
X180668Y44163D01*
X180654Y44255D01*
X180630Y44349D01*
X180595Y44442D01*
X180550Y44535D01*
X180494Y44628D01*
X180427Y44721D01*
X180350Y44815D01*
X180261Y44908D01*
X180792Y45439D01*
X180885Y45350D01*
D02*
G37*
G36*
X170885Y65350D02*
X170979Y65273D01*
X171072Y65206D01*
X171165Y65150D01*
X171258Y65105D01*
X171351Y65070D01*
X171444Y65046D01*
X171537Y65032D01*
X171630Y65030D01*
X171723Y65037D01*
X170662Y63977D01*
X170671Y64070D01*
X170668Y64163D01*
X170654Y64255D01*
X170630Y64349D01*
X170595Y64442D01*
X170550Y64535D01*
X170494Y64628D01*
X170427Y64721D01*
X170350Y64815D01*
X170261Y64908D01*
X170792Y65439D01*
X170885Y65350D01*
D02*
G37*
G36*
X113782Y67178D02*
X113802Y67053D01*
X113836Y66927D01*
X113883Y66800D01*
X113944Y66672D01*
X114018Y66544D01*
X114106Y66414D01*
X114207Y66284D01*
X114322Y66153D01*
X114450Y66021D01*
X112350D01*
X112478Y66153D01*
X112694Y66414D01*
X112782Y66544D01*
X112856Y66672D01*
X112917Y66800D01*
X112964Y66927D01*
X112998Y67053D01*
X113018Y67178D01*
X113025Y67302D01*
X113775D01*
X113782Y67178D01*
D02*
G37*
G36*
X114322Y63747D02*
X114106Y63486D01*
X114018Y63356D01*
X113944Y63228D01*
X113883Y63100D01*
X113836Y62973D01*
X113802Y62847D01*
X113782Y62722D01*
X113775Y62598D01*
X113025D01*
X113018Y62722D01*
X112998Y62847D01*
X112964Y62973D01*
X112917Y63100D01*
X112856Y63228D01*
X112782Y63356D01*
X112694Y63486D01*
X112593Y63616D01*
X112478Y63747D01*
X112350Y63879D01*
X114450D01*
X114322Y63747D01*
D02*
G37*
G36*
X193905Y65954D02*
X193970Y65742D01*
X194051Y65533D01*
X194145Y65326D01*
X194255Y65121D01*
X194380Y64919D01*
X194520Y64719D01*
X194674Y64521D01*
X195028Y64133D01*
X194264Y62775D01*
X193990Y63039D01*
X193505Y63441D01*
X193294Y63579D01*
X193106Y63675D01*
X192938Y63728D01*
X192792Y63739D01*
X192668Y63708D01*
X192565Y63635D01*
X192484Y63519D01*
X193855Y66168D01*
X193905Y65954D01*
D02*
G37*
G36*
X-24553Y67679D02*
X-24530Y67615D01*
X-24491Y67559D01*
X-24436Y67510D01*
X-24366Y67469D01*
X-24280Y67435D01*
X-24179Y67409D01*
X-24062Y67390D01*
X-23929Y67379D01*
X-23781Y67375D01*
Y66625D01*
X-23929Y66621D01*
X-24062Y66610D01*
X-24179Y66591D01*
X-24280Y66565D01*
X-24366Y66531D01*
X-24436Y66490D01*
X-24491Y66441D01*
X-24530Y66385D01*
X-24553Y66321D01*
X-24561Y66250D01*
Y67750D01*
X-24553Y67679D01*
D02*
G37*
G36*
X175885Y70350D02*
X175979Y70273D01*
X176072Y70206D01*
X176165Y70150D01*
X176258Y70105D01*
X176351Y70070D01*
X176444Y70046D01*
X176537Y70032D01*
X176630Y70030D01*
X176723Y70037D01*
X175663Y68977D01*
X175671Y69070D01*
X175668Y69163D01*
X175654Y69255D01*
X175630Y69349D01*
X175595Y69442D01*
X175550Y69535D01*
X175494Y69628D01*
X175427Y69721D01*
X175350Y69815D01*
X175261Y69908D01*
X175792Y70439D01*
X175885Y70350D01*
D02*
G37*
G36*
X199635Y67246D02*
Y63713D01*
X199154Y63289D01*
X198365Y62948D01*
X198275Y62985D01*
X197892Y63077D01*
X197500Y63108D01*
X197177Y63082D01*
X197106Y63142D01*
X197041Y63205D01*
X195571Y64675D01*
X195260Y65016D01*
X195136Y65175D01*
X195021Y65339D01*
X194920Y65504D01*
X194832Y65667D01*
X194758Y65830D01*
X194697Y65989D01*
X194633Y66255D01*
X194608Y66316D01*
X194601Y66344D01*
X194591Y66371D01*
X194585Y66401D01*
X194555Y66465D01*
X194531Y66531D01*
X194513Y66555D01*
X194501Y66582D01*
X194495Y66589D01*
X194466Y66657D01*
X194240Y67027D01*
X193957Y67358D01*
X193627Y67640D01*
X193257Y67867D01*
X192855Y68033D01*
X192433Y68134D01*
X192000Y68169D01*
X190000D01*
X189567Y68134D01*
X189144Y68033D01*
X188743Y67867D01*
X188372Y67640D01*
X188042Y67358D01*
X187760Y67027D01*
X187533Y66657D01*
X187367Y66255D01*
X187265Y65833D01*
X187231Y65400D01*
X187265Y64967D01*
X187367Y64544D01*
X187533Y64143D01*
X187760Y63773D01*
X188042Y63442D01*
X187823Y62757D01*
X187083Y62844D01*
X186719Y63003D01*
X186573Y63173D01*
X186274Y63429D01*
X185938Y63634D01*
X185575Y63785D01*
X185192Y63877D01*
X184800Y63908D01*
X184408Y63877D01*
X184025Y63785D01*
X183661Y63634D01*
X183326Y63429D01*
X183027Y63173D01*
X182771Y62874D01*
X182566Y62538D01*
X182479Y62330D01*
X180785D01*
X180489Y62291D01*
X180408Y62257D01*
X180213Y62176D01*
X179975Y61995D01*
X178690Y60710D01*
X178206Y60543D01*
X177673Y60666D01*
X177673Y60666D01*
X177365Y60760D01*
X177294Y60781D01*
X176900Y60820D01*
X176731Y60803D01*
X176723Y60804D01*
X176691Y60800D01*
X176658Y60801D01*
X176609Y60797D01*
X176604Y60797D01*
X176596Y60798D01*
X176582Y60802D01*
X176561Y60810D01*
X176532Y60824D01*
X176493Y60847D01*
X176447Y60880D01*
X176398Y60921D01*
X175660Y61659D01*
Y65941D01*
X176398Y66679D01*
X176447Y66720D01*
X176493Y66753D01*
X176532Y66776D01*
X176561Y66790D01*
X176582Y66798D01*
X176596Y66802D01*
X176604Y66803D01*
X176609Y66803D01*
X176658Y66799D01*
X176691Y66800D01*
X176723Y66796D01*
X176731Y66797D01*
X176900Y66780D01*
X177294Y66819D01*
X177673Y66934D01*
X178022Y67121D01*
X178328Y67372D01*
X178579Y67678D01*
X178766Y68027D01*
X178881Y68406D01*
X178920Y68800D01*
X178881Y69194D01*
X178766Y69573D01*
X178579Y69922D01*
X178328Y70228D01*
X178022Y70479D01*
X177743Y70628D01*
X177673Y70927D01*
Y71673D01*
X177743Y71972D01*
X177846Y72027D01*
X178022Y72121D01*
X178636Y72553D01*
X178838Y72694D01*
X180011Y72639D01*
X180254Y72509D01*
X180472Y72372D01*
X180778Y72121D01*
X181127Y71934D01*
X181506Y71819D01*
X181900Y71780D01*
X182294Y71819D01*
X182673Y71934D01*
X183022Y72121D01*
X183328Y72372D01*
X183579Y72678D01*
X183766Y73027D01*
X183876Y73390D01*
X193491D01*
X199635Y67246D01*
D02*
G37*
G36*
X176723Y67563D02*
X176630Y67571D01*
X176537Y67568D01*
X176444Y67554D01*
X176351Y67530D01*
X176258Y67495D01*
X176165Y67450D01*
X176072Y67394D01*
X175979Y67327D01*
X175885Y67249D01*
X175792Y67161D01*
X175261Y67692D01*
X175350Y67785D01*
X175427Y67878D01*
X175494Y67972D01*
X175550Y68065D01*
X175595Y68158D01*
X175630Y68251D01*
X175654Y68344D01*
X175668Y68438D01*
X175671Y68530D01*
X175663Y68623D01*
X176723Y67563D01*
D02*
G37*
G36*
X159303Y69601D02*
X159334Y69264D01*
X159364Y69110D01*
X159402Y68967D01*
X159450Y68833D01*
X159506Y68710D01*
X159571Y68597D01*
X159645Y68495D01*
X159728Y68402D01*
X159198Y67871D01*
X159106Y67955D01*
X159003Y68029D01*
X158890Y68094D01*
X158767Y68150D01*
X158633Y68198D01*
X158490Y68236D01*
X158336Y68266D01*
X158173Y68286D01*
X157999Y68298D01*
X157815Y68300D01*
X159300Y69785D01*
X159303Y69601D01*
D02*
G37*
G36*
X188091Y53056D02*
X188098Y53126D01*
X188084Y53189D01*
X188050Y53244D01*
X187996Y53292D01*
X187922Y53333D01*
X187827Y53366D01*
X187712Y53392D01*
X187577Y53410D01*
X187422Y53421D01*
X187247Y53425D01*
X187399Y54175D01*
X187579Y54179D01*
X187888Y54207D01*
X188017Y54232D01*
X188128Y54264D01*
X188222Y54304D01*
X188298Y54351D01*
X188358Y54404D01*
X188400Y54465D01*
X188425Y54533D01*
X188091Y53056D01*
D02*
G37*
G36*
X177279Y55614D02*
X177290Y55493D01*
X177309Y55380D01*
X177335Y55274D01*
X177369Y55176D01*
X177410Y55086D01*
X177459Y55003D01*
X177515Y54928D01*
X177579Y54860D01*
X177650Y54800D01*
X176150D01*
X176221Y54860D01*
X176285Y54928D01*
X176341Y55003D01*
X176390Y55086D01*
X176431Y55176D01*
X176465Y55274D01*
X176491Y55380D01*
X176510Y55493D01*
X176521Y55614D01*
X176525Y55742D01*
X177275D01*
X177279Y55614D01*
D02*
G37*
G36*
X102960Y54479D02*
X103028Y54415D01*
X103103Y54359D01*
X103186Y54310D01*
X103276Y54269D01*
X103374Y54235D01*
X103480Y54209D01*
X103593Y54190D01*
X103714Y54179D01*
X103842Y54175D01*
Y53425D01*
X103714Y53421D01*
X103593Y53410D01*
X103480Y53391D01*
X103374Y53365D01*
X103276Y53331D01*
X103186Y53290D01*
X103103Y53241D01*
X103028Y53185D01*
X102960Y53121D01*
X102900Y53050D01*
Y54550D01*
X102960Y54479D01*
D02*
G37*
G36*
X182960D02*
X183028Y54415D01*
X183103Y54359D01*
X183186Y54310D01*
X183276Y54269D01*
X183374Y54235D01*
X183480Y54209D01*
X183593Y54190D01*
X183714Y54179D01*
X183842Y54175D01*
Y53425D01*
X183714Y53421D01*
X183593Y53410D01*
X183480Y53391D01*
X183374Y53365D01*
X183276Y53331D01*
X183186Y53290D01*
X183103Y53241D01*
X183028Y53185D01*
X182960Y53121D01*
X182900Y53050D01*
Y54550D01*
X182960Y54479D01*
D02*
G37*
G36*
X177579Y57740D02*
X177515Y57672D01*
X177459Y57597D01*
X177410Y57514D01*
X177369Y57424D01*
X177335Y57326D01*
X177309Y57220D01*
X177290Y57107D01*
X177279Y56986D01*
X177275Y56858D01*
X176525D01*
X176521Y56986D01*
X176510Y57107D01*
X176491Y57220D01*
X176465Y57326D01*
X176431Y57424D01*
X176390Y57514D01*
X176341Y57597D01*
X176285Y57672D01*
X176221Y57740D01*
X176150Y57800D01*
X177650D01*
X177579Y57740D01*
D02*
G37*
G36*
X196592Y62573D02*
X196814Y62385D01*
X196920Y62309D01*
X197023Y62244D01*
X197122Y62192D01*
X197218Y62151D01*
X197310Y62122D01*
X197399Y62105D01*
X197485Y62100D01*
X196000Y60615D01*
X195995Y60701D01*
X195978Y60790D01*
X195949Y60882D01*
X195908Y60978D01*
X195856Y61077D01*
X195791Y61180D01*
X195715Y61286D01*
X195627Y61396D01*
X195415Y61625D01*
X196475Y62685D01*
X196592Y62573D01*
D02*
G37*
G36*
X183471Y60704D02*
X183456Y60722D01*
X183432Y60739D01*
X183399Y60753D01*
X183355Y60765D01*
X183303Y60776D01*
X183241Y60785D01*
X183088Y60796D01*
X182898Y60800D01*
Y61550D01*
X182975Y61551D01*
X183106Y61561D01*
X183160Y61569D01*
X183207Y61580D01*
X183246Y61593D01*
X183277Y61609D01*
X183300Y61627D01*
X183316Y61648D01*
X183325Y61671D01*
X183471Y60704D01*
D02*
G37*
G36*
X188171Y58656D02*
X188162Y58726D01*
X188137Y58789D01*
X188094Y58844D01*
X188034Y58892D01*
X187957Y58933D01*
X187863Y58966D01*
X187752Y58992D01*
X187624Y59010D01*
X187479Y59021D01*
X187316Y59025D01*
Y59775D01*
X187479Y59779D01*
X187624Y59790D01*
X187752Y59808D01*
X187863Y59834D01*
X187957Y59867D01*
X188034Y59908D01*
X188094Y59956D01*
X188137Y60011D01*
X188162Y60074D01*
X188171Y60144D01*
Y58656D01*
D02*
G37*
G36*
X175885Y60350D02*
X175979Y60273D01*
X176072Y60206D01*
X176165Y60150D01*
X176258Y60105D01*
X176351Y60070D01*
X176444Y60046D01*
X176537Y60032D01*
X176630Y60030D01*
X176723Y60037D01*
X175663Y58977D01*
X175671Y59070D01*
X175668Y59163D01*
X175654Y59255D01*
X175630Y59349D01*
X175595Y59442D01*
X175550Y59535D01*
X175494Y59628D01*
X175427Y59721D01*
X175350Y59815D01*
X175261Y59908D01*
X175792Y60439D01*
X175885Y60350D01*
D02*
G37*
G36*
X180022Y9697D02*
X179806Y9436D01*
X179718Y9306D01*
X179644Y9178D01*
X179583Y9050D01*
X179536Y8923D01*
X179502Y8797D01*
X179482Y8672D01*
X179475Y8548D01*
X178725D01*
X178718Y8672D01*
X178698Y8797D01*
X178664Y8923D01*
X178617Y9050D01*
X178556Y9178D01*
X178482Y9306D01*
X178394Y9436D01*
X178293Y9566D01*
X178178Y9697D01*
X178050Y9829D01*
X180150D01*
X180022Y9697D01*
D02*
G37*
G36*
X178130Y13530D02*
X178132Y13438D01*
X178146Y13345D01*
X178170Y13251D01*
X178205Y13158D01*
X178250Y13065D01*
X178306Y12972D01*
X178367Y12887D01*
X178382Y12875D01*
X178485Y12806D01*
X178602Y12736D01*
X178875Y12597D01*
X179032Y12528D01*
X179581Y12321D01*
X177689Y11409D01*
X177738Y11564D01*
X177772Y11712D01*
X177791Y11854D01*
X177794Y11990D01*
X177782Y12120D01*
X177754Y12244D01*
X177711Y12362D01*
X177680Y12423D01*
X177635Y12450D01*
X177542Y12495D01*
X177449Y12530D01*
X177355Y12554D01*
X177262Y12568D01*
X177170Y12571D01*
X177077Y12563D01*
X178137Y13623D01*
X178130Y13530D01*
D02*
G37*
G36*
X179479Y7199D02*
X179490Y7067D01*
X179509Y6949D01*
X179535Y6848D01*
X179569Y6762D01*
X179610Y6692D01*
X179659Y6637D01*
X179715Y6598D01*
X179779Y6575D01*
X179850Y6567D01*
X178350D01*
X178421Y6575D01*
X178485Y6598D01*
X178541Y6637D01*
X178590Y6692D01*
X178631Y6762D01*
X178665Y6848D01*
X178691Y6949D01*
X178710Y7067D01*
X178721Y7199D01*
X178725Y7347D01*
X179475D01*
X179479Y7199D01*
D02*
G37*
G36*
X91099Y7436D02*
X91404Y7172D01*
X91546Y7064D01*
X91682Y6974D01*
X91811Y6899D01*
X91934Y6841D01*
X92050Y6800D01*
X92160Y6775D01*
X92263Y6767D01*
X90142D01*
X90243Y6773D01*
X90321Y6789D01*
X90377Y6817D01*
X90411Y6857D01*
X90422Y6907D01*
X90411Y6969D01*
X90377Y7042D01*
X90321Y7126D01*
X90243Y7221D01*
X90142Y7328D01*
X90937Y7593D01*
X91099Y7436D01*
D02*
G37*
G36*
X173130Y13530D02*
X173132Y13438D01*
X173146Y13345D01*
X173170Y13251D01*
X173205Y13158D01*
X173250Y13065D01*
X173306Y12972D01*
X173373Y12879D01*
X173451Y12785D01*
X173529Y12701D01*
X173598Y12636D01*
X173783Y12476D01*
X173995Y12315D01*
X174363Y12069D01*
X174642Y11904D01*
X172672Y11461D01*
X172748Y11582D01*
X172805Y11701D01*
X172844Y11818D01*
X172864Y11932D01*
X172865Y12045D01*
X172848Y12156D01*
X172812Y12264D01*
X172757Y12371D01*
X172754Y12375D01*
X172728Y12394D01*
X172635Y12450D01*
X172542Y12495D01*
X172449Y12530D01*
X172355Y12554D01*
X172262Y12568D01*
X172170Y12571D01*
X172077Y12563D01*
X173137Y13623D01*
X173130Y13530D01*
D02*
G37*
G36*
X193693Y18315D02*
X193729Y18254D01*
X193782Y18201D01*
X193852Y18154D01*
X193939Y18115D01*
X194044Y18082D01*
X194165Y18057D01*
X194304Y18039D01*
X194460Y18029D01*
X194634Y18025D01*
X194733Y17275D01*
X194562Y17271D01*
X194276Y17242D01*
X194162Y17216D01*
X194067Y17183D01*
X193991Y17142D01*
X193934Y17094D01*
X193896Y17039D01*
X193878Y16976D01*
X193878Y16906D01*
X193675Y18383D01*
X193693Y18315D01*
D02*
G37*
G36*
X157275Y17173D02*
X156525D01*
X156523Y17608D01*
X157277D01*
X157275Y17173D01*
D02*
G37*
G36*
X162579Y12740D02*
X162515Y12672D01*
X162459Y12597D01*
X162410Y12514D01*
X162369Y12424D01*
X162335Y12326D01*
X162309Y12220D01*
X162290Y12107D01*
X162279Y11986D01*
X162275Y11858D01*
X161525D01*
X161521Y11986D01*
X161510Y12107D01*
X161491Y12220D01*
X161465Y12326D01*
X161431Y12424D01*
X161390Y12514D01*
X161341Y12597D01*
X161285Y12672D01*
X161221Y12740D01*
X161150Y12800D01*
X162650D01*
X162579Y12740D01*
D02*
G37*
G36*
X82921Y17198D02*
X82705Y16936D01*
X82617Y16807D01*
X82543Y16679D01*
X82482Y16551D01*
X82435Y16424D01*
X82401Y16298D01*
X82381Y16173D01*
X82374Y16048D01*
X81624D01*
X81617Y16173D01*
X81597Y16298D01*
X81563Y16424D01*
X81516Y16551D01*
X81455Y16679D01*
X81381Y16807D01*
X81293Y16936D01*
X81192Y17067D01*
X81077Y17198D01*
X80949Y17330D01*
X83049D01*
X82921Y17198D01*
D02*
G37*
G36*
X166403Y6722D02*
X166664Y6506D01*
X166777Y6429D01*
X166778Y6430D01*
X166810Y6490D01*
X166806Y6411D01*
X166922Y6344D01*
X167050Y6283D01*
X167177Y6236D01*
X167303Y6202D01*
X167428Y6182D01*
X167552Y6175D01*
Y5425D01*
X167428Y5418D01*
X167303Y5398D01*
X167177Y5364D01*
X167050Y5317D01*
X166922Y5256D01*
X166794Y5182D01*
X166738Y5144D01*
X166733Y5050D01*
X166729Y5121D01*
X166724Y5135D01*
X166664Y5094D01*
X166534Y4993D01*
X166403Y4878D01*
X166271Y4750D01*
Y5405D01*
X166240Y5410D01*
X166104Y5421D01*
X165952Y5425D01*
Y6175D01*
X166092Y6178D01*
X166271Y6197D01*
Y6850D01*
X166403Y6722D01*
D02*
G37*
G36*
X176022Y6430D02*
X176066Y6377D01*
X176122Y6329D01*
X176190Y6288D01*
X176269Y6254D01*
X176361Y6225D01*
X176465Y6203D01*
X176580Y6188D01*
X176708Y6178D01*
X176847Y6175D01*
Y5425D01*
X176696Y5421D01*
X176560Y5410D01*
X176441Y5391D01*
X176338Y5365D01*
X176252Y5331D01*
X176182Y5290D01*
X176129Y5241D01*
X176092Y5185D01*
X176071Y5121D01*
X176067Y5050D01*
X175990Y6490D01*
X176022Y6430D01*
D02*
G37*
G36*
X82103Y5722D02*
X82364Y5506D01*
X82494Y5418D01*
X82622Y5344D01*
X82750Y5283D01*
X82877Y5236D01*
X83003Y5202D01*
X83128Y5182D01*
X83133Y5181D01*
X83233Y5190D01*
X83350Y5209D01*
X83452Y5235D01*
X83538Y5269D01*
X83608Y5310D01*
X83663Y5359D01*
X83702Y5415D01*
X83725Y5479D01*
X83733Y5550D01*
Y4050D01*
X83725Y4121D01*
X83702Y4185D01*
X83663Y4241D01*
X83608Y4290D01*
X83538Y4331D01*
X83452Y4365D01*
X83350Y4391D01*
X83233Y4410D01*
X83133Y4419D01*
X83128Y4418D01*
X83003Y4398D01*
X82877Y4364D01*
X82750Y4317D01*
X82622Y4256D01*
X82494Y4182D01*
X82364Y4094D01*
X82234Y3993D01*
X82103Y3878D01*
X81971Y3750D01*
Y5850D01*
X82103Y5722D01*
D02*
G37*
G36*
X143891Y6455D02*
X144307Y6410D01*
X144850Y6384D01*
X145518Y6375D01*
X145764Y5625D01*
X145624Y5618D01*
X145498Y5597D01*
X145387Y5563D01*
X145289Y5514D01*
X145206Y5452D01*
X145136Y5375D01*
X145081Y5285D01*
X145039Y5181D01*
X145012Y5063D01*
X144998Y4931D01*
X143780Y6474D01*
X143891Y6455D01*
D02*
G37*
G36*
X177933Y5050D02*
X177929Y5121D01*
X177908Y5185D01*
X177871Y5241D01*
X177818Y5290D01*
X177748Y5331D01*
X177662Y5365D01*
X177559Y5391D01*
X177440Y5410D01*
X177304Y5421D01*
X177153Y5425D01*
Y6175D01*
X177292Y6178D01*
X177535Y6203D01*
X177639Y6225D01*
X177731Y6254D01*
X177810Y6288D01*
X177878Y6329D01*
X177934Y6377D01*
X177978Y6430D01*
X178010Y6490D01*
X177933Y5050D01*
D02*
G37*
G36*
X188929Y4750D02*
X188797Y4878D01*
X188536Y5094D01*
X188406Y5182D01*
X188278Y5256D01*
X188150Y5317D01*
X188023Y5364D01*
X187897Y5398D01*
X187802Y5413D01*
X187760Y5410D01*
X187641Y5391D01*
X187538Y5365D01*
X187452Y5331D01*
X187382Y5290D01*
X187329Y5241D01*
X187292Y5185D01*
X187271Y5121D01*
X187267Y5050D01*
X187190Y6490D01*
X187222Y6430D01*
X187266Y6377D01*
X187322Y6329D01*
X187390Y6288D01*
X187470Y6254D01*
X187561Y6225D01*
X187665Y6203D01*
X187780Y6188D01*
X187799Y6186D01*
X187897Y6202D01*
X188023Y6236D01*
X188150Y6283D01*
X188278Y6344D01*
X188406Y6418D01*
X188536Y6506D01*
X188666Y6607D01*
X188797Y6722D01*
X188929Y6850D01*
Y4750D01*
D02*
G37*
G36*
X157229Y4950D02*
X157097Y5078D01*
X156836Y5294D01*
X156706Y5382D01*
X156578Y5456D01*
X156450Y5517D01*
X156436Y5522D01*
X156382Y5490D01*
X156329Y5441D01*
X156292Y5385D01*
X156271Y5321D01*
X156267Y5250D01*
X156249Y5584D01*
X156197Y5598D01*
X156072Y5618D01*
X155948Y5625D01*
Y6375D01*
X156072Y6382D01*
X156197Y6402D01*
X156205Y6404D01*
X156190Y6690D01*
X156222Y6630D01*
X156266Y6576D01*
X156322Y6529D01*
X156390Y6488D01*
X156424Y6473D01*
X156450Y6483D01*
X156578Y6544D01*
X156706Y6618D01*
X156836Y6706D01*
X156966Y6807D01*
X157097Y6922D01*
X157229Y7050D01*
Y4950D01*
D02*
G37*
G36*
X146933Y5250D02*
X146929Y5321D01*
X146908Y5385D01*
X146871Y5441D01*
X146818Y5490D01*
X146748Y5531D01*
X146662Y5565D01*
X146559Y5591D01*
X146440Y5610D01*
X146304Y5621D01*
X146152Y5625D01*
Y6375D01*
X146292Y6378D01*
X146535Y6403D01*
X146639Y6425D01*
X146730Y6454D01*
X146810Y6488D01*
X146878Y6529D01*
X146934Y6576D01*
X146978Y6630D01*
X147010Y6690D01*
X146933Y5250D01*
D02*
G37*
G36*
X160229Y7398D02*
X160145Y7305D01*
X160071Y7203D01*
X160006Y7090D01*
X159950Y6967D01*
X159902Y6833D01*
X159864Y6690D01*
X159834Y6536D01*
X159814Y6373D01*
X159803Y6199D01*
X159800Y6015D01*
X158315Y7500D01*
X158499Y7502D01*
X158836Y7534D01*
X158990Y7564D01*
X159133Y7602D01*
X159267Y7650D01*
X159390Y7706D01*
X159503Y7771D01*
X159606Y7845D01*
X159698Y7929D01*
X160229Y7398D01*
D02*
G37*
G36*
X168103Y29722D02*
X168364Y29506D01*
X168494Y29418D01*
X168622Y29344D01*
X168750Y29283D01*
X168877Y29236D01*
X169003Y29202D01*
X169128Y29182D01*
X169252Y29175D01*
Y28425D01*
X169128Y28418D01*
X169003Y28398D01*
X168877Y28364D01*
X168750Y28317D01*
X168622Y28256D01*
X168494Y28182D01*
X168364Y28094D01*
X168234Y27993D01*
X168103Y27878D01*
X167971Y27750D01*
Y29850D01*
X168103Y29722D01*
D02*
G37*
G36*
X170900Y28050D02*
X170840Y28121D01*
X170772Y28185D01*
X170697Y28241D01*
X170614Y28290D01*
X170524Y28331D01*
X170426Y28365D01*
X170320Y28391D01*
X170207Y28410D01*
X170086Y28421D01*
X169958Y28425D01*
Y29175D01*
X170086Y29179D01*
X170207Y29190D01*
X170320Y29209D01*
X170426Y29235D01*
X170524Y29269D01*
X170614Y29310D01*
X170697Y29359D01*
X170772Y29415D01*
X170840Y29479D01*
X170900Y29550D01*
Y28050D01*
D02*
G37*
G36*
X162279Y25614D02*
X162290Y25493D01*
X162309Y25380D01*
X162335Y25274D01*
X162369Y25176D01*
X162410Y25086D01*
X162459Y25003D01*
X162515Y24928D01*
X162579Y24860D01*
X162650Y24800D01*
X161150D01*
X161221Y24860D01*
X161285Y24928D01*
X161341Y25003D01*
X161390Y25086D01*
X161431Y25176D01*
X161465Y25274D01*
X161491Y25380D01*
X161510Y25493D01*
X161521Y25614D01*
X161525Y25742D01*
X162275D01*
X162279Y25614D01*
D02*
G37*
G36*
X161209Y28245D02*
X161372Y27736D01*
X161432Y27591D01*
X161561Y27338D01*
X161631Y27230D01*
X161703Y27135D01*
X161779Y27052D01*
X161382Y26388D01*
X161284Y26475D01*
X161178Y26549D01*
X161066Y26609D01*
X160945Y26655D01*
X160818Y26688D01*
X160683Y26707D01*
X160540Y26712D01*
X160390Y26704D01*
X160233Y26682D01*
X160068Y26646D01*
X161161Y28439D01*
X161209Y28245D01*
D02*
G37*
G36*
X193787Y30165D02*
X193816Y30104D01*
X193863Y30050D01*
X193926Y30004D01*
X194006Y29964D01*
X194104Y29932D01*
X194218Y29907D01*
X194349Y29889D01*
X194498Y29879D01*
X194663Y29875D01*
X194703Y29125D01*
X194538Y29121D01*
X194390Y29110D01*
X194260Y29092D01*
X194147Y29066D01*
X194053Y29033D01*
X193976Y28992D01*
X193918Y28944D01*
X193877Y28889D01*
X193854Y28826D01*
X193849Y28756D01*
X193775Y30233D01*
X193787Y30165D01*
D02*
G37*
G36*
X-24553Y34679D02*
X-24530Y34615D01*
X-24491Y34559D01*
X-24436Y34510D01*
X-24366Y34469D01*
X-24280Y34435D01*
X-24179Y34409D01*
X-24062Y34390D01*
X-23929Y34379D01*
X-23781Y34375D01*
Y33625D01*
X-23929Y33621D01*
X-24062Y33610D01*
X-24179Y33591D01*
X-24280Y33565D01*
X-24366Y33531D01*
X-24436Y33490D01*
X-24491Y33441D01*
X-24530Y33385D01*
X-24553Y33321D01*
X-24561Y33250D01*
Y34750D01*
X-24553Y34679D01*
D02*
G37*
G36*
X193725Y36265D02*
X193758Y36204D01*
X193809Y36151D01*
X193877Y36104D01*
X193962Y36065D01*
X194064Y36032D01*
X194183Y36007D01*
X194319Y35989D01*
X194473Y35979D01*
X194643Y35975D01*
X194723Y35225D01*
X194554Y35221D01*
X194270Y35192D01*
X194157Y35166D01*
X194062Y35133D01*
X193986Y35092D01*
X193929Y35044D01*
X193890Y34989D01*
X193870Y34926D01*
X193869Y34856D01*
X193708Y36333D01*
X193725Y36265D01*
D02*
G37*
G36*
X80155Y76477D02*
X80155Y37274D01*
X74426Y31545D01*
X-18426D01*
X-21220Y34339D01*
Y43855D01*
X-21200D01*
X-20903Y43894D01*
X-20823Y43928D01*
X-20627Y44009D01*
X-20390Y44191D01*
X-17026Y47555D01*
X49100D01*
X49396Y47594D01*
X49477Y47628D01*
X49672Y47709D01*
X49910Y47891D01*
X78982Y76963D01*
X80155Y76477D01*
D02*
G37*
G36*
X170900Y33050D02*
X170840Y33121D01*
X170772Y33185D01*
X170697Y33241D01*
X170614Y33290D01*
X170524Y33331D01*
X170426Y33365D01*
X170320Y33391D01*
X170207Y33410D01*
X170086Y33421D01*
X169958Y33425D01*
Y34175D01*
X170086Y34179D01*
X170207Y34190D01*
X170320Y34209D01*
X170426Y34235D01*
X170524Y34269D01*
X170614Y34310D01*
X170697Y34359D01*
X170772Y34415D01*
X170840Y34479D01*
X170900Y34550D01*
Y33050D01*
D02*
G37*
G36*
X175885Y20350D02*
X175979Y20273D01*
X176072Y20206D01*
X176165Y20150D01*
X176258Y20105D01*
X176351Y20070D01*
X176444Y20046D01*
X176537Y20032D01*
X176630Y20029D01*
X176638Y20030D01*
X176783Y20175D01*
X176770Y20050D01*
X176768Y19929D01*
X176777Y19810D01*
X176798Y19694D01*
X176831Y19582D01*
X176875Y19472D01*
X176930Y19366D01*
X176997Y19262D01*
X177075Y19162D01*
X177165Y19065D01*
X176635Y18535D01*
X176538Y18625D01*
X176437Y18703D01*
X176334Y18770D01*
X176228Y18825D01*
X176118Y18869D01*
X176006Y18902D01*
X175890Y18923D01*
X175771Y18932D01*
X175650Y18930D01*
X175525Y18917D01*
X175670Y19062D01*
X175671Y19070D01*
X175668Y19162D01*
X175654Y19255D01*
X175630Y19349D01*
X175595Y19442D01*
X175550Y19535D01*
X175494Y19628D01*
X175427Y19721D01*
X175350Y19815D01*
X175261Y19908D01*
X175792Y20439D01*
X175885Y20350D01*
D02*
G37*
G36*
X165886Y20349D02*
X165980Y20270D01*
X166073Y20203D01*
X166165Y20146D01*
X166256Y20100D01*
X166346Y20065D01*
X166436Y20041D01*
X166524Y20027D01*
X166612Y20025D01*
X166699Y20034D01*
X165666Y19001D01*
X165675Y19088D01*
X165673Y19176D01*
X165660Y19264D01*
X165635Y19354D01*
X165600Y19444D01*
X165554Y19535D01*
X165497Y19627D01*
X165430Y19720D01*
X165351Y19814D01*
X165261Y19908D01*
X165792Y20439D01*
X165886Y20349D01*
D02*
G37*
G36*
X160885Y20350D02*
X160979Y20273D01*
X161072Y20206D01*
X161165Y20150D01*
X161258Y20105D01*
X161351Y20070D01*
X161444Y20046D01*
X161537Y20032D01*
X161630Y20029D01*
X161638Y20030D01*
X161783Y20175D01*
X161770Y20050D01*
X161768Y19929D01*
X161777Y19810D01*
X161798Y19694D01*
X161831Y19582D01*
X161875Y19472D01*
X161930Y19366D01*
X161997Y19262D01*
X162075Y19162D01*
X162165Y19065D01*
X161635Y18535D01*
X161538Y18625D01*
X161437Y18703D01*
X161334Y18770D01*
X161228Y18825D01*
X161118Y18869D01*
X161006Y18902D01*
X160890Y18923D01*
X160771Y18932D01*
X160650Y18930D01*
X160525Y18917D01*
X160670Y19062D01*
X160671Y19070D01*
X160668Y19162D01*
X160654Y19255D01*
X160630Y19349D01*
X160595Y19442D01*
X160550Y19535D01*
X160494Y19628D01*
X160427Y19721D01*
X160350Y19815D01*
X160261Y19908D01*
X160792Y20439D01*
X160885Y20350D01*
D02*
G37*
G36*
X166869Y19574D02*
X166866Y19531D01*
X166873Y19486D01*
X166888Y19436D01*
X166912Y19384D01*
X166945Y19327D01*
X166987Y19267D01*
X167038Y19203D01*
X167165Y19065D01*
X166635Y18535D01*
X166564Y18603D01*
X166433Y18713D01*
X166373Y18755D01*
X166316Y18788D01*
X166264Y18812D01*
X166214Y18827D01*
X166169Y18834D01*
X166126Y18831D01*
X166088Y18820D01*
X166880Y19612D01*
X166869Y19574D01*
D02*
G37*
G36*
X157277Y19992D02*
X156523D01*
X156525Y20427D01*
X157275D01*
X157277Y19992D01*
D02*
G37*
G36*
X193854Y23974D02*
X193877Y23911D01*
X193918Y23856D01*
X193976Y23808D01*
X194053Y23767D01*
X194147Y23734D01*
X194260Y23708D01*
X194390Y23690D01*
X194538Y23679D01*
X194703Y23675D01*
X194663Y22925D01*
X194498Y22921D01*
X194218Y22893D01*
X194104Y22868D01*
X194006Y22836D01*
X193926Y22796D01*
X193863Y22750D01*
X193816Y22696D01*
X193787Y22635D01*
X193775Y22567D01*
X193849Y24044D01*
X193854Y23974D01*
D02*
G37*
G36*
X182243Y23992D02*
X182320Y23930D01*
X182395Y23878D01*
X182469Y23837D01*
X182542Y23807D01*
X182614Y23788D01*
X182684Y23779D01*
X182753Y23782D01*
X182820Y23795D01*
X182887Y23819D01*
X182026Y22726D01*
X182034Y22797D01*
X182031Y22871D01*
X182018Y22947D01*
X181995Y23024D01*
X181961Y23104D01*
X181917Y23186D01*
X181862Y23270D01*
X181797Y23356D01*
X181721Y23445D01*
X181635Y23535D01*
X182165Y24065D01*
X182243Y23992D01*
D02*
G37*
G36*
X183107Y23449D02*
X183109Y23379D01*
X183121Y23306D01*
X183144Y23231D01*
X183179Y23152D01*
X183224Y23071D01*
X183280Y22986D01*
X183347Y22899D01*
X183426Y22809D01*
X183515Y22715D01*
X182985Y22185D01*
X182891Y22274D01*
X182714Y22420D01*
X182629Y22476D01*
X182548Y22522D01*
X182469Y22556D01*
X182394Y22579D01*
X182321Y22591D01*
X182251Y22593D01*
X182185Y22583D01*
X183117Y23515D01*
X183107Y23449D01*
D02*
G37*
G36*
X-24553Y23679D02*
X-24530Y23615D01*
X-24491Y23559D01*
X-24436Y23510D01*
X-24366Y23469D01*
X-24280Y23435D01*
X-24179Y23409D01*
X-24062Y23390D01*
X-23929Y23379D01*
X-23781Y23375D01*
Y22625D01*
X-23929Y22621D01*
X-24062Y22610D01*
X-24179Y22591D01*
X-24280Y22565D01*
X-24366Y22531D01*
X-24436Y22490D01*
X-24491Y22441D01*
X-24530Y22385D01*
X-24553Y22321D01*
X-24561Y22250D01*
Y23750D01*
X-24553Y23679D01*
D02*
G37*
G36*
X101723Y87563D02*
X101630Y87570D01*
X101538Y87568D01*
X101445Y87554D01*
X101351Y87530D01*
X101258Y87495D01*
X101165Y87450D01*
X101072Y87394D01*
X100978Y87327D01*
X100885Y87249D01*
X100792Y87161D01*
X100261Y87692D01*
X100350Y87785D01*
X100427Y87879D01*
X100494Y87972D01*
X100550Y88065D01*
X100595Y88158D01*
X100630Y88251D01*
X100654Y88344D01*
X100668Y88438D01*
X100670Y88530D01*
X100663Y88623D01*
X101723Y87563D01*
D02*
G37*
G36*
X90793Y88220D02*
X90746Y88297D01*
X90690Y88366D01*
X90624Y88426D01*
X90550Y88479D01*
X90466Y88524D01*
X90374Y88560D01*
X90272Y88589D01*
X90161Y88609D01*
X90041Y88621D01*
X89912Y88625D01*
X90040Y89375D01*
X90168Y89378D01*
X90289Y89388D01*
X90405Y89404D01*
X90513Y89427D01*
X90616Y89456D01*
X90712Y89492D01*
X90802Y89535D01*
X90885Y89583D01*
X90962Y89639D01*
X91033Y89700D01*
X90793Y88220D01*
D02*
G37*
G36*
X125485Y87800D02*
X125301Y87797D01*
X124964Y87766D01*
X124810Y87736D01*
X124667Y87698D01*
X124533Y87650D01*
X124410Y87594D01*
X124297Y87529D01*
X124194Y87455D01*
X124102Y87372D01*
X123572Y87902D01*
X123655Y87994D01*
X123729Y88097D01*
X123794Y88210D01*
X123850Y88333D01*
X123898Y88467D01*
X123936Y88610D01*
X123966Y88764D01*
X123986Y88927D01*
X123997Y89101D01*
X124000Y89285D01*
X125485Y87800D01*
D02*
G37*
G36*
X191698Y85102D02*
X191589Y85239D01*
X191478Y85362D01*
X191365Y85471D01*
X191249Y85565D01*
X191131Y85644D01*
X191011Y85709D01*
X190889Y85760D01*
X190765Y85796D01*
X190639Y85818D01*
X190510Y85825D01*
X190615Y86575D01*
X190733Y86581D01*
X190856Y86599D01*
X190982Y86630D01*
X191112Y86672D01*
X191247Y86727D01*
X191385Y86794D01*
X191528Y86873D01*
X191824Y87068D01*
X191978Y87184D01*
X191698Y85102D01*
D02*
G37*
G36*
X199421Y88320D02*
X199525Y88246D01*
X199639Y88184D01*
X199761Y88134D01*
X199891Y88096D01*
X200030Y88069D01*
X200178Y88055D01*
X200334Y88052D01*
X200499Y88062D01*
X200673Y88083D01*
X199413Y86403D01*
X199384Y86594D01*
X199310Y86942D01*
X199264Y87098D01*
X199213Y87244D01*
X199156Y87377D01*
X199093Y87500D01*
X199025Y87610D01*
X198952Y87710D01*
X198872Y87797D01*
X199324Y88406D01*
X199421Y88320D01*
D02*
G37*
G36*
X-24553Y89679D02*
X-24530Y89615D01*
X-24491Y89559D01*
X-24436Y89510D01*
X-24366Y89469D01*
X-24280Y89435D01*
X-24179Y89409D01*
X-24062Y89390D01*
X-23929Y89379D01*
X-23781Y89375D01*
Y88625D01*
X-23929Y88621D01*
X-24062Y88610D01*
X-24179Y88591D01*
X-24280Y88565D01*
X-24366Y88531D01*
X-24436Y88490D01*
X-24491Y88441D01*
X-24530Y88385D01*
X-24553Y88321D01*
X-24561Y88250D01*
Y89750D01*
X-24553Y89679D01*
D02*
G37*
G36*
X161723Y92563D02*
X161630Y92570D01*
X161537Y92568D01*
X161444Y92554D01*
X161351Y92530D01*
X161258Y92495D01*
X161165Y92450D01*
X161072Y92394D01*
X160979Y92327D01*
X160885Y92249D01*
X160792Y92161D01*
X160261Y92692D01*
X160350Y92785D01*
X160427Y92879D01*
X160494Y92972D01*
X160550Y93065D01*
X160595Y93158D01*
X160630Y93251D01*
X160654Y93344D01*
X160668Y93438D01*
X160671Y93530D01*
X160663Y93623D01*
X161723Y92563D01*
D02*
G37*
G36*
X116699Y92566D02*
X116612Y92575D01*
X116524Y92573D01*
X116436Y92559D01*
X116346Y92535D01*
X116256Y92500D01*
X116165Y92454D01*
X116073Y92397D01*
X115980Y92330D01*
X115886Y92251D01*
X115792Y92161D01*
X115261Y92692D01*
X115351Y92786D01*
X115430Y92880D01*
X115498Y92973D01*
X115554Y93065D01*
X115600Y93156D01*
X115635Y93246D01*
X115660Y93336D01*
X115673Y93424D01*
X115675Y93512D01*
X115666Y93599D01*
X116699Y92566D01*
D02*
G37*
G36*
X114212Y100110D02*
X114741Y99424D01*
X114900Y99000D01*
X114880Y98800D01*
X114919Y98406D01*
X115034Y98027D01*
X115221Y97678D01*
X115472Y97372D01*
X115778Y97121D01*
X115808Y97105D01*
X115823Y96908D01*
X115915Y96525D01*
X116027Y96070D01*
X115778Y95479D01*
X115472Y95228D01*
X115221Y94922D01*
X115034Y94573D01*
X114919Y94194D01*
X114880Y93800D01*
X114900Y93600D01*
X114900Y93599D01*
X114901Y93589D01*
X114904Y93554D01*
X114904Y93523D01*
X114907Y93489D01*
X114906Y93486D01*
X114899Y93468D01*
X114885Y93440D01*
X114861Y93401D01*
X114826Y93353D01*
X114783Y93302D01*
X114691Y93209D01*
X114509Y92972D01*
X114442Y92811D01*
X114394Y92696D01*
X114355Y92400D01*
Y88600D01*
X114394Y88304D01*
X114442Y88189D01*
X114509Y88028D01*
X114691Y87790D01*
X116596Y85885D01*
X116833Y85703D01*
X116936Y85660D01*
X117110Y85588D01*
X117406Y85549D01*
X122894D01*
X123190Y85588D01*
X123271Y85622D01*
X123467Y85703D01*
X123704Y85885D01*
X124674Y86854D01*
X124676Y86857D01*
X124714Y86884D01*
X124755Y86908D01*
X125108Y86823D01*
X125500Y86792D01*
X125892Y86823D01*
X126275Y86915D01*
X126638Y87066D01*
X126974Y87271D01*
X127273Y87527D01*
X127529Y87826D01*
X127734Y88161D01*
X127885Y88525D01*
X127977Y88908D01*
X128008Y89300D01*
X127977Y89692D01*
X127885Y90075D01*
X127734Y90438D01*
X127631Y90607D01*
X127649Y91176D01*
X127871Y91918D01*
X128010Y92114D01*
X128022Y92121D01*
X128328Y92372D01*
X128579Y92678D01*
X128728Y92957D01*
X129027Y93027D01*
X129773D01*
X130072Y92957D01*
X130221Y92678D01*
X130472Y92372D01*
X130778Y92121D01*
X131127Y91934D01*
X131506Y91819D01*
X131900Y91780D01*
X132294Y91819D01*
X132673Y91934D01*
X133022Y92121D01*
X133328Y92372D01*
X133579Y92678D01*
X133728Y92957D01*
X134027Y93027D01*
X134773D01*
X135072Y92957D01*
X135221Y92678D01*
X135472Y92372D01*
X135778Y92121D01*
X136127Y91934D01*
X136506Y91819D01*
X136900Y91780D01*
X137294Y91819D01*
X137673Y91934D01*
X138022Y92121D01*
X138328Y92372D01*
X138579Y92678D01*
X138728Y92957D01*
X139027Y93027D01*
X139773D01*
X140072Y92957D01*
X140221Y92678D01*
X140472Y92372D01*
X140778Y92121D01*
X141127Y91934D01*
X141506Y91819D01*
X141900Y91780D01*
X141957Y91786D01*
X142350Y91631D01*
X142922Y91203D01*
X143171Y90959D01*
X143246Y90812D01*
X143315Y90525D01*
X143466Y90162D01*
X143671Y89826D01*
X143927Y89527D01*
X144226Y89271D01*
X144562Y89066D01*
X144925Y88915D01*
X145308Y88823D01*
X145700Y88792D01*
X146092Y88823D01*
X146475Y88915D01*
X146839Y89066D01*
X147174Y89271D01*
X147473Y89527D01*
X147729Y89826D01*
X147869Y90055D01*
X159300D01*
X159596Y90094D01*
X159711Y90142D01*
X159872Y90209D01*
X160110Y90391D01*
X161398Y91679D01*
X161447Y91720D01*
X161493Y91753D01*
X161532Y91776D01*
X161561Y91790D01*
X161582Y91798D01*
X161596Y91802D01*
X161604Y91803D01*
X161609Y91803D01*
X161658Y91799D01*
X161691Y91800D01*
X161723Y91796D01*
X161731Y91797D01*
X161900Y91780D01*
X162294Y91819D01*
X162673Y91934D01*
X163022Y92121D01*
X163328Y92372D01*
X163579Y92678D01*
X163728Y92957D01*
X164027Y93027D01*
X164773D01*
X165072Y92957D01*
X165221Y92678D01*
X165472Y92372D01*
X165778Y92121D01*
X166127Y91934D01*
X166506Y91819D01*
X166900Y91780D01*
X167294Y91819D01*
X167673Y91934D01*
X168022Y92121D01*
X168328Y92372D01*
X168579Y92678D01*
X168728Y92957D01*
X169027Y93027D01*
X169773D01*
X170072Y92957D01*
X170221Y92678D01*
X170472Y92372D01*
X170778Y92121D01*
X171057Y91972D01*
X171127Y91673D01*
Y90927D01*
X171057Y90628D01*
X170778Y90479D01*
X170472Y90228D01*
X170221Y89922D01*
X170034Y89573D01*
X169919Y89194D01*
X169880Y88800D01*
X169898Y88615D01*
X169714Y88121D01*
X169189Y87390D01*
X169014Y87259D01*
X169007Y87255D01*
X168852Y87191D01*
X168615Y87009D01*
X164181Y82575D01*
X163999Y82338D01*
X163932Y82176D01*
X163885Y82062D01*
X163846Y81766D01*
Y76810D01*
X163885Y76513D01*
X163932Y76399D01*
X163999Y76237D01*
X164181Y76000D01*
X168255Y71926D01*
Y66300D01*
X168294Y66004D01*
X168328Y65923D01*
X168409Y65728D01*
X168591Y65490D01*
X169779Y64302D01*
X169820Y64253D01*
X169853Y64207D01*
X169876Y64169D01*
X169890Y64139D01*
X169898Y64118D01*
X169902Y64104D01*
X169903Y64096D01*
X169903Y64091D01*
X169899Y64042D01*
X169900Y64009D01*
X169896Y63977D01*
X169897Y63969D01*
X169880Y63800D01*
X169919Y63406D01*
X170034Y63027D01*
X170221Y62678D01*
X170472Y62372D01*
X170778Y62121D01*
X171127Y61934D01*
X171506Y61819D01*
X171900Y61780D01*
X172100Y61800D01*
X172617Y61607D01*
X173244Y61123D01*
X173409Y60889D01*
X173443Y60808D01*
X173524Y60613D01*
X173706Y60375D01*
X174779Y59302D01*
X174820Y59253D01*
X174853Y59207D01*
X174876Y59169D01*
X174890Y59139D01*
X174898Y59118D01*
X174902Y59104D01*
X174903Y59096D01*
X174903Y59091D01*
X174899Y59042D01*
X174900Y59009D01*
X174896Y58977D01*
X174897Y58969D01*
X174880Y58800D01*
X174919Y58406D01*
X175034Y58027D01*
X175221Y57678D01*
X175472Y57372D01*
X175603Y57264D01*
X175608Y57258D01*
X175634Y57238D01*
X175656Y57214D01*
X175694Y57182D01*
X175697Y57178D01*
X175702Y57172D01*
X175709Y57160D01*
X175718Y57140D01*
X175729Y57108D01*
X175740Y57065D01*
X175749Y57009D01*
X175755Y56945D01*
Y55655D01*
X175749Y55591D01*
X175740Y55535D01*
X175729Y55492D01*
X175718Y55461D01*
X175709Y55440D01*
X175702Y55428D01*
X175697Y55422D01*
X175694Y55418D01*
X175656Y55386D01*
X175634Y55362D01*
X175608Y55342D01*
X175603Y55336D01*
X175472Y55228D01*
X175221Y54922D01*
X175034Y54573D01*
X174919Y54194D01*
X174880Y53800D01*
X174897Y53632D01*
X174897Y53632D01*
X174710Y53282D01*
X174400Y52930D01*
X173923Y52554D01*
X173902Y52545D01*
X168414D01*
X168410Y52545D01*
X168364Y52552D01*
X168318Y52565D01*
X168129Y52874D01*
X167873Y53173D01*
X167574Y53429D01*
X167239Y53634D01*
X166875Y53785D01*
X166492Y53877D01*
X166100Y53908D01*
X165708Y53877D01*
X165515Y53830D01*
X164761Y54198D01*
X164392Y54469D01*
X164245Y54685D01*
Y67941D01*
X164300Y67992D01*
X164692Y68023D01*
X165075Y68115D01*
X165438Y68266D01*
X165774Y68471D01*
X166073Y68727D01*
X166329Y69026D01*
X166534Y69362D01*
X166685Y69725D01*
X166777Y70108D01*
X166808Y70500D01*
X166777Y70892D01*
X166685Y71275D01*
X166534Y71638D01*
X166329Y71974D01*
X166073Y72273D01*
X165774Y72529D01*
X165438Y72734D01*
X165075Y72885D01*
X164692Y72977D01*
X164300Y73008D01*
X163908Y72977D01*
X163525Y72885D01*
X163162Y72734D01*
X162826Y72529D01*
X162527Y72273D01*
X162271Y71974D01*
X162066Y71638D01*
X161915Y71275D01*
X161823Y70892D01*
X161792Y70500D01*
X161823Y70108D01*
X161881Y69867D01*
X161646Y69573D01*
X160330Y69565D01*
X160292Y69607D01*
X160308Y69800D01*
X160277Y70192D01*
X160185Y70575D01*
X160034Y70939D01*
X159829Y71274D01*
X159573Y71573D01*
X159274Y71829D01*
X158939Y72034D01*
X158575Y72185D01*
X158192Y72277D01*
X157800Y72308D01*
X157408Y72277D01*
X157340Y72260D01*
X156449Y72738D01*
X156100Y73073D01*
X156070Y73129D01*
Y74372D01*
X156200Y74492D01*
X156592Y74523D01*
X156975Y74615D01*
X157338Y74766D01*
X157674Y74971D01*
X157973Y75227D01*
X158229Y75526D01*
X158434Y75862D01*
X158585Y76225D01*
X158677Y76608D01*
X158708Y77000D01*
X158677Y77392D01*
X158585Y77775D01*
X158434Y78138D01*
X158229Y78474D01*
X157973Y78773D01*
X157674Y79029D01*
X157338Y79234D01*
X156975Y79385D01*
X156592Y79477D01*
X156200Y79508D01*
X155808Y79477D01*
X155425Y79385D01*
X155062Y79234D01*
X154726Y79029D01*
X154427Y78773D01*
X154171Y78474D01*
X153966Y78138D01*
X153815Y77775D01*
X153723Y77392D01*
X153692Y77000D01*
X153723Y76608D01*
X153815Y76225D01*
X153839Y76168D01*
X153819Y76121D01*
X153780Y75825D01*
Y68609D01*
X153819Y68313D01*
X153853Y68232D01*
X153934Y68037D01*
X154115Y67800D01*
X158499Y63416D01*
Y47951D01*
X158538Y47655D01*
X158585Y47541D01*
X158652Y47379D01*
X158834Y47142D01*
X162262Y43715D01*
X161735Y42445D01*
X154888D01*
X154724Y42530D01*
X154502Y42761D01*
X153911Y43715D01*
X153920Y43800D01*
X153881Y44194D01*
X153766Y44573D01*
X153579Y44922D01*
X153328Y45228D01*
X153197Y45336D01*
X153192Y45342D01*
X153166Y45362D01*
X153144Y45386D01*
X153106Y45418D01*
X153103Y45422D01*
X153098Y45428D01*
X153091Y45440D01*
X153082Y45461D01*
X153071Y45492D01*
X153060Y45535D01*
X153051Y45591D01*
X153045Y45655D01*
Y46945D01*
X153051Y47009D01*
X153060Y47065D01*
X153071Y47108D01*
X153082Y47139D01*
X153091Y47160D01*
X153098Y47172D01*
X153103Y47178D01*
X153106Y47182D01*
X153144Y47214D01*
X153166Y47238D01*
X153192Y47258D01*
X153197Y47264D01*
X153328Y47372D01*
X153579Y47678D01*
X153766Y48027D01*
X153881Y48406D01*
X153920Y48800D01*
X153881Y49194D01*
X153766Y49573D01*
X153579Y49922D01*
X153328Y50228D01*
X153022Y50479D01*
X152673Y50666D01*
X152294Y50781D01*
X151900Y50820D01*
X151506Y50781D01*
X151127Y50666D01*
X151089Y50645D01*
X150874Y50829D01*
X150539Y51034D01*
X150175Y51185D01*
X149792Y51277D01*
X149400Y51308D01*
X149008Y51277D01*
X148625Y51185D01*
X148261Y51034D01*
X147926Y50829D01*
X147711Y50645D01*
X147673Y50666D01*
X147294Y50781D01*
X146900Y50820D01*
X146506Y50781D01*
X146127Y50666D01*
X145778Y50479D01*
X145472Y50228D01*
X145221Y49922D01*
X145034Y49573D01*
X144919Y49194D01*
X144880Y48800D01*
X144919Y48406D01*
X145034Y48027D01*
X145221Y47678D01*
X145472Y47372D01*
X145778Y47121D01*
X146057Y46972D01*
X146127Y46673D01*
Y45927D01*
X146057Y45628D01*
X145778Y45479D01*
X145472Y45228D01*
X145221Y44922D01*
X145072Y44643D01*
X144773Y44573D01*
X144027D01*
X143728Y44643D01*
X143579Y44922D01*
X143328Y45228D01*
X143022Y45479D01*
X142673Y45666D01*
X142294Y45781D01*
X141900Y45820D01*
X141506Y45781D01*
X141127Y45666D01*
X140778Y45479D01*
X140472Y45228D01*
X140221Y44922D01*
X140072Y44643D01*
X139773Y44573D01*
X139027D01*
X138728Y44643D01*
X138579Y44922D01*
X138328Y45228D01*
X138022Y45479D01*
X137673Y45666D01*
X137294Y45781D01*
X136900Y45820D01*
X136506Y45781D01*
X136127Y45666D01*
X135778Y45479D01*
X135472Y45228D01*
X135221Y44922D01*
X135072Y44643D01*
X134773Y44573D01*
X134027D01*
X133728Y44643D01*
X133579Y44922D01*
X133328Y45228D01*
X133022Y45479D01*
X132673Y45666D01*
X132294Y45781D01*
X131900Y45820D01*
X131506Y45781D01*
X131127Y45666D01*
X130778Y45479D01*
X130472Y45228D01*
X130221Y44922D01*
X130034Y44573D01*
X129919Y44194D01*
X129880Y43800D01*
X129889Y43715D01*
X129298Y42761D01*
X129076Y42530D01*
X128912Y42445D01*
X117974D01*
X110809Y49609D01*
X110572Y49791D01*
X110411Y49858D01*
X110296Y49906D01*
X110000Y49945D01*
X103755D01*
X103691Y49951D01*
X103635Y49960D01*
X103592Y49971D01*
X103561Y49981D01*
X103540Y49991D01*
X103528Y49998D01*
X103522Y50003D01*
X103518Y50006D01*
X103486Y50044D01*
X103462Y50066D01*
X103442Y50092D01*
X103436Y50097D01*
X103328Y50228D01*
X103022Y50479D01*
X102743Y50628D01*
X102673Y50927D01*
Y51673D01*
X102743Y51972D01*
X103022Y52121D01*
X103328Y52372D01*
X103436Y52503D01*
X103442Y52508D01*
X103462Y52534D01*
X103486Y52556D01*
X103518Y52594D01*
X103522Y52597D01*
X103528Y52602D01*
X103540Y52609D01*
X103560Y52618D01*
X103592Y52629D01*
X103635Y52640D01*
X103691Y52649D01*
X103755Y52655D01*
X105800D01*
X106096Y52694D01*
X106211Y52742D01*
X106372Y52809D01*
X106609Y52990D01*
X114209Y60591D01*
X114391Y60828D01*
X114449Y60966D01*
X114506Y61104D01*
X114545Y61400D01*
Y62636D01*
X114545Y62640D01*
X114553Y62686D01*
X114565Y62732D01*
X114874Y62921D01*
X115173Y63177D01*
X115429Y63476D01*
X115634Y63811D01*
X115785Y64175D01*
X115877Y64558D01*
X115908Y64950D01*
X115877Y65342D01*
X115785Y65725D01*
X115634Y66089D01*
X115429Y66424D01*
X115173Y66723D01*
X114874Y66979D01*
X114565Y67168D01*
X114553Y67214D01*
X114545Y67260D01*
X114545Y67264D01*
Y69500D01*
X114506Y69796D01*
X114458Y69911D01*
X114391Y70072D01*
X114209Y70310D01*
X109909Y74609D01*
X109672Y74791D01*
X109511Y74858D01*
X109396Y74906D01*
X109100Y74945D01*
X103755D01*
X103691Y74951D01*
X103635Y74960D01*
X103592Y74971D01*
X103561Y74981D01*
X103540Y74991D01*
X103528Y74998D01*
X103522Y75003D01*
X103518Y75006D01*
X103486Y75044D01*
X103462Y75066D01*
X103442Y75092D01*
X103436Y75097D01*
X103328Y75228D01*
X103022Y75479D01*
X102743Y75628D01*
X102673Y75927D01*
Y76673D01*
X102743Y76972D01*
X103022Y77121D01*
X103328Y77372D01*
X103579Y77678D01*
X103766Y78027D01*
X103881Y78406D01*
X103920Y78800D01*
X103903Y78969D01*
X103904Y78977D01*
X103900Y79009D01*
X103901Y79042D01*
X103897Y79091D01*
X103897Y79096D01*
X103898Y79104D01*
X103902Y79118D01*
X103910Y79139D01*
X103924Y79169D01*
X103947Y79207D01*
X103980Y79253D01*
X104021Y79302D01*
X104810Y80091D01*
X104991Y80328D01*
X105058Y80489D01*
X105106Y80604D01*
X105136Y80834D01*
X105257Y81020D01*
X105298Y81064D01*
X106258Y81803D01*
X106400Y81792D01*
X106792Y81823D01*
X107175Y81915D01*
X107538Y82066D01*
X107874Y82271D01*
X108173Y82527D01*
X108429Y82826D01*
X108634Y83161D01*
X108785Y83525D01*
X108877Y83908D01*
X108908Y84300D01*
X108877Y84692D01*
X108785Y85075D01*
X108634Y85438D01*
X108429Y85774D01*
X108173Y86073D01*
X107874Y86329D01*
X107538Y86534D01*
X107175Y86685D01*
X106792Y86777D01*
X106400Y86808D01*
X106008Y86777D01*
X105625Y86685D01*
X105261Y86534D01*
X104926Y86329D01*
X104627Y86073D01*
X104449Y85865D01*
X104240Y85742D01*
X103830Y85654D01*
X103480Y85925D01*
X103372Y86207D01*
X103338Y87114D01*
X103436Y87503D01*
X103579Y87678D01*
X103766Y88027D01*
X103881Y88406D01*
X103920Y88800D01*
X103881Y89194D01*
X103766Y89573D01*
X103579Y89922D01*
X103328Y90228D01*
X103022Y90479D01*
X102743Y90628D01*
X102673Y90927D01*
Y91673D01*
X102743Y91972D01*
X103022Y92121D01*
X103328Y92372D01*
X103579Y92678D01*
X103728Y92957D01*
X104027Y93027D01*
X104773D01*
X105072Y92957D01*
X105221Y92678D01*
X105472Y92372D01*
X105778Y92121D01*
X106127Y91934D01*
X106506Y91819D01*
X106900Y91780D01*
X107294Y91819D01*
X107673Y91934D01*
X108022Y92121D01*
X108328Y92372D01*
X108579Y92677D01*
X108579Y92678D01*
X108579Y92678D01*
X108766Y93027D01*
X108766Y93027D01*
X108881Y93406D01*
X108920Y93800D01*
X108920Y93800D01*
Y93800D01*
X109215Y94421D01*
X109639Y94966D01*
Y94966D01*
X109639Y94966D01*
X109974Y95171D01*
X110273Y95427D01*
X110273Y95427D01*
X110529Y95726D01*
X110529Y95726D01*
X110532Y95731D01*
X110734Y96061D01*
X110885Y96425D01*
X110977Y96808D01*
X111008Y97200D01*
X110977Y97592D01*
X110885Y97975D01*
X110734Y98338D01*
X110529Y98674D01*
X110273Y98973D01*
X110242Y99000D01*
X110503Y100022D01*
X110668Y100270D01*
X113967D01*
X114212Y100110D01*
D02*
G37*
G36*
X120949Y90059D02*
X120972Y90035D01*
X121004Y90014D01*
X121045Y89995D01*
X121094Y89979D01*
X121152Y89967D01*
X121218Y89957D01*
X121293Y89950D01*
X121469Y89944D01*
Y89194D01*
X121377Y89193D01*
X121218Y89181D01*
X121152Y89171D01*
X121094Y89159D01*
X121045Y89143D01*
X121004Y89125D01*
X120972Y89103D01*
X120949Y89079D01*
X120934Y89052D01*
Y90086D01*
X120949Y90059D01*
D02*
G37*
G36*
X148135Y91292D02*
X147940Y91440D01*
X147965Y91465D01*
X148135Y91292D01*
D02*
G37*
G36*
X204335Y108457D02*
X204965Y108363D01*
X205583Y108209D01*
X206182Y107994D01*
X206758Y107722D01*
X207304Y107395D01*
X207815Y107015D01*
X208287Y106588D01*
X208715Y106116D01*
X209094Y105604D01*
X209421Y105058D01*
X209694Y104483D01*
X209908Y103883D01*
X210063Y103266D01*
X210156Y102636D01*
X210186Y102035D01*
X210182Y102000D01*
Y8000D01*
X210186Y7965D01*
X210156Y7364D01*
X210063Y6734D01*
X209908Y6117D01*
X209694Y5517D01*
X209421Y4942D01*
X209094Y4396D01*
X208715Y3884D01*
X208287Y3412D01*
X207815Y2985D01*
X207304Y2606D01*
X206758Y2278D01*
X206182Y2006D01*
X205583Y1792D01*
X204965Y1637D01*
X204335Y1543D01*
X203734Y1514D01*
X203700Y1517D01*
X188840D01*
X188653Y1696D01*
X188604Y2472D01*
X189465Y3202D01*
X189651Y3320D01*
X190000Y3292D01*
X190392Y3323D01*
X190775Y3415D01*
X191138Y3566D01*
X191474Y3771D01*
X191773Y4027D01*
X192029Y4326D01*
X192234Y4661D01*
X192385Y5025D01*
X192477Y5408D01*
X192508Y5800D01*
X192477Y6192D01*
X192385Y6575D01*
X192234Y6938D01*
X192029Y7274D01*
X191773Y7573D01*
X191474Y7829D01*
X191138Y8034D01*
X190775Y8185D01*
X190392Y8277D01*
X190000Y8308D01*
X189608Y8277D01*
X189231Y8186D01*
X189225Y8185D01*
X189225Y8185D01*
X188862Y8034D01*
X188861Y8034D01*
X188526Y7829D01*
X188227Y7573D01*
X188227Y7573D01*
Y7573D01*
X187020Y7358D01*
X186930Y7370D01*
X183970D01*
X183675Y7331D01*
X183416Y7224D01*
X183400Y7217D01*
X183399Y7217D01*
X182887Y7036D01*
X182600D01*
X182313D01*
X181801Y7217D01*
X181800Y7217D01*
X181784Y7224D01*
X181525Y7331D01*
X181230Y7370D01*
X180322D01*
X180245Y8590D01*
X180252Y8636D01*
X180265Y8682D01*
X180574Y8871D01*
X180873Y9127D01*
X181129Y9426D01*
X181334Y9761D01*
X181485Y10125D01*
X181577Y10508D01*
X181608Y10900D01*
X181577Y11292D01*
X181485Y11675D01*
X181334Y12039D01*
X181129Y12374D01*
X180873Y12673D01*
X180574Y12929D01*
X180238Y13134D01*
X179875Y13285D01*
X179492Y13377D01*
X178920Y13800D01*
X178881Y14194D01*
X178766Y14573D01*
X178579Y14922D01*
X178328Y15228D01*
X178022Y15479D01*
X177743Y15628D01*
X177673Y15927D01*
Y16673D01*
X177743Y16972D01*
X178022Y17121D01*
X178328Y17372D01*
X178579Y17678D01*
X178728Y17957D01*
X179027Y18027D01*
X179773D01*
X180072Y17957D01*
X180221Y17678D01*
X180472Y17372D01*
X180778Y17121D01*
X181127Y16934D01*
X181506Y16819D01*
X181900Y16780D01*
X182294Y16819D01*
X182673Y16934D01*
X183022Y17121D01*
X183328Y17372D01*
X183579Y17677D01*
X183579Y17678D01*
X183579Y17678D01*
X183766Y18027D01*
X183766Y18027D01*
X183881Y18406D01*
X183920Y18800D01*
X183920Y18800D01*
Y18800D01*
X184247Y19927D01*
X184639Y20216D01*
X184974Y20421D01*
X185273Y20677D01*
X185529Y20976D01*
X185734Y21312D01*
X185885Y21675D01*
X185977Y22058D01*
X186008Y22450D01*
X185977Y22842D01*
X185885Y23225D01*
X185734Y23589D01*
X185529Y23924D01*
X185273Y24223D01*
X184974Y24479D01*
X184639Y24684D01*
X184275Y24835D01*
X183892Y24927D01*
X183554Y24953D01*
X183328Y25228D01*
X183022Y25479D01*
X182743Y25628D01*
X182673Y25927D01*
Y26673D01*
X182743Y26972D01*
X183022Y27121D01*
X183328Y27372D01*
X183579Y27678D01*
X183766Y28027D01*
X183881Y28406D01*
X183920Y28800D01*
X183881Y29194D01*
X183766Y29573D01*
X183579Y29922D01*
X183328Y30228D01*
X183022Y30479D01*
X182743Y30628D01*
X182673Y30927D01*
Y31673D01*
X182743Y31972D01*
X183022Y32121D01*
X183328Y32372D01*
X183579Y32678D01*
X183766Y33027D01*
X183838Y33264D01*
X184008Y33223D01*
X184400Y33192D01*
X184792Y33223D01*
X185175Y33315D01*
X185539Y33466D01*
X185874Y33671D01*
X186173Y33927D01*
X186224Y33986D01*
X186968Y34075D01*
X187700Y33870D01*
X187760Y33773D01*
X188042Y33442D01*
X188372Y33160D01*
X188443Y33117D01*
X188585Y32523D01*
Y32277D01*
X188443Y31683D01*
X188372Y31640D01*
X188042Y31358D01*
X187760Y31027D01*
X187533Y30657D01*
X187367Y30255D01*
X187265Y29833D01*
X187231Y29400D01*
X187265Y28967D01*
X187367Y28544D01*
X187533Y28143D01*
X187760Y27773D01*
X188042Y27442D01*
X188372Y27160D01*
X188443Y27117D01*
X188585Y26523D01*
Y26277D01*
X188443Y25683D01*
X188372Y25640D01*
X188042Y25358D01*
X187760Y25027D01*
X187533Y24657D01*
X187367Y24255D01*
X187265Y23833D01*
X187231Y23400D01*
X187265Y22967D01*
X187367Y22545D01*
X187533Y22143D01*
X187760Y21773D01*
X188042Y21442D01*
X188372Y21160D01*
X188443Y21117D01*
X188585Y20523D01*
Y20277D01*
X188443Y19683D01*
X188372Y19640D01*
X188042Y19358D01*
X187760Y19027D01*
X187533Y18657D01*
X187367Y18255D01*
X187265Y17833D01*
X187231Y17400D01*
X187265Y16967D01*
X187367Y16545D01*
X187533Y16143D01*
X187760Y15773D01*
X188042Y15442D01*
X188372Y15160D01*
X188743Y14933D01*
X189144Y14767D01*
X189567Y14666D01*
X190000Y14632D01*
X192000D01*
X192433Y14666D01*
X192855Y14767D01*
X193257Y14933D01*
X193627Y15160D01*
X193957Y15442D01*
X194240Y15773D01*
X194466Y16143D01*
X194617Y16505D01*
X197350D01*
X197646Y16544D01*
X197761Y16592D01*
X197922Y16659D01*
X198160Y16841D01*
X204109Y22791D01*
X204291Y23028D01*
X204358Y23189D01*
X204406Y23304D01*
X204445Y23600D01*
Y54012D01*
X206129Y55696D01*
X206311Y55933D01*
X206369Y56072D01*
X206426Y56210D01*
X206465Y56506D01*
Y70180D01*
X206426Y70476D01*
X206345Y70672D01*
X206311Y70753D01*
X206129Y70989D01*
X195124Y81994D01*
X194887Y82176D01*
X194692Y82257D01*
X194611Y82291D01*
X194315Y82330D01*
X193762D01*
X193612Y83600D01*
X193675Y83615D01*
X194039Y83766D01*
X194374Y83971D01*
X194673Y84227D01*
X194929Y84526D01*
X195134Y84861D01*
X195285Y85225D01*
X195377Y85608D01*
X195408Y86000D01*
X195377Y86392D01*
X195285Y86775D01*
X195134Y87139D01*
X194929Y87474D01*
X194673Y87773D01*
X194374Y88029D01*
X194039Y88234D01*
X193675Y88385D01*
X193292Y88477D01*
X192900Y88508D01*
X192508Y88477D01*
X192125Y88385D01*
X191761Y88234D01*
X191426Y88029D01*
X191127Y87773D01*
X190871Y87474D01*
X190814Y87381D01*
X190773Y87368D01*
X190709Y87353D01*
X190657Y87345D01*
X184841D01*
X184605Y87495D01*
X184102Y88127D01*
X183902Y88615D01*
X183920Y88800D01*
X183881Y89194D01*
X183766Y89573D01*
X183579Y89922D01*
X183328Y90228D01*
X183022Y90479D01*
X182743Y90628D01*
X182673Y90927D01*
Y91673D01*
X182743Y91972D01*
X183022Y92121D01*
X183328Y92372D01*
X183579Y92678D01*
X183766Y93027D01*
X183881Y93406D01*
X183920Y93800D01*
X183881Y94194D01*
X183766Y94573D01*
X183579Y94922D01*
X183328Y95228D01*
X183022Y95479D01*
X182743Y95628D01*
X182673Y95927D01*
Y96673D01*
X182743Y96972D01*
X183022Y97121D01*
X183328Y97372D01*
X183579Y97678D01*
X183766Y98027D01*
X183881Y98406D01*
X183920Y98800D01*
X183881Y99194D01*
X183766Y99573D01*
X183579Y99922D01*
X183328Y100228D01*
X183022Y100479D01*
X182743Y100628D01*
X182673Y100927D01*
Y101673D01*
X182743Y101972D01*
X183022Y102121D01*
X183328Y102372D01*
X183579Y102678D01*
X183766Y103027D01*
X183881Y103406D01*
X183920Y103800D01*
X183881Y104194D01*
X183766Y104573D01*
X183579Y104922D01*
X183363Y105185D01*
X183386Y105369D01*
X183835Y106455D01*
X186726D01*
X193355Y99826D01*
Y92700D01*
X193394Y92404D01*
X193442Y92289D01*
X193509Y92128D01*
X193690Y91890D01*
X198358Y87223D01*
X198390Y87180D01*
X198424Y87124D01*
X198445Y87083D01*
X198423Y86992D01*
X198392Y86600D01*
X198423Y86208D01*
X198515Y85825D01*
X198666Y85462D01*
X198871Y85126D01*
X199127Y84827D01*
X199426Y84571D01*
X199762Y84366D01*
X200125Y84215D01*
X200508Y84123D01*
X200900Y84092D01*
X201292Y84123D01*
X201675Y84215D01*
X202038Y84366D01*
X202374Y84571D01*
X202673Y84827D01*
X202929Y85126D01*
X203134Y85462D01*
X203285Y85825D01*
X203377Y86208D01*
X203408Y86600D01*
X203377Y86992D01*
X203285Y87375D01*
X203134Y87739D01*
X202929Y88074D01*
X202673Y88373D01*
X202374Y88629D01*
X202038Y88834D01*
X201675Y88985D01*
X201292Y89077D01*
X200900Y89108D01*
X200508Y89077D01*
X200125Y88985D01*
X199925Y88902D01*
X199899Y88921D01*
X199894Y88925D01*
X195645Y93174D01*
Y100300D01*
X195606Y100596D01*
X195572Y100677D01*
X195491Y100872D01*
X195310Y101110D01*
X189206Y107213D01*
X189732Y108483D01*
X203700D01*
X203734Y108486D01*
X204335Y108457D01*
D02*
G37*
G36*
X168787Y79372D02*
X168571Y79110D01*
X168483Y78981D01*
X168409Y78853D01*
X168348Y78725D01*
X168301Y78598D01*
X168267Y78472D01*
X168247Y78347D01*
X168240Y78223D01*
X167490D01*
X167484Y78347D01*
X167463Y78472D01*
X167430Y78598D01*
X167382Y78725D01*
X167321Y78853D01*
X167247Y78981D01*
X167160Y79110D01*
X167058Y79241D01*
X166943Y79372D01*
X166815Y79504D01*
X168915D01*
X168787Y79372D01*
D02*
G37*
G36*
X103539Y79908D02*
X103450Y79815D01*
X103373Y79721D01*
X103306Y79628D01*
X103250Y79535D01*
X103205Y79442D01*
X103170Y79349D01*
X103146Y79255D01*
X103132Y79163D01*
X103130Y79070D01*
X103137Y78977D01*
X102077Y80037D01*
X102170Y80029D01*
X102262Y80032D01*
X102355Y80046D01*
X102449Y80070D01*
X102542Y80105D01*
X102635Y80150D01*
X102728Y80206D01*
X102822Y80273D01*
X102915Y80351D01*
X103008Y80439D01*
X103539Y79908D01*
D02*
G37*
G36*
X182971Y79461D02*
X183034Y79401D01*
X183106Y79348D01*
X183186Y79302D01*
X183274Y79263D01*
X183371Y79232D01*
X183476Y79207D01*
X183590Y79189D01*
X183712Y79179D01*
X183842Y79175D01*
Y78425D01*
X183712Y78422D01*
X183590Y78411D01*
X183476Y78393D01*
X183371Y78368D01*
X183274Y78337D01*
X183186Y78298D01*
X183106Y78252D01*
X183034Y78199D01*
X182971Y78138D01*
X182916Y78071D01*
Y79529D01*
X182971Y79461D01*
D02*
G37*
G36*
X87403Y79722D02*
X87664Y79506D01*
X87794Y79418D01*
X87922Y79344D01*
X88050Y79283D01*
X88177Y79236D01*
X88303Y79202D01*
X88428Y79182D01*
X88552Y79175D01*
Y78425D01*
X88428Y78418D01*
X88303Y78398D01*
X88177Y78364D01*
X88050Y78317D01*
X87922Y78256D01*
X87794Y78182D01*
X87664Y78094D01*
X87534Y77993D01*
X87403Y77878D01*
X87271Y77750D01*
Y79850D01*
X87403Y79722D01*
D02*
G37*
G36*
X90900Y78050D02*
X90840Y78121D01*
X90772Y78185D01*
X90697Y78241D01*
X90614Y78290D01*
X90524Y78331D01*
X90426Y78365D01*
X90320Y78391D01*
X90207Y78410D01*
X90086Y78421D01*
X89958Y78425D01*
Y79175D01*
X90086Y79179D01*
X90207Y79190D01*
X90320Y79209D01*
X90426Y79235D01*
X90524Y79269D01*
X90614Y79310D01*
X90697Y79359D01*
X90772Y79415D01*
X90840Y79479D01*
X90900Y79550D01*
Y78050D01*
D02*
G37*
G36*
X178539Y79908D02*
X178451Y79815D01*
X178373Y79721D01*
X178306Y79628D01*
X178250Y79535D01*
X178205Y79442D01*
X178170Y79349D01*
X178146Y79255D01*
X178132Y79163D01*
X178130Y79070D01*
X178137Y78977D01*
X177077Y80037D01*
X177170Y80029D01*
X177262Y80032D01*
X177355Y80046D01*
X177449Y80070D01*
X177542Y80105D01*
X177635Y80150D01*
X177728Y80206D01*
X177822Y80273D01*
X177915Y80351D01*
X178008Y80439D01*
X178539Y79908D01*
D02*
G37*
G36*
X101723Y82563D02*
X101630Y82570D01*
X101538Y82568D01*
X101445Y82554D01*
X101351Y82530D01*
X101258Y82495D01*
X101165Y82450D01*
X101072Y82394D01*
X100978Y82327D01*
X100885Y82249D01*
X100792Y82161D01*
X100261Y82692D01*
X100350Y82785D01*
X100427Y82879D01*
X100494Y82972D01*
X100550Y83065D01*
X100595Y83158D01*
X100630Y83251D01*
X100654Y83344D01*
X100668Y83438D01*
X100670Y83530D01*
X100663Y83623D01*
X101723Y82563D01*
D02*
G37*
G36*
X90900Y83050D02*
X90840Y83121D01*
X90772Y83185D01*
X90697Y83241D01*
X90614Y83290D01*
X90524Y83331D01*
X90426Y83365D01*
X90320Y83391D01*
X90207Y83410D01*
X90086Y83421D01*
X89958Y83425D01*
Y84175D01*
X90086Y84179D01*
X90207Y84190D01*
X90320Y84209D01*
X90426Y84235D01*
X90524Y84269D01*
X90614Y84310D01*
X90697Y84359D01*
X90772Y84415D01*
X90840Y84479D01*
X90900Y84550D01*
Y83050D01*
D02*
G37*
G36*
X96723Y82563D02*
X96630Y82570D01*
X96538Y82568D01*
X96445Y82554D01*
X96351Y82530D01*
X96258Y82495D01*
X96165Y82450D01*
X96072Y82394D01*
X95978Y82327D01*
X95885Y82249D01*
X95792Y82161D01*
X95261Y82692D01*
X95350Y82785D01*
X95427Y82879D01*
X95494Y82972D01*
X95550Y83065D01*
X95595Y83158D01*
X95630Y83251D01*
X95654Y83344D01*
X95668Y83438D01*
X95670Y83530D01*
X95662Y83623D01*
X96723Y82563D01*
D02*
G37*
G36*
X84104Y87506D02*
X84023Y87472D01*
X83828Y87391D01*
X83590Y87210D01*
X82626Y86245D01*
X63100D01*
X62804Y86206D01*
X62741Y86180D01*
X62528Y86091D01*
X62291Y85910D01*
X40226Y63845D01*
X-16526D01*
X-20491Y67810D01*
X-20728Y67992D01*
X-20923Y68072D01*
X-21004Y68106D01*
X-21220Y68134D01*
Y74153D01*
X-24531Y74030D01*
Y81969D01*
X-24471Y81928D01*
X-24294Y81890D01*
X-23997Y81857D01*
X-23048Y81805D01*
X-21220Y81782D01*
Y88461D01*
X-20926Y88755D01*
X83921D01*
X84104Y87506D01*
D02*
G37*
G36*
X106385Y82800D02*
X106201Y82797D01*
X105864Y82766D01*
X105710Y82736D01*
X105567Y82698D01*
X105433Y82650D01*
X105310Y82594D01*
X105197Y82529D01*
X105094Y82455D01*
X105002Y82372D01*
X104471Y82902D01*
X104555Y82994D01*
X104629Y83097D01*
X104694Y83210D01*
X104750Y83333D01*
X104798Y83467D01*
X104836Y83610D01*
X104866Y83764D01*
X104886Y83927D01*
X104897Y84101D01*
X104900Y84285D01*
X106385Y82800D01*
D02*
G37*
G36*
X91070Y92865D02*
X90997Y92924D01*
X90918Y92977D01*
X90833Y93023D01*
X90742Y93063D01*
X90645Y93097D01*
X90542Y93125D01*
X90432Y93147D01*
X90317Y93163D01*
X90195Y93172D01*
X90068Y93175D01*
X89906Y93925D01*
X90035Y93929D01*
X90155Y93941D01*
X90265Y93962D01*
X90366Y93991D01*
X90457Y94028D01*
X90539Y94073D01*
X90611Y94126D01*
X90674Y94187D01*
X90727Y94257D01*
X90770Y94335D01*
X91070Y92865D01*
D02*
G37*
G36*
X172165Y98535D02*
X172107Y98475D01*
X171977Y98322D01*
X171947Y98279D01*
X171926Y98241D01*
X171911Y98206D01*
X171904Y98176D01*
X171904Y98150D01*
X171911Y98129D01*
X171202Y98774D01*
X171224Y98769D01*
X171251Y98772D01*
X171282Y98782D01*
X171318Y98800D01*
X171359Y98825D01*
X171405Y98858D01*
X171511Y98947D01*
X171635Y99065D01*
X172165Y98535D01*
D02*
G37*
G36*
X86903Y100501D02*
X86934Y100164D01*
X86964Y100010D01*
X87002Y99867D01*
X87050Y99733D01*
X87106Y99610D01*
X87171Y99497D01*
X87245Y99395D01*
X87329Y99302D01*
X86798Y98771D01*
X86706Y98855D01*
X86603Y98929D01*
X86490Y98994D01*
X86367Y99050D01*
X86233Y99098D01*
X86090Y99136D01*
X85936Y99165D01*
X85773Y99186D01*
X85599Y99198D01*
X85415Y99200D01*
X86900Y100685D01*
X86903Y100501D01*
D02*
G37*
G36*
X90900Y98050D02*
X90840Y98121D01*
X90772Y98185D01*
X90697Y98241D01*
X90614Y98290D01*
X90524Y98331D01*
X90426Y98365D01*
X90320Y98391D01*
X90207Y98410D01*
X90086Y98421D01*
X89958Y98425D01*
Y99175D01*
X90086Y99179D01*
X90207Y99190D01*
X90320Y99209D01*
X90426Y99235D01*
X90524Y99269D01*
X90614Y99310D01*
X90697Y99359D01*
X90772Y99415D01*
X90840Y99479D01*
X90900Y99550D01*
Y98050D01*
D02*
G37*
G36*
X170082Y99567D02*
X170104Y99441D01*
X170140Y99328D01*
X170191Y99228D01*
X170256Y99139D01*
X170335Y99064D01*
X170429Y99001D01*
X170537Y98950D01*
X170660Y98912D01*
X170797Y98887D01*
X169144Y97759D01*
X169178Y97905D01*
X169296Y98591D01*
X169309Y98720D01*
X169325Y99090D01*
X170075Y99705D01*
X170082Y99567D01*
D02*
G37*
G36*
X117247Y98987D02*
X117403Y98861D01*
X117477Y98813D01*
X117548Y98775D01*
X117617Y98747D01*
X117683Y98729D01*
X117746Y98721D01*
X117807Y98723D01*
X117865Y98736D01*
X116912Y97868D01*
X116929Y97925D01*
X116937Y97983D01*
X116934Y98044D01*
X116922Y98108D01*
X116899Y98173D01*
X116866Y98241D01*
X116824Y98311D01*
X116771Y98383D01*
X116708Y98458D01*
X116635Y98535D01*
X117165Y99065D01*
X117247Y98987D01*
D02*
G37*
G36*
X-24555Y100501D02*
X-24539Y100475D01*
X-24511Y100451D01*
X-24471Y100431D01*
X-24421Y100414D01*
X-24359Y100400D01*
X-24286Y100389D01*
X-24202Y100381D01*
X-24000Y100375D01*
Y99625D01*
X-24107Y99623D01*
X-24286Y99611D01*
X-24359Y99600D01*
X-24421Y99586D01*
X-24471Y99569D01*
X-24511Y99548D01*
X-24539Y99525D01*
X-24555Y99499D01*
X-24561Y99469D01*
Y100531D01*
X-24555Y100501D01*
D02*
G37*
G36*
X142165Y103535D02*
X141903Y103244D01*
X141344Y103802D01*
X141350Y103803D01*
X141361Y103810D01*
X141378Y103822D01*
X141399Y103840D01*
X141536Y103967D01*
X141635Y104065D01*
X142165Y103535D01*
D02*
G37*
G36*
X107279Y105614D02*
X107290Y105493D01*
X107309Y105380D01*
X107322Y105329D01*
X107950D01*
X107822Y105197D01*
X107606Y104936D01*
X107565Y104875D01*
X107579Y104860D01*
X107650Y104800D01*
X107514D01*
X107444Y104678D01*
X107383Y104550D01*
X107336Y104423D01*
X107302Y104297D01*
X107282Y104172D01*
X107275Y104048D01*
X106525D01*
X106518Y104172D01*
X106498Y104297D01*
X106464Y104423D01*
X106417Y104550D01*
X106356Y104678D01*
X106286Y104800D01*
X106150D01*
X106221Y104860D01*
X106235Y104875D01*
X106194Y104936D01*
X106093Y105066D01*
X105978Y105197D01*
X105850Y105329D01*
X106479D01*
X106491Y105380D01*
X106510Y105493D01*
X106521Y105614D01*
X106525Y105742D01*
X107275D01*
X107279Y105614D01*
D02*
G37*
G36*
X137165Y103535D02*
X136903Y103244D01*
X136344Y103802D01*
X136350Y103803D01*
X136361Y103810D01*
X136378Y103822D01*
X136399Y103840D01*
X136536Y103967D01*
X136635Y104065D01*
X137165Y103535D01*
D02*
G37*
G36*
X104127Y108097D02*
X104531Y107213D01*
X104515Y107175D01*
X104423Y106792D01*
X104392Y106400D01*
X104423Y106008D01*
X104515Y105625D01*
X104666Y105261D01*
X104871Y104926D01*
X105087Y104673D01*
X105034Y104573D01*
X104919Y104194D01*
X104880Y103800D01*
X104882Y103781D01*
X104883Y103773D01*
X104898Y103342D01*
X104691Y102720D01*
X104353Y102416D01*
X104115Y102234D01*
X103490Y101609D01*
X103309Y101372D01*
X103047Y101081D01*
X101900Y100820D01*
X101000Y101624D01*
X100856Y101821D01*
X100877Y101908D01*
X100908Y102300D01*
X100877Y102692D01*
X100785Y103075D01*
X100634Y103439D01*
X100429Y103774D01*
X100173Y104073D01*
X99874Y104329D01*
X99538Y104534D01*
X99175Y104685D01*
X98792Y104777D01*
X98651Y104788D01*
X98579Y104922D01*
X98328Y105228D01*
X98022Y105479D01*
X97673Y105666D01*
X97294Y105781D01*
X96900Y105820D01*
X96506Y105781D01*
X96127Y105666D01*
X95778Y105479D01*
X95472Y105228D01*
X95221Y104922D01*
X95034Y104573D01*
X94919Y104194D01*
X94880Y103800D01*
X94919Y103406D01*
X95034Y103027D01*
X95221Y102678D01*
X95472Y102372D01*
X95778Y102121D01*
X95995Y100862D01*
X95778Y100479D01*
X95472Y100228D01*
X95221Y99922D01*
X95072Y99643D01*
X94773Y99573D01*
X94027D01*
X93728Y99643D01*
X93579Y99922D01*
X93328Y100228D01*
X93022Y100479D01*
X92673Y100666D01*
X92294Y100781D01*
X91900Y100820D01*
X91506Y100781D01*
X91127Y100666D01*
X90778Y100479D01*
X90472Y100228D01*
X90364Y100097D01*
X90358Y100092D01*
X90338Y100066D01*
X90314Y100044D01*
X90282Y100006D01*
X90278Y100003D01*
X90272Y99998D01*
X90260Y99991D01*
X90239Y99982D01*
X90208Y99971D01*
X90165Y99960D01*
X90109Y99951D01*
X90045Y99945D01*
X89096D01*
X88942Y99991D01*
X87908Y100700D01*
X87877Y101092D01*
X87785Y101475D01*
X87634Y101839D01*
X87429Y102174D01*
X87173Y102473D01*
X86874Y102729D01*
X86538Y102934D01*
X86175Y103085D01*
X85792Y103177D01*
X85400Y103208D01*
X85008Y103177D01*
X84625Y103085D01*
X84262Y102934D01*
X83926Y102729D01*
X83627Y102473D01*
X83371Y102174D01*
X83166Y101839D01*
X83015Y101475D01*
X82923Y101092D01*
X82892Y100700D01*
X82923Y100308D01*
X83015Y99925D01*
X83166Y99562D01*
X83371Y99226D01*
X83627Y98927D01*
X83942Y98433D01*
X83986Y97792D01*
X83791Y97313D01*
X83640Y96950D01*
X83548Y96567D01*
X83517Y96175D01*
X83548Y95783D01*
X83640Y95400D01*
X83791Y95036D01*
X83996Y94701D01*
X84252Y94402D01*
X84354Y94315D01*
X84235Y93597D01*
X83918Y93045D01*
X-15426D01*
X-21220Y98839D01*
Y108483D01*
X103755D01*
X104127Y108097D01*
D02*
G37*
G36*
X168130Y103530D02*
X168132Y103438D01*
X168146Y103344D01*
X168170Y103251D01*
X168205Y103158D01*
X168250Y103065D01*
X168306Y102972D01*
X168373Y102879D01*
X168451Y102785D01*
X168539Y102692D01*
X168008Y102161D01*
X167915Y102249D01*
X167822Y102327D01*
X167728Y102394D01*
X167635Y102450D01*
X167542Y102495D01*
X167449Y102530D01*
X167355Y102554D01*
X167262Y102568D01*
X167170Y102570D01*
X167077Y102563D01*
X168137Y103623D01*
X168130Y103530D01*
D02*
G37*
G36*
X171536Y97604D02*
X171488Y97613D01*
X171435Y97612D01*
X171379Y97600D01*
X171318Y97579D01*
X171253Y97547D01*
X171184Y97505D01*
X171110Y97453D01*
X171033Y97390D01*
X170865Y97235D01*
X170335Y97765D01*
X170418Y97851D01*
X170553Y98010D01*
X170605Y98084D01*
X170647Y98153D01*
X170679Y98218D01*
X170700Y98279D01*
X170712Y98335D01*
X170713Y98388D01*
X170704Y98436D01*
X171536Y97604D01*
D02*
G37*
G36*
X153539Y94908D02*
X153450Y94815D01*
X153373Y94721D01*
X153306Y94628D01*
X153250Y94535D01*
X153205Y94442D01*
X153170Y94349D01*
X153146Y94256D01*
X153132Y94163D01*
X153130Y94070D01*
X153130Y94062D01*
X153275Y93917D01*
X153150Y93930D01*
X153029Y93932D01*
X152910Y93923D01*
X152794Y93902D01*
X152682Y93869D01*
X152572Y93825D01*
X152466Y93770D01*
X152362Y93703D01*
X152262Y93625D01*
X152165Y93535D01*
X151635Y94065D01*
X151725Y94162D01*
X151803Y94263D01*
X151870Y94366D01*
X151925Y94472D01*
X151969Y94582D01*
X152002Y94694D01*
X152023Y94810D01*
X152032Y94929D01*
X152030Y95050D01*
X152017Y95175D01*
X152162Y95030D01*
X152170Y95029D01*
X152262Y95032D01*
X152355Y95046D01*
X152449Y95070D01*
X152542Y95105D01*
X152635Y95150D01*
X152728Y95206D01*
X152822Y95273D01*
X152915Y95351D01*
X153008Y95439D01*
X153539Y94908D01*
D02*
G37*
G36*
X87228Y97097D02*
X87489Y96881D01*
X87619Y96793D01*
X87747Y96719D01*
X87875Y96658D01*
X88002Y96611D01*
X88128Y96577D01*
X88253Y96557D01*
X88377Y96550D01*
Y95800D01*
X88253Y95793D01*
X88128Y95773D01*
X88002Y95739D01*
X87875Y95692D01*
X87747Y95631D01*
X87619Y95557D01*
X87489Y95469D01*
X87359Y95368D01*
X87228Y95253D01*
X87096Y95125D01*
Y97225D01*
X87228Y97097D01*
D02*
G37*
G36*
X103539Y94908D02*
X103450Y94815D01*
X103373Y94721D01*
X103306Y94628D01*
X103250Y94535D01*
X103205Y94442D01*
X103170Y94349D01*
X103146Y94256D01*
X103132Y94163D01*
X103130Y94070D01*
X103137Y93977D01*
X102077Y95037D01*
X102170Y95029D01*
X102262Y95032D01*
X102355Y95046D01*
X102449Y95070D01*
X102542Y95105D01*
X102635Y95150D01*
X102728Y95206D01*
X102822Y95273D01*
X102915Y95351D01*
X103008Y95439D01*
X103539Y94908D01*
D02*
G37*
G36*
X146940Y93310D02*
X146907Y93273D01*
X147275Y93100D01*
X147256Y92677D01*
X147450D01*
X147417Y92655D01*
X147387Y92623D01*
X147361Y92580D01*
X147338Y92528D01*
X147319Y92465D01*
X147303Y92392D01*
X147291Y92310D01*
X147282Y92217D01*
X147275Y92000D01*
X147225D01*
X147224Y91980D01*
X147940Y91440D01*
X147435Y90935D01*
X147396Y90968D01*
X147359Y90990D01*
X147323Y91001D01*
X147288Y91001D01*
X147254Y90990D01*
X147221Y90967D01*
X147190Y90933D01*
X147159Y90888D01*
X147130Y90832D01*
X147101Y90765D01*
X146846Y91779D01*
X146643Y92000D01*
X146525D01*
X146523Y92113D01*
X146522Y92133D01*
X146347Y92324D01*
X146013Y92382D01*
X145965Y92335D01*
X145897Y92403D01*
X144911Y92576D01*
X145035Y92655D01*
X145422Y92936D01*
X145691Y93159D01*
X145719Y93185D01*
X145722Y93189D01*
X145743Y93223D01*
X145756Y93251D01*
X145761Y93274D01*
X145758Y93291D01*
X145794Y93255D01*
X146259Y93690D01*
X146940Y93310D01*
D02*
G37*
G36*
X95885Y95351D02*
X95978Y95273D01*
X96072Y95206D01*
X96165Y95150D01*
X96258Y95105D01*
X96351Y95070D01*
X96445Y95046D01*
X96538Y95032D01*
X96630Y95029D01*
X96723Y95037D01*
X95662Y93977D01*
X95670Y94070D01*
X95668Y94163D01*
X95654Y94256D01*
X95630Y94349D01*
X95595Y94442D01*
X95550Y94535D01*
X95494Y94628D01*
X95427Y94721D01*
X95350Y94815D01*
X95261Y94908D01*
X95792Y95439D01*
X95885Y95351D01*
D02*
G37*
G36*
X172104Y97576D02*
X172152Y97450D01*
X172212Y97338D01*
X172283Y97242D01*
X172364Y97161D01*
X172457Y97094D01*
X172561Y97042D01*
X172676Y97005D01*
X172802Y96982D01*
X172938Y96975D01*
X172432Y96225D01*
X172323Y96222D01*
X172083Y96201D01*
X171953Y96183D01*
X171523Y96097D01*
X171203Y96013D01*
X171032Y95964D01*
X172066Y97717D01*
X172104Y97576D01*
D02*
G37*
G36*
X128130Y98530D02*
X128132Y98438D01*
X128146Y98344D01*
X128170Y98251D01*
X128205Y98158D01*
X128250Y98065D01*
X128306Y97972D01*
X128373Y97879D01*
X128450Y97785D01*
X128539Y97692D01*
X128008Y97161D01*
X127915Y97249D01*
X127822Y97327D01*
X127728Y97394D01*
X127635Y97450D01*
X127542Y97495D01*
X127449Y97530D01*
X127355Y97554D01*
X127262Y97568D01*
X127170Y97570D01*
X127077Y97563D01*
X128137Y98623D01*
X128130Y98530D01*
D02*
G37*
G36*
X176723Y97563D02*
X176630Y97570D01*
X176537Y97568D01*
X176444Y97554D01*
X176351Y97530D01*
X176258Y97495D01*
X176165Y97450D01*
X176072Y97394D01*
X175979Y97327D01*
X175885Y97249D01*
X175792Y97161D01*
X175261Y97692D01*
X175350Y97785D01*
X175427Y97879D01*
X175494Y97972D01*
X175550Y98065D01*
X175595Y98158D01*
X175630Y98251D01*
X175654Y98344D01*
X175668Y98438D01*
X175671Y98530D01*
X175663Y98623D01*
X176723Y97563D01*
D02*
G37*
G36*
X123130Y98530D02*
X123132Y98438D01*
X123146Y98344D01*
X123170Y98251D01*
X123205Y98158D01*
X123250Y98065D01*
X123306Y97972D01*
X123373Y97879D01*
X123450Y97785D01*
X123539Y97692D01*
X123008Y97161D01*
X122915Y97249D01*
X122821Y97327D01*
X122728Y97394D01*
X122635Y97450D01*
X122542Y97495D01*
X122449Y97530D01*
X122355Y97554D01*
X122262Y97568D01*
X122170Y97570D01*
X122077Y97563D01*
X123137Y98623D01*
X123130Y98530D01*
D02*
G37*
G36*
X107262Y98975D02*
X107362Y98897D01*
X107466Y98830D01*
X107572Y98775D01*
X107682Y98731D01*
X107794Y98698D01*
X107910Y98677D01*
X108029Y98668D01*
X108151Y98670D01*
X108275Y98683D01*
X108130Y98538D01*
X108130Y98530D01*
X108132Y98438D01*
X108146Y98344D01*
X108170Y98251D01*
X108205Y98158D01*
X108250Y98065D01*
X108306Y97972D01*
X108373Y97879D01*
X108450Y97785D01*
X108539Y97692D01*
X108008Y97161D01*
X107915Y97249D01*
X107822Y97327D01*
X107728Y97394D01*
X107635Y97450D01*
X107542Y97495D01*
X107449Y97530D01*
X107355Y97554D01*
X107262Y97568D01*
X107170Y97570D01*
X107162Y97570D01*
X107017Y97425D01*
X107030Y97549D01*
X107032Y97671D01*
X107023Y97790D01*
X107002Y97906D01*
X106969Y98018D01*
X106925Y98128D01*
X106870Y98234D01*
X106803Y98337D01*
X106725Y98438D01*
X106635Y98535D01*
X107165Y99065D01*
X107262Y98975D01*
D02*
G37*
G36*
X118130Y98530D02*
X118132Y98438D01*
X118146Y98344D01*
X118170Y98251D01*
X118205Y98158D01*
X118250Y98065D01*
X118306Y97972D01*
X118373Y97879D01*
X118450Y97785D01*
X118539Y97692D01*
X118008Y97161D01*
X117915Y97249D01*
X117822Y97327D01*
X117728Y97394D01*
X117635Y97450D01*
X117542Y97495D01*
X117449Y97530D01*
X117355Y97554D01*
X117262Y97568D01*
X117170Y97570D01*
X117077Y97563D01*
X118137Y98623D01*
X118130Y98530D01*
D02*
G37*
G36*
X173130Y73530D02*
X173132Y73438D01*
X173146Y73344D01*
X173170Y73251D01*
X173205Y73158D01*
X173250Y73065D01*
X173306Y72972D01*
X173373Y72878D01*
X173451Y72785D01*
X173539Y72692D01*
X173008Y72161D01*
X172915Y72249D01*
X172821Y72327D01*
X172728Y72394D01*
X172635Y72450D01*
X172542Y72495D01*
X172449Y72530D01*
X172355Y72554D01*
X172262Y72568D01*
X172170Y72571D01*
X172077Y72563D01*
X173137Y73623D01*
X173130Y73530D01*
D02*
G37*
G36*
X178093Y74188D02*
X178107Y74185D01*
X178130Y74183D01*
X178253Y74178D01*
X178541Y74175D01*
Y73425D01*
X178087Y73409D01*
Y74191D01*
X178093Y74188D01*
D02*
G37*
G36*
X182327Y74979D02*
X182394Y74964D01*
X182553Y74941D01*
X182744Y74924D01*
X183225Y74910D01*
X183847Y74160D01*
X183716Y74156D01*
X183598Y74145D01*
X183494Y74126D01*
X183404Y74099D01*
X183327Y74065D01*
X183264Y74024D01*
X183215Y73974D01*
X183179Y73918D01*
X183158Y73853D01*
X183150Y73781D01*
X182268Y74995D01*
X182327Y74979D01*
D02*
G37*
G36*
X92960Y74479D02*
X93028Y74415D01*
X93103Y74359D01*
X93186Y74310D01*
X93276Y74269D01*
X93374Y74235D01*
X93480Y74209D01*
X93593Y74190D01*
X93714Y74179D01*
X93842Y74175D01*
Y73425D01*
X93714Y73421D01*
X93593Y73410D01*
X93480Y73391D01*
X93374Y73365D01*
X93276Y73331D01*
X93186Y73290D01*
X93103Y73241D01*
X93028Y73185D01*
X92960Y73121D01*
X92900Y73050D01*
Y74550D01*
X92960Y74479D01*
D02*
G37*
G36*
X95900Y73050D02*
X95840Y73121D01*
X95772Y73185D01*
X95697Y73241D01*
X95614Y73290D01*
X95524Y73331D01*
X95426Y73365D01*
X95320Y73391D01*
X95207Y73410D01*
X95086Y73421D01*
X94958Y73425D01*
Y74175D01*
X95086Y74179D01*
X95207Y74190D01*
X95320Y74209D01*
X95426Y74235D01*
X95524Y74269D01*
X95614Y74310D01*
X95697Y74359D01*
X95772Y74415D01*
X95840Y74479D01*
X95900Y74550D01*
Y73050D01*
D02*
G37*
G36*
X112255Y69026D02*
Y67264D01*
X112255Y67260D01*
X112247Y67214D01*
X112235Y67168D01*
X111926Y66979D01*
X111627Y66723D01*
X111371Y66424D01*
X111166Y66089D01*
X111015Y65725D01*
X110923Y65342D01*
X110892Y64950D01*
X110923Y64558D01*
X111015Y64175D01*
X111166Y63811D01*
X111371Y63476D01*
X111627Y63177D01*
X111858Y62980D01*
X111942Y62392D01*
X111967Y61586D01*
X105326Y54945D01*
X103755D01*
X103691Y54951D01*
X103635Y54960D01*
X103592Y54971D01*
X103561Y54981D01*
X103540Y54991D01*
X103528Y54998D01*
X103522Y55003D01*
X103518Y55006D01*
X103486Y55044D01*
X103462Y55066D01*
X103442Y55092D01*
X103436Y55097D01*
X103328Y55228D01*
X103022Y55479D01*
X102673Y55666D01*
X102294Y55781D01*
X101900Y55820D01*
X101506Y55781D01*
X101127Y55666D01*
X100778Y55479D01*
X100472Y55228D01*
X100221Y54922D01*
X100034Y54573D01*
X99919Y54194D01*
X99880Y53800D01*
X99919Y53406D01*
X100034Y53027D01*
X100221Y52678D01*
X100472Y52372D01*
X100778Y52121D01*
X101057Y51972D01*
X101127Y51673D01*
Y50927D01*
X101057Y50628D01*
X100778Y50479D01*
X100472Y50228D01*
X100221Y49922D01*
X100034Y49573D01*
X99919Y49194D01*
X99880Y48800D01*
X99919Y48406D01*
X100034Y48027D01*
X100221Y47678D01*
X100472Y47372D01*
X100778Y47121D01*
X101127Y46934D01*
X101506Y46819D01*
X101900Y46780D01*
X102294Y46819D01*
X102673Y46934D01*
X103022Y47121D01*
X103328Y47372D01*
X103436Y47503D01*
X103442Y47508D01*
X103462Y47534D01*
X103486Y47556D01*
X103518Y47594D01*
X103522Y47597D01*
X103528Y47602D01*
X103540Y47609D01*
X103560Y47618D01*
X103592Y47629D01*
X103635Y47640D01*
X103691Y47649D01*
X103755Y47655D01*
X109526D01*
X116691Y40490D01*
X116928Y40309D01*
X117123Y40228D01*
X117204Y40194D01*
X117500Y40155D01*
X172955D01*
X173399Y39237D01*
X173452Y38885D01*
X173271Y38674D01*
X173066Y38338D01*
X172915Y37975D01*
X172823Y37592D01*
X172792Y37200D01*
X172812Y36951D01*
X172680Y36654D01*
X171976Y35895D01*
X171795Y35809D01*
X171506Y35781D01*
X171127Y35666D01*
X170778Y35479D01*
X170472Y35228D01*
X170364Y35097D01*
X170358Y35092D01*
X170338Y35066D01*
X170314Y35044D01*
X170282Y35006D01*
X170278Y35003D01*
X170272Y34998D01*
X170260Y34991D01*
X170239Y34982D01*
X170208Y34971D01*
X170165Y34960D01*
X170109Y34951D01*
X170045Y34945D01*
X165804D01*
X163639Y37109D01*
X163402Y37291D01*
X163207Y37372D01*
X163126Y37406D01*
X162830Y37445D01*
X160114D01*
X160110Y37445D01*
X160064Y37452D01*
X160018Y37465D01*
X159829Y37774D01*
X159573Y38073D01*
X159274Y38329D01*
X158939Y38534D01*
X158575Y38685D01*
X158192Y38777D01*
X157800Y38808D01*
X157408Y38777D01*
X157025Y38685D01*
X156662Y38534D01*
X156326Y38329D01*
X156027Y38073D01*
X155771Y37774D01*
X155566Y37438D01*
X155415Y37075D01*
X155323Y36692D01*
X155292Y36300D01*
X155323Y35908D01*
X155415Y35525D01*
X155566Y35161D01*
X155771Y34826D01*
X156027Y34527D01*
X156326Y34271D01*
X156662Y34066D01*
X157025Y33915D01*
X157408Y33823D01*
X157800Y33792D01*
X158192Y33823D01*
X158575Y33915D01*
X158939Y34066D01*
X159274Y34271D01*
X159573Y34527D01*
X159829Y34826D01*
X160018Y35135D01*
X160064Y35148D01*
X160110Y35155D01*
X160114Y35155D01*
X162356D01*
X164520Y32991D01*
X164757Y32809D01*
X164971Y32720D01*
X165034Y32694D01*
X165330Y32655D01*
X170045D01*
X170109Y32649D01*
X170165Y32640D01*
X170208Y32629D01*
X170239Y32619D01*
X170260Y32609D01*
X170272Y32602D01*
X170278Y32597D01*
X170282Y32594D01*
X170314Y32556D01*
X170338Y32534D01*
X170358Y32508D01*
X170364Y32503D01*
X170472Y32372D01*
X170778Y32121D01*
X170833Y32091D01*
X170990Y30799D01*
X170238Y30025D01*
X169944Y30032D01*
X169191Y30088D01*
X169035Y30100D01*
X168929Y30274D01*
X168673Y30573D01*
X168374Y30829D01*
X168039Y31034D01*
X167675Y31185D01*
X167292Y31277D01*
X166900Y31308D01*
X166508Y31277D01*
X166125Y31185D01*
X165762Y31034D01*
X165426Y30829D01*
X165127Y30573D01*
X164871Y30274D01*
X164666Y29938D01*
X164515Y29575D01*
X164423Y29192D01*
X164392Y28800D01*
X164423Y28408D01*
X164515Y28025D01*
X164666Y27661D01*
X164871Y27326D01*
X165127Y27027D01*
X165426Y26771D01*
X165461Y26750D01*
X165643Y26020D01*
X165648Y25911D01*
X165539Y25283D01*
X165472Y25228D01*
X165221Y24922D01*
X165072Y24643D01*
X164773Y24573D01*
X164027D01*
X163728Y24643D01*
X163579Y24922D01*
X163328Y25228D01*
X163197Y25336D01*
X163192Y25342D01*
X163166Y25362D01*
X163144Y25386D01*
X163106Y25418D01*
X163103Y25422D01*
X163098Y25428D01*
X163091Y25440D01*
X163082Y25461D01*
X163071Y25492D01*
X163060Y25535D01*
X163051Y25591D01*
X163045Y25655D01*
Y26400D01*
X163006Y26696D01*
X162980Y26759D01*
X162891Y26972D01*
X162710Y27209D01*
X162292Y27627D01*
X162260Y27670D01*
X162226Y27721D01*
X162184Y27803D01*
X162208Y28100D01*
X162177Y28492D01*
X162085Y28875D01*
X161934Y29239D01*
X161729Y29574D01*
X161473Y29873D01*
X161174Y30129D01*
X160839Y30334D01*
X160475Y30485D01*
X160092Y30577D01*
X159700Y30608D01*
X159308Y30577D01*
X158925Y30485D01*
X158561Y30334D01*
X158226Y30129D01*
X157927Y29873D01*
X157671Y29574D01*
X157466Y29239D01*
X157315Y28875D01*
X157223Y28492D01*
X157192Y28100D01*
X157223Y27708D01*
X157315Y27325D01*
X157435Y27036D01*
X157171Y26367D01*
X157127Y26278D01*
X156921Y25985D01*
X156706Y25801D01*
X156506Y25781D01*
X156127Y25666D01*
X155778Y25479D01*
X155472Y25228D01*
X155221Y24922D01*
X155072Y24643D01*
X154773Y24573D01*
X154027D01*
X153728Y24643D01*
X153579Y24922D01*
X153328Y25228D01*
X153022Y25479D01*
X152673Y25666D01*
X152294Y25781D01*
X151900Y25820D01*
X151506Y25781D01*
X151127Y25666D01*
X150778Y25479D01*
X150472Y25228D01*
X150221Y24922D01*
X150072Y24643D01*
X149773Y24573D01*
X149027D01*
X148728Y24643D01*
X148579Y24922D01*
X148328Y25228D01*
X148022Y25479D01*
X147673Y25666D01*
X147294Y25781D01*
X146900Y25820D01*
X146506Y25781D01*
X146127Y25666D01*
X145778Y25479D01*
X145472Y25228D01*
X145221Y24922D01*
X145072Y24643D01*
X144773Y24573D01*
X144027D01*
X143728Y24643D01*
X143579Y24922D01*
X143328Y25228D01*
X143022Y25479D01*
X142673Y25666D01*
X142294Y25781D01*
X141900Y25820D01*
X141506Y25781D01*
X141127Y25666D01*
X140778Y25479D01*
X140472Y25228D01*
X140221Y24922D01*
X140072Y24643D01*
X139773Y24573D01*
X139027D01*
X138728Y24643D01*
X138579Y24922D01*
X138328Y25228D01*
X138022Y25479D01*
X137673Y25666D01*
X137294Y25781D01*
X136900Y25820D01*
X136506Y25781D01*
X136127Y25666D01*
X135778Y25479D01*
X135472Y25228D01*
X135221Y24922D01*
X135072Y24643D01*
X134773Y24573D01*
X134027D01*
X133728Y24643D01*
X133579Y24922D01*
X133328Y25228D01*
X133022Y25479D01*
X132673Y25666D01*
X132294Y25781D01*
X131900Y25820D01*
X131506Y25781D01*
X131127Y25666D01*
X130778Y25479D01*
X130472Y25228D01*
X130221Y24922D01*
X130072Y24643D01*
X129773Y24573D01*
X129027D01*
X128728Y24643D01*
X128579Y24922D01*
X128328Y25228D01*
X128022Y25479D01*
X127673Y25666D01*
X127294Y25781D01*
X126900Y25820D01*
X126506Y25781D01*
X126127Y25666D01*
X125778Y25479D01*
X125472Y25228D01*
X125447Y25198D01*
X124449Y25125D01*
X124080Y25222D01*
X123889Y25382D01*
X123837Y25685D01*
X124029Y26126D01*
D01*
Y26126D01*
X124234Y26462D01*
X124385Y26825D01*
X124385Y26825D01*
X124477Y27208D01*
X124477Y27208D01*
X124477Y27214D01*
X124508Y27600D01*
X124477Y27992D01*
X124385Y28375D01*
X124234Y28739D01*
X124029Y29074D01*
X123773Y29373D01*
X123474Y29629D01*
X123139Y29834D01*
X122775Y29985D01*
X122392Y30077D01*
X122000Y30108D01*
X121608Y30077D01*
X121225Y29985D01*
X120862Y29834D01*
X120526Y29629D01*
X120227Y29373D01*
X119971Y29074D01*
X119766Y28739D01*
X119615Y28375D01*
X119523Y27992D01*
X119492Y27600D01*
X119523Y27208D01*
X119615Y26825D01*
X119766Y26462D01*
X119971Y26126D01*
X120414Y25332D01*
X120221Y24922D01*
X120034Y24573D01*
X119919Y24194D01*
X119880Y23800D01*
X119919Y23406D01*
X120034Y23027D01*
X120221Y22678D01*
X120472Y22372D01*
X120778Y22121D01*
X121057Y21972D01*
X121127Y21673D01*
Y20927D01*
X121057Y20628D01*
X120778Y20479D01*
X120472Y20228D01*
X120221Y19922D01*
X120034Y19573D01*
X119919Y19194D01*
X119880Y18800D01*
X119919Y18406D01*
X120034Y18027D01*
X120221Y17678D01*
X120472Y17372D01*
X120778Y17121D01*
X121127Y16934D01*
X121506Y16819D01*
X121900Y16780D01*
X122294Y16819D01*
X122673Y16934D01*
X123022Y17121D01*
X123328Y17372D01*
X123579Y17678D01*
X123728Y17957D01*
X124027Y18027D01*
X124773D01*
X125072Y17957D01*
X125221Y17678D01*
X125472Y17372D01*
X125778Y17121D01*
X126057Y16972D01*
X126127Y16673D01*
Y15927D01*
X126057Y15628D01*
X125778Y15479D01*
X125472Y15228D01*
X125221Y14922D01*
X125034Y14573D01*
X124919Y14194D01*
X124880Y13800D01*
X124919Y13406D01*
X125034Y13027D01*
X125221Y12678D01*
X125472Y12372D01*
X125778Y12121D01*
X126127Y11934D01*
X126506Y11819D01*
X126900Y11780D01*
X127294Y11819D01*
X127673Y11934D01*
X128022Y12121D01*
X128328Y12372D01*
X128579Y12678D01*
X128728Y12957D01*
X129027Y13027D01*
X129773D01*
X130072Y12957D01*
X130221Y12678D01*
X130472Y12372D01*
X130778Y12121D01*
X131127Y11934D01*
X131506Y11819D01*
X131900Y11780D01*
X132294Y11819D01*
X132673Y11934D01*
X133022Y12121D01*
X133328Y12372D01*
X133579Y12678D01*
X133728Y12957D01*
X134027Y13027D01*
X134773D01*
X135072Y12957D01*
X135221Y12678D01*
X135472Y12372D01*
X135778Y12121D01*
X136127Y11934D01*
X136506Y11819D01*
X136900Y11780D01*
X137294Y11819D01*
X137673Y11934D01*
X138022Y12121D01*
X138328Y12372D01*
X138579Y12678D01*
X138728Y12957D01*
X139027Y13027D01*
X139773D01*
X140072Y12957D01*
X140221Y12678D01*
X140472Y12372D01*
X140778Y12121D01*
X141127Y11934D01*
X141506Y11819D01*
X141900Y11780D01*
X142294Y11819D01*
X142673Y11934D01*
X143022Y12121D01*
X143328Y12372D01*
X143579Y12678D01*
X143728Y12957D01*
X144027Y13027D01*
X144773D01*
X145072Y12957D01*
X145221Y12678D01*
X145472Y12372D01*
X145778Y12121D01*
X146127Y11934D01*
X146506Y11819D01*
X146900Y11780D01*
X147294Y11819D01*
X147673Y11934D01*
X148022Y12121D01*
X148328Y12372D01*
X148579Y12678D01*
X148728Y12957D01*
X149027Y13027D01*
X149773D01*
X150072Y12957D01*
X150221Y12678D01*
X150472Y12372D01*
X150778Y12121D01*
X151127Y11934D01*
X151506Y11819D01*
X151900Y11780D01*
X152294Y11819D01*
X152673Y11934D01*
X153022Y12121D01*
X153328Y12372D01*
X153579Y12678D01*
X153728Y12957D01*
X154027Y13027D01*
X154773D01*
X155072Y12957D01*
X155221Y12678D01*
X155472Y12372D01*
X155778Y12121D01*
X156127Y11934D01*
X156506Y11819D01*
X156900Y11780D01*
X157294Y11819D01*
X157673Y11934D01*
X158022Y12121D01*
X158328Y12372D01*
X158579Y12678D01*
X158728Y12957D01*
X159027Y13027D01*
X159773D01*
X160072Y12957D01*
X160221Y12678D01*
X160472Y12372D01*
X160603Y12264D01*
X160608Y12258D01*
X160634Y12238D01*
X160656Y12214D01*
X160694Y12182D01*
X160697Y12178D01*
X160702Y12172D01*
X160709Y12160D01*
X160718Y12139D01*
X160729Y12108D01*
X160740Y12065D01*
X160749Y12009D01*
X160755Y11945D01*
Y10074D01*
X159127Y8445D01*
X159124Y8443D01*
X159086Y8415D01*
X159045Y8392D01*
X158692Y8477D01*
X158300Y8508D01*
X157908Y8477D01*
X157525Y8385D01*
X157162Y8234D01*
X156826Y8029D01*
X156527Y7773D01*
X156295Y7502D01*
X156225Y7531D01*
X155930Y7570D01*
X152970D01*
X152675Y7531D01*
X152416Y7424D01*
X152400Y7417D01*
X152399Y7417D01*
X151887Y7236D01*
X151600D01*
X151313D01*
X150801Y7417D01*
X150800Y7417D01*
X150784Y7424D01*
X150525Y7531D01*
X150230Y7570D01*
X147270D01*
X146975Y7531D01*
X146700Y7417D01*
X146464Y7236D01*
X146406Y7161D01*
X146253Y7145D01*
X145278D01*
X144874Y7150D01*
X144767Y7155D01*
X144639Y7234D01*
X144275Y7385D01*
X143892Y7477D01*
X143500Y7508D01*
X143108Y7477D01*
X142725Y7385D01*
X142361Y7234D01*
X142026Y7029D01*
X141727Y6773D01*
X141471Y6474D01*
X141266Y6138D01*
X141115Y5775D01*
X141023Y5392D01*
X140992Y5000D01*
X141023Y4608D01*
X141115Y4225D01*
X141266Y3862D01*
X141471Y3526D01*
X141727Y3227D01*
X142026Y2971D01*
X142361Y2766D01*
X142057Y1517D01*
X94416D01*
X94103Y2002D01*
X93795Y2787D01*
X93831Y2875D01*
X93870Y3170D01*
Y6430D01*
X93831Y6725D01*
X93717Y7000D01*
X93536Y7236D01*
X93300Y7417D01*
X93025Y7531D01*
X92730Y7570D01*
X92186D01*
X92166Y7579D01*
X92086Y7625D01*
X91990Y7690D01*
X91887Y7768D01*
X91619Y8000D01*
X84234Y15385D01*
X83772Y16628D01*
X84028Y16927D01*
X84234Y17262D01*
X84384Y17626D01*
X84476Y18009D01*
X84507Y18401D01*
X84476Y18793D01*
X84384Y19176D01*
X84234Y19539D01*
X84028Y19875D01*
X83772Y20174D01*
X83473Y20430D01*
X83138Y20635D01*
X82774Y20786D01*
X82392Y20878D01*
X81999Y20909D01*
X81607Y20878D01*
X81224Y20786D01*
X80861Y20635D01*
X80525Y20430D01*
X80226Y20174D01*
X79970Y19875D01*
X79765Y19539D01*
X79614Y19176D01*
X79522Y18793D01*
X79492Y18401D01*
X79522Y18009D01*
X79614Y17626D01*
X79765Y17262D01*
X79970Y16927D01*
X80226Y16628D01*
X80525Y16372D01*
X80835Y16182D01*
X80847Y16137D01*
X80854Y16091D01*
X80854Y16087D01*
Y16001D01*
X80893Y15704D01*
X80941Y15590D01*
X81008Y15428D01*
X81190Y15191D01*
X87677Y8704D01*
X87604Y8460D01*
X87058Y7614D01*
X87015Y7570D01*
X84070D01*
X83775Y7531D01*
X83500Y7417D01*
X83428Y7362D01*
X83264Y7236D01*
Y7236D01*
X82771Y7010D01*
X82081Y7033D01*
X81840Y7117D01*
X81675Y7185D01*
X81292Y7277D01*
X80900Y7308D01*
X80508Y7277D01*
X80125Y7185D01*
X79762Y7034D01*
X79426Y6829D01*
X79127Y6573D01*
X78871Y6274D01*
X78666Y5939D01*
X78515Y5575D01*
X78423Y5192D01*
X78392Y4800D01*
X78423Y4408D01*
X78515Y4025D01*
X78666Y3661D01*
X78871Y3326D01*
X79127Y3027D01*
X79407Y2787D01*
X79411Y2723D01*
X79042Y1517D01*
X34829D01*
X28073Y8273D01*
X27843Y8462D01*
X27581Y8602D01*
X27296Y8688D01*
X27000Y8717D01*
X15100D01*
X14804Y8688D01*
X14519Y8602D01*
X14257Y8462D01*
X14027Y8273D01*
X13838Y8043D01*
X13698Y7781D01*
X13612Y7496D01*
X13583Y7200D01*
Y1517D01*
X628D01*
X-11927Y14073D01*
X-12157Y14262D01*
X-12420Y14402D01*
X-12704Y14488D01*
X-13000Y14518D01*
X-21220D01*
Y23761D01*
X-18326Y26655D01*
X74655D01*
X74951Y26694D01*
X75066Y26742D01*
X75227Y26809D01*
X75465Y26990D01*
X83910Y35435D01*
X84091Y35673D01*
X84149Y35810D01*
X84206Y35949D01*
X84245Y36245D01*
Y63426D01*
X88739Y67920D01*
X89161Y67955D01*
X90209Y67681D01*
X90253Y67638D01*
X90472Y67372D01*
X90778Y67121D01*
X91127Y66934D01*
X91506Y66819D01*
X91900Y66780D01*
X92294Y66819D01*
X92673Y66934D01*
X93022Y67121D01*
X93328Y67372D01*
X93579Y67678D01*
X93766Y68027D01*
X93881Y68406D01*
X93920Y68800D01*
X93911Y68885D01*
X94502Y69840D01*
X94724Y70070D01*
X94888Y70155D01*
X98500D01*
X98796Y70194D01*
X98877Y70228D01*
X99072Y70309D01*
X99310Y70490D01*
X100309Y71491D01*
X100354Y71548D01*
X101416Y71798D01*
X101561Y71814D01*
X101719Y71798D01*
X101900Y71780D01*
X101900Y71780D01*
X102294Y71819D01*
X102294Y71819D01*
X102294Y71819D01*
X102341Y71833D01*
X102673Y71934D01*
X102673D01*
X102673D01*
X102674Y71934D01*
X102674Y71934D01*
X102822Y72014D01*
X103022Y72121D01*
X103328Y72372D01*
X103328Y72372D01*
X103422Y72487D01*
X103628Y72638D01*
X103635Y72640D01*
X103691Y72649D01*
X103755Y72655D01*
X108626D01*
X112255Y69026D01*
D02*
G37*
G36*
X170885Y75350D02*
X170979Y75273D01*
X171072Y75206D01*
X171165Y75150D01*
X171258Y75105D01*
X171351Y75070D01*
X171444Y75046D01*
X171537Y75032D01*
X171630Y75030D01*
X171723Y75037D01*
X170662Y73977D01*
X170671Y74070D01*
X170668Y74163D01*
X170654Y74255D01*
X170630Y74349D01*
X170595Y74442D01*
X170550Y74535D01*
X170494Y74628D01*
X170427Y74721D01*
X170350Y74815D01*
X170261Y74908D01*
X170792Y75439D01*
X170885Y75350D01*
D02*
G37*
G36*
X87403Y74722D02*
X87664Y74506D01*
X87794Y74418D01*
X87922Y74344D01*
X88050Y74283D01*
X88177Y74236D01*
X88303Y74202D01*
X88428Y74182D01*
X88552Y74175D01*
Y73425D01*
X88428Y73418D01*
X88303Y73398D01*
X88177Y73364D01*
X88050Y73317D01*
X87922Y73256D01*
X87794Y73182D01*
X87664Y73094D01*
X87534Y72993D01*
X87403Y72878D01*
X87271Y72750D01*
Y74850D01*
X87403Y74722D01*
D02*
G37*
G36*
X97579Y77740D02*
X97515Y77672D01*
X97459Y77597D01*
X97410Y77514D01*
X97369Y77424D01*
X97335Y77326D01*
X97309Y77220D01*
X97290Y77107D01*
X97279Y76986D01*
X97275Y76858D01*
X96525D01*
X96521Y76986D01*
X96510Y77107D01*
X96491Y77220D01*
X96465Y77326D01*
X96431Y77424D01*
X96390Y77514D01*
X96341Y77597D01*
X96285Y77672D01*
X96221Y77740D01*
X96150Y77800D01*
X97650D01*
X97579Y77740D01*
D02*
G37*
G36*
X90900Y73050D02*
X90840Y73121D01*
X90772Y73185D01*
X90697Y73241D01*
X90614Y73290D01*
X90524Y73331D01*
X90426Y73365D01*
X90320Y73391D01*
X90207Y73410D01*
X90086Y73421D01*
X89958Y73425D01*
Y74175D01*
X90086Y74179D01*
X90207Y74190D01*
X90320Y74209D01*
X90426Y74235D01*
X90524Y74269D01*
X90614Y74310D01*
X90697Y74359D01*
X90772Y74415D01*
X90840Y74479D01*
X90900Y74550D01*
Y73050D01*
D02*
G37*
G36*
X97279Y75614D02*
X97290Y75493D01*
X97309Y75380D01*
X97335Y75274D01*
X97369Y75176D01*
X97410Y75086D01*
X97459Y75003D01*
X97515Y74928D01*
X97579Y74860D01*
X97650Y74800D01*
X96150D01*
X96221Y74860D01*
X96285Y74928D01*
X96341Y75003D01*
X96390Y75086D01*
X96431Y75176D01*
X96465Y75274D01*
X96491Y75380D01*
X96510Y75493D01*
X96521Y75614D01*
X96525Y75742D01*
X97275D01*
X97279Y75614D01*
D02*
G37*
G36*
X102960Y74479D02*
X103028Y74415D01*
X103103Y74359D01*
X103186Y74310D01*
X103276Y74269D01*
X103374Y74235D01*
X103480Y74209D01*
X103593Y74190D01*
X103714Y74179D01*
X103842Y74175D01*
Y73425D01*
X103714Y73421D01*
X103593Y73410D01*
X103480Y73391D01*
X103374Y73365D01*
X103276Y73331D01*
X103186Y73290D01*
X103103Y73241D01*
X103028Y73185D01*
X102960Y73121D01*
X102900Y73050D01*
Y74550D01*
X102960Y74479D01*
D02*
G37*
%LPC*%
G36*
X88900Y39008D02*
X88508Y38977D01*
X88125Y38885D01*
X87761Y38734D01*
X87426Y38529D01*
X87127Y38273D01*
X86871Y37974D01*
X86666Y37638D01*
X86515Y37275D01*
X86423Y36892D01*
X86392Y36500D01*
X86423Y36108D01*
X86515Y35725D01*
X86666Y35361D01*
X86871Y35026D01*
X87127Y34727D01*
X87426Y34471D01*
X87761Y34266D01*
X88125Y34115D01*
X88508Y34023D01*
X88900Y33992D01*
X89292Y34023D01*
X89675Y34115D01*
X90038Y34266D01*
X90374Y34471D01*
X90673Y34727D01*
X90929Y35026D01*
X91134Y35361D01*
X91285Y35725D01*
X91377Y36108D01*
X91408Y36500D01*
X91377Y36892D01*
X91285Y37275D01*
X91134Y37638D01*
X90929Y37974D01*
X90673Y38273D01*
X90374Y38529D01*
X90038Y38734D01*
X89675Y38885D01*
X89292Y38977D01*
X88900Y39008D01*
D02*
G37*
G36*
X151250Y32758D02*
X150858Y32727D01*
X150475Y32635D01*
X150112Y32484D01*
X149776Y32279D01*
X149477Y32023D01*
X149221Y31724D01*
X149016Y31388D01*
X148865Y31025D01*
X148773Y30642D01*
X148742Y30250D01*
X148773Y29858D01*
X148865Y29475D01*
X149016Y29111D01*
X149221Y28776D01*
X149477Y28477D01*
X149776Y28221D01*
X150112Y28016D01*
X150475Y27865D01*
X150858Y27773D01*
X151250Y27742D01*
X151642Y27773D01*
X152025Y27865D01*
X152388Y28016D01*
X152724Y28221D01*
X153023Y28477D01*
X153279Y28776D01*
X153484Y29111D01*
X153635Y29475D01*
X153727Y29858D01*
X153758Y30250D01*
X153727Y30642D01*
X153635Y31025D01*
X153484Y31388D01*
X153279Y31724D01*
X153023Y32023D01*
X152724Y32279D01*
X152388Y32484D01*
X152025Y32635D01*
X151642Y32727D01*
X151250Y32758D01*
D02*
G37*
G36*
X188200Y97608D02*
X187808Y97577D01*
X187425Y97485D01*
X187062Y97334D01*
X186726Y97129D01*
X186427Y96873D01*
X186171Y96574D01*
X185966Y96238D01*
X185815Y95875D01*
X185723Y95492D01*
X185692Y95100D01*
X185723Y94708D01*
X185815Y94325D01*
X185966Y93961D01*
X186171Y93626D01*
X186427Y93327D01*
X186726Y93071D01*
X187062Y92866D01*
X187425Y92715D01*
X187808Y92623D01*
X188200Y92592D01*
X188592Y92623D01*
X188975Y92715D01*
X189338Y92866D01*
X189674Y93071D01*
X189973Y93327D01*
X190229Y93626D01*
X190434Y93961D01*
X190585Y94325D01*
X190677Y94708D01*
X190708Y95100D01*
X190677Y95492D01*
X190585Y95875D01*
X190434Y96238D01*
X190229Y96574D01*
X189973Y96873D01*
X189674Y97129D01*
X189338Y97334D01*
X188975Y97485D01*
X188592Y97577D01*
X188200Y97608D01*
D02*
G37*
G36*
X126800Y82308D02*
X126408Y82277D01*
X126025Y82185D01*
X125661Y82034D01*
X125326Y81829D01*
X125027Y81573D01*
X124771Y81274D01*
X124566Y80939D01*
X124415Y80575D01*
X124323Y80192D01*
X124292Y79800D01*
X124323Y79408D01*
X124415Y79025D01*
X124566Y78661D01*
X124582Y78635D01*
X124599Y78118D01*
X122402Y75921D01*
X122353Y75880D01*
X122307Y75847D01*
X122268Y75824D01*
X122239Y75810D01*
X122218Y75802D01*
X122204Y75798D01*
X122196Y75797D01*
X122191Y75797D01*
X122142Y75801D01*
X122109Y75800D01*
X122077Y75804D01*
X122069Y75803D01*
X121900Y75820D01*
X121506Y75781D01*
X121127Y75666D01*
X120778Y75479D01*
X120472Y75228D01*
X120221Y74922D01*
X120034Y74573D01*
X119919Y74194D01*
X119880Y73800D01*
X119919Y73406D01*
X120034Y73027D01*
X120221Y72678D01*
X120472Y72372D01*
X120778Y72121D01*
X120995Y71738D01*
X120778Y70479D01*
X120472Y70228D01*
X120221Y69922D01*
X120034Y69573D01*
X119919Y69194D01*
X119880Y68800D01*
X119919Y68406D01*
X120034Y68027D01*
X120221Y67678D01*
X120472Y67372D01*
X120778Y67121D01*
X121127Y66934D01*
X121506Y66819D01*
X121900Y66780D01*
X122294Y66819D01*
X122673Y66934D01*
X123022Y67121D01*
X123328Y67372D01*
X123579Y67678D01*
X123651Y67812D01*
X123792Y67823D01*
X124175Y67915D01*
X124538Y68066D01*
X124874Y68271D01*
X125173Y68527D01*
X125429Y68826D01*
X125634Y69162D01*
X125785Y69525D01*
X125877Y69908D01*
X125908Y70300D01*
X125877Y70692D01*
X125856Y70779D01*
X126202Y71253D01*
X126668Y71774D01*
X126694Y71800D01*
X126723Y71796D01*
X126731Y71797D01*
X126900Y71780D01*
X127294Y71819D01*
X127673Y71934D01*
X128022Y72121D01*
X128328Y72372D01*
X128436Y72503D01*
X128442Y72508D01*
X128462Y72534D01*
X128486Y72556D01*
X128518Y72594D01*
X128522Y72597D01*
X128528Y72602D01*
X128540Y72609D01*
X128561Y72618D01*
X128592Y72629D01*
X128635Y72640D01*
X128691Y72649D01*
X128755Y72655D01*
X130045D01*
X130109Y72649D01*
X130165Y72640D01*
X130208Y72629D01*
X130239Y72618D01*
X130260Y72609D01*
X130272Y72602D01*
X130278Y72597D01*
X130282Y72594D01*
X130314Y72556D01*
X130338Y72534D01*
X130358Y72508D01*
X130364Y72503D01*
X130472Y72372D01*
X130778Y72121D01*
X131127Y71934D01*
X131506Y71819D01*
X131900Y71780D01*
X132294Y71819D01*
X132673Y71934D01*
X132711Y71955D01*
X132926Y71771D01*
X133261Y71566D01*
X133625Y71415D01*
X134008Y71323D01*
X134400Y71292D01*
X134485Y71299D01*
X134742Y71169D01*
X134973Y70567D01*
X135162Y69813D01*
X135034Y69573D01*
X134919Y69194D01*
X134880Y68800D01*
X134919Y68406D01*
X135034Y68027D01*
X135221Y67678D01*
X135472Y67372D01*
X135778Y67121D01*
X136127Y66934D01*
X136506Y66819D01*
X136900Y66780D01*
X137294Y66819D01*
X137673Y66934D01*
X138022Y67121D01*
X138328Y67372D01*
X138436Y67503D01*
X138442Y67508D01*
X138462Y67534D01*
X138486Y67556D01*
X138518Y67594D01*
X138522Y67597D01*
X138528Y67602D01*
X138540Y67609D01*
X138561Y67618D01*
X138592Y67629D01*
X138635Y67640D01*
X138691Y67649D01*
X138755Y67655D01*
X140045D01*
X140109Y67649D01*
X140165Y67640D01*
X140208Y67629D01*
X140239Y67618D01*
X140260Y67609D01*
X140272Y67602D01*
X140278Y67597D01*
X140282Y67594D01*
X140314Y67556D01*
X140338Y67534D01*
X140358Y67508D01*
X140364Y67503D01*
X140472Y67372D01*
X140778Y67121D01*
X141127Y66934D01*
X141506Y66819D01*
X141900Y66780D01*
X142294Y66819D01*
X142673Y66934D01*
X143022Y67121D01*
X143328Y67372D01*
X143436Y67503D01*
X143442Y67508D01*
X143462Y67534D01*
X143486Y67556D01*
X143518Y67594D01*
X143522Y67597D01*
X143528Y67602D01*
X143540Y67609D01*
X143560Y67618D01*
X143592Y67629D01*
X143635Y67640D01*
X143691Y67649D01*
X143755Y67655D01*
X145045D01*
X145108Y67649D01*
X145165Y67640D01*
X145208Y67629D01*
X145239Y67618D01*
X145260Y67609D01*
X145272Y67602D01*
X145278Y67597D01*
X145282Y67594D01*
X145314Y67556D01*
X145338Y67534D01*
X145358Y67508D01*
X145364Y67503D01*
X145472Y67372D01*
X145778Y67121D01*
X146057Y66972D01*
X146127Y66673D01*
Y65927D01*
X146057Y65628D01*
X145778Y65479D01*
X145472Y65228D01*
X145221Y64922D01*
X145034Y64573D01*
X144919Y64194D01*
X144880Y63800D01*
X144919Y63406D01*
X145034Y63027D01*
X145163Y62787D01*
X144973Y62033D01*
X144742Y61431D01*
X144485Y61301D01*
X144400Y61308D01*
X144008Y61277D01*
X143625Y61185D01*
X143261Y61034D01*
X142926Y60829D01*
X142711Y60645D01*
X142673Y60666D01*
X142294Y60781D01*
X141900Y60820D01*
X141506Y60781D01*
X141127Y60666D01*
X140778Y60479D01*
X140472Y60228D01*
X140364Y60097D01*
X140358Y60092D01*
X140338Y60066D01*
X140314Y60044D01*
X140282Y60006D01*
X140278Y60003D01*
X140272Y59998D01*
X140260Y59991D01*
X140239Y59982D01*
X140208Y59971D01*
X140165Y59960D01*
X140109Y59951D01*
X140045Y59945D01*
X133755D01*
X133691Y59951D01*
X133635Y59960D01*
X133592Y59971D01*
X133561Y59981D01*
X133540Y59991D01*
X133528Y59998D01*
X133522Y60003D01*
X133518Y60006D01*
X133486Y60044D01*
X133462Y60066D01*
X133442Y60092D01*
X133436Y60097D01*
X133328Y60228D01*
X133022Y60479D01*
X132673Y60666D01*
X132294Y60781D01*
X131900Y60820D01*
X131506Y60781D01*
X131127Y60666D01*
X131089Y60645D01*
X130874Y60829D01*
X130539Y61034D01*
X130175Y61185D01*
X129792Y61277D01*
X129400Y61308D01*
X129008Y61277D01*
X128625Y61185D01*
X128261Y61034D01*
X127926Y60829D01*
X127711Y60645D01*
X127673Y60666D01*
X127294Y60781D01*
X126900Y60820D01*
X126506Y60781D01*
X126127Y60666D01*
X125778Y60479D01*
X125472Y60228D01*
X125364Y60097D01*
X125358Y60092D01*
X125338Y60066D01*
X125314Y60044D01*
X125282Y60006D01*
X125278Y60003D01*
X125272Y59998D01*
X125260Y59991D01*
X125239Y59982D01*
X125208Y59971D01*
X125165Y59960D01*
X125109Y59951D01*
X125045Y59945D01*
X123755D01*
X123691Y59951D01*
X123635Y59960D01*
X123592Y59971D01*
X123561Y59981D01*
X123540Y59991D01*
X123528Y59998D01*
X123522Y60003D01*
X123518Y60006D01*
X123486Y60044D01*
X123462Y60066D01*
X123442Y60092D01*
X123436Y60097D01*
X123328Y60228D01*
X123022Y60479D01*
X122673Y60666D01*
X122294Y60781D01*
X121900Y60820D01*
X121506Y60781D01*
X121127Y60666D01*
X120778Y60479D01*
X120472Y60228D01*
X120221Y59922D01*
X120034Y59573D01*
X119919Y59194D01*
X119894Y58935D01*
X119311Y58476D01*
X118704Y58190D01*
X118475Y58285D01*
X118092Y58377D01*
X117700Y58408D01*
X117308Y58377D01*
X116925Y58285D01*
X116561Y58134D01*
X116226Y57929D01*
X115927Y57673D01*
X115671Y57374D01*
X115466Y57038D01*
X115315Y56675D01*
X115223Y56292D01*
X115192Y55900D01*
X115223Y55508D01*
X115315Y55125D01*
X115466Y54762D01*
X115671Y54426D01*
X115927Y54127D01*
X116226Y53871D01*
X116561Y53666D01*
X116925Y53515D01*
X117308Y53423D01*
X117700Y53392D01*
X118092Y53423D01*
X118475Y53515D01*
X118839Y53666D01*
X119174Y53871D01*
X119473Y54127D01*
X119729Y54426D01*
X119934Y54762D01*
X120085Y55125D01*
X120177Y55508D01*
X120208Y55900D01*
X120201Y55989D01*
X120798Y56599D01*
X121345Y56868D01*
X121506Y56819D01*
X121900Y56780D01*
X122294Y56819D01*
X122673Y56934D01*
X123022Y57121D01*
X123328Y57372D01*
X123436Y57503D01*
X123442Y57508D01*
X123462Y57534D01*
X123486Y57556D01*
X123518Y57594D01*
X123522Y57597D01*
X123528Y57602D01*
X123540Y57609D01*
X123560Y57618D01*
X123592Y57629D01*
X123635Y57640D01*
X123691Y57649D01*
X123755Y57655D01*
X125045D01*
X125109Y57649D01*
X125165Y57640D01*
X125208Y57629D01*
X125239Y57618D01*
X125260Y57609D01*
X125272Y57602D01*
X125278Y57597D01*
X125282Y57594D01*
X125314Y57556D01*
X125338Y57534D01*
X125358Y57508D01*
X125364Y57503D01*
X125472Y57372D01*
X125778Y57121D01*
X126127Y56934D01*
X126506Y56819D01*
X126900Y56780D01*
X127294Y56819D01*
X127673Y56934D01*
X127711Y56955D01*
X127926Y56771D01*
X128261Y56566D01*
X128625Y56415D01*
X129008Y56323D01*
X129400Y56292D01*
X129792Y56323D01*
X130175Y56415D01*
X130539Y56566D01*
X130874Y56771D01*
X131089Y56955D01*
X131127Y56934D01*
X131506Y56819D01*
X131900Y56780D01*
X132294Y56819D01*
X132673Y56934D01*
X133022Y57121D01*
X133328Y57372D01*
X133436Y57503D01*
X133442Y57508D01*
X133462Y57534D01*
X133486Y57556D01*
X133518Y57594D01*
X133522Y57597D01*
X133528Y57602D01*
X133540Y57609D01*
X133560Y57618D01*
X133592Y57629D01*
X133635Y57640D01*
X133691Y57649D01*
X133755Y57655D01*
X140045D01*
X140109Y57649D01*
X140165Y57640D01*
X140208Y57629D01*
X140239Y57618D01*
X140260Y57609D01*
X140272Y57602D01*
X140278Y57597D01*
X140282Y57594D01*
X140314Y57556D01*
X140338Y57534D01*
X140358Y57508D01*
X140364Y57503D01*
X140472Y57372D01*
X140778Y57121D01*
X141127Y56934D01*
X141506Y56819D01*
X141900Y56780D01*
X142294Y56819D01*
X142673Y56934D01*
X142711Y56955D01*
X142926Y56771D01*
X143261Y56566D01*
X143625Y56415D01*
X144008Y56323D01*
X144400Y56292D01*
X144792Y56323D01*
X145175Y56415D01*
X145539Y56566D01*
X145874Y56771D01*
X146089Y56955D01*
X146127Y56934D01*
X146506Y56819D01*
X146900Y56780D01*
X147294Y56819D01*
X147673Y56934D01*
X148022Y57121D01*
X148328Y57372D01*
X148436Y57503D01*
X148442Y57508D01*
X148462Y57534D01*
X148486Y57556D01*
X148518Y57594D01*
X148522Y57597D01*
X148528Y57602D01*
X148540Y57609D01*
X148560Y57618D01*
X148592Y57629D01*
X148635Y57640D01*
X148691Y57649D01*
X148755Y57655D01*
X150045D01*
X150109Y57649D01*
X150165Y57640D01*
X150208Y57629D01*
X150239Y57618D01*
X150260Y57609D01*
X150272Y57602D01*
X150278Y57597D01*
X150282Y57594D01*
X150314Y57556D01*
X150338Y57534D01*
X150358Y57508D01*
X150364Y57503D01*
X150472Y57372D01*
X150778Y57121D01*
X151127Y56934D01*
X151506Y56819D01*
X151900Y56780D01*
X152294Y56819D01*
X152673Y56934D01*
X153022Y57121D01*
X153328Y57372D01*
X153579Y57678D01*
X153766Y58027D01*
X153881Y58406D01*
X153920Y58800D01*
X153881Y59194D01*
X153766Y59573D01*
X153579Y59922D01*
X153328Y60228D01*
X153197Y60336D01*
X153192Y60342D01*
X153166Y60362D01*
X153144Y60386D01*
X153106Y60418D01*
X153103Y60422D01*
X153098Y60428D01*
X153091Y60440D01*
X153082Y60461D01*
X153071Y60492D01*
X153060Y60535D01*
X153051Y60591D01*
X153045Y60655D01*
Y61945D01*
X153051Y62009D01*
X153060Y62065D01*
X153071Y62108D01*
X153082Y62139D01*
X153091Y62160D01*
X153098Y62172D01*
X153103Y62178D01*
X153106Y62182D01*
X153144Y62214D01*
X153166Y62238D01*
X153192Y62258D01*
X153197Y62264D01*
X153328Y62372D01*
X153579Y62678D01*
X153766Y63027D01*
X153881Y63406D01*
X153920Y63800D01*
X153881Y64194D01*
X153766Y64573D01*
X153579Y64922D01*
X153328Y65228D01*
X153022Y65479D01*
X152673Y65666D01*
X152294Y65781D01*
X151900Y65820D01*
X151506Y65781D01*
X151127Y65666D01*
X150778Y65479D01*
X150472Y65228D01*
X150221Y64922D01*
X150072Y64643D01*
X149773Y64573D01*
X149027D01*
X148728Y64643D01*
X148579Y64922D01*
X148328Y65228D01*
X148022Y65479D01*
X147743Y65628D01*
X147673Y65927D01*
Y66673D01*
X147743Y66972D01*
X148022Y67121D01*
X148328Y67372D01*
X148579Y67678D01*
X148766Y68027D01*
X148881Y68406D01*
X148920Y68800D01*
X148881Y69194D01*
X148766Y69573D01*
X148579Y69922D01*
X148328Y70228D01*
X148022Y70479D01*
X147673Y70666D01*
X147294Y70781D01*
X146900Y70820D01*
X146506Y70781D01*
X146127Y70666D01*
X145778Y70479D01*
X145472Y70228D01*
X145364Y70097D01*
X145358Y70092D01*
X145338Y70066D01*
X145314Y70044D01*
X145282Y70006D01*
X145278Y70003D01*
X145272Y69998D01*
X145260Y69991D01*
X145239Y69982D01*
X145208Y69971D01*
X145165Y69960D01*
X145108Y69951D01*
X145045Y69945D01*
X143755D01*
X143691Y69951D01*
X143635Y69960D01*
X143592Y69971D01*
X143561Y69981D01*
X143540Y69991D01*
X143528Y69998D01*
X143522Y70003D01*
X143518Y70006D01*
X143486Y70044D01*
X143462Y70066D01*
X143442Y70092D01*
X143436Y70097D01*
X143328Y70228D01*
X143197Y70336D01*
X143192Y70342D01*
X143166Y70362D01*
X143144Y70386D01*
X143106Y70418D01*
X143103Y70422D01*
X143098Y70428D01*
X143091Y70440D01*
X143082Y70461D01*
X143071Y70492D01*
X143060Y70535D01*
X143051Y70591D01*
X143045Y70655D01*
Y71945D01*
X143051Y72009D01*
X143060Y72065D01*
X143071Y72108D01*
X143082Y72139D01*
X143091Y72160D01*
X143098Y72172D01*
X143103Y72178D01*
X143106Y72182D01*
X143144Y72214D01*
X143166Y72238D01*
X143192Y72258D01*
X143197Y72264D01*
X143328Y72372D01*
X143579Y72678D01*
X143766Y73027D01*
X143881Y73406D01*
X143920Y73800D01*
X143881Y74194D01*
X143766Y74573D01*
X143579Y74922D01*
X143328Y75228D01*
X143022Y75479D01*
X142673Y75666D01*
X142294Y75781D01*
X141900Y75820D01*
X141506Y75781D01*
X141127Y75666D01*
X140778Y75479D01*
X140472Y75228D01*
X140364Y75097D01*
X140358Y75092D01*
X140338Y75066D01*
X140314Y75044D01*
X140282Y75006D01*
X140278Y75003D01*
X140272Y74998D01*
X140260Y74991D01*
X140239Y74982D01*
X140208Y74971D01*
X140165Y74960D01*
X140109Y74951D01*
X140045Y74945D01*
X138755D01*
X138691Y74951D01*
X138635Y74960D01*
X138592Y74971D01*
X138561Y74981D01*
X138540Y74991D01*
X138528Y74998D01*
X138522Y75003D01*
X138518Y75006D01*
X138486Y75044D01*
X138462Y75066D01*
X138442Y75092D01*
X138436Y75097D01*
X138328Y75228D01*
X138022Y75479D01*
X137673Y75666D01*
X137294Y75781D01*
X136900Y75820D01*
X136506Y75781D01*
X136127Y75666D01*
X136089Y75645D01*
X135874Y75829D01*
X135539Y76034D01*
X135175Y76185D01*
X134792Y76277D01*
X134400Y76308D01*
X134008Y76277D01*
X133625Y76185D01*
X133261Y76034D01*
X132926Y75829D01*
X132711Y75645D01*
X132673Y75666D01*
X132294Y75781D01*
X131900Y75820D01*
X131506Y75781D01*
X131127Y75666D01*
X130778Y75479D01*
X130472Y75228D01*
X130364Y75097D01*
X130358Y75092D01*
X130338Y75066D01*
X130314Y75044D01*
X130282Y75006D01*
X130278Y75003D01*
X130272Y74998D01*
X130260Y74991D01*
X130239Y74982D01*
X130208Y74971D01*
X130165Y74960D01*
X130109Y74951D01*
X130045Y74945D01*
X128755D01*
X128691Y74951D01*
X128635Y74960D01*
X128592Y74971D01*
X128561Y74981D01*
X128540Y74991D01*
X128528Y74998D01*
X128522Y75003D01*
X128518Y75006D01*
X128486Y75044D01*
X128462Y75066D01*
X128442Y75092D01*
X128436Y75097D01*
X128328Y75228D01*
X128022Y75479D01*
X127673Y75666D01*
X127313Y76962D01*
X127351Y77069D01*
X127575Y77415D01*
X127938Y77566D01*
X128274Y77771D01*
X128573Y78027D01*
X128829Y78326D01*
X129034Y78661D01*
X129185Y79025D01*
X129277Y79408D01*
X129308Y79800D01*
X129277Y80192D01*
X129185Y80575D01*
X129034Y80939D01*
X128829Y81274D01*
X128573Y81573D01*
X128274Y81829D01*
X127938Y82034D01*
X127575Y82185D01*
X127192Y82277D01*
X126800Y82308D01*
D02*
G37*
G36*
X100400Y67808D02*
X100008Y67777D01*
X99625Y67685D01*
X99262Y67534D01*
X98926Y67329D01*
X98627Y67073D01*
X98371Y66774D01*
X98166Y66438D01*
X98015Y66075D01*
X97923Y65692D01*
X97892Y65300D01*
X97923Y64908D01*
X98015Y64525D01*
X98166Y64162D01*
X98371Y63826D01*
X98627Y63527D01*
X98926Y63271D01*
X99262Y63066D01*
X99625Y62915D01*
X100008Y62823D01*
X100149Y62812D01*
X100221Y62678D01*
X100472Y62372D01*
X100778Y62121D01*
X101127Y61934D01*
X101506Y61819D01*
X101900Y61780D01*
X102294Y61819D01*
X102673Y61934D01*
X103022Y62121D01*
X103328Y62372D01*
X103579Y62678D01*
X103766Y63027D01*
X103881Y63406D01*
X103920Y63800D01*
X103881Y64194D01*
X103766Y64573D01*
X103579Y64922D01*
X103328Y65228D01*
X103022Y65479D01*
X102888Y65551D01*
X102877Y65692D01*
X102785Y66075D01*
X102634Y66438D01*
X102429Y66774D01*
X102173Y67073D01*
X101874Y67329D01*
X101538Y67534D01*
X101175Y67685D01*
X100792Y67777D01*
X100400Y67808D01*
D02*
G37*
%LPD*%
G36*
X147579Y62740D02*
X147515Y62672D01*
X147459Y62597D01*
X147410Y62514D01*
X147369Y62424D01*
X147335Y62326D01*
X147309Y62220D01*
X147290Y62107D01*
X147279Y61986D01*
X147275Y61858D01*
X146525D01*
X146521Y61986D01*
X146510Y62107D01*
X146491Y62220D01*
X146465Y62326D01*
X146431Y62424D01*
X146390Y62514D01*
X146341Y62597D01*
X146285Y62672D01*
X146221Y62740D01*
X146150Y62800D01*
X147650D01*
X147579Y62740D01*
D02*
G37*
G36*
X101824Y64807D02*
X101819Y64728D01*
X101824Y64649D01*
X101840Y64569D01*
X101867Y64487D01*
X101905Y64405D01*
X101953Y64321D01*
X102013Y64237D01*
X102084Y64152D01*
X102165Y64065D01*
X101635Y63535D01*
X101548Y63616D01*
X101463Y63687D01*
X101378Y63747D01*
X101295Y63795D01*
X101213Y63833D01*
X101131Y63860D01*
X101051Y63876D01*
X100972Y63881D01*
X100893Y63876D01*
X100816Y63859D01*
X101841Y64884D01*
X101824Y64807D01*
D02*
G37*
G36*
X100885Y65350D02*
X100978Y65273D01*
X101072Y65206D01*
X101165Y65150D01*
X101258Y65105D01*
X101351Y65070D01*
X101445Y65046D01*
X101538Y65032D01*
X101630Y65030D01*
X101723Y65037D01*
X100663Y63977D01*
X100670Y64070D01*
X100668Y64163D01*
X100654Y64255D01*
X100630Y64349D01*
X100595Y64442D01*
X100550Y64535D01*
X100494Y64628D01*
X100427Y64721D01*
X100350Y64815D01*
X100261Y64908D01*
X100792Y65439D01*
X100885Y65350D01*
D02*
G37*
G36*
X152579Y62740D02*
X152515Y62672D01*
X152459Y62597D01*
X152410Y62514D01*
X152369Y62424D01*
X152335Y62326D01*
X152309Y62220D01*
X152290Y62107D01*
X152279Y61986D01*
X152275Y61858D01*
X151525D01*
X151521Y61986D01*
X151510Y62107D01*
X151491Y62220D01*
X151465Y62326D01*
X151431Y62424D01*
X151390Y62514D01*
X151341Y62597D01*
X151285Y62672D01*
X151221Y62740D01*
X151150Y62800D01*
X152650D01*
X152579Y62740D01*
D02*
G37*
G36*
X137279Y70614D02*
X137290Y70493D01*
X137309Y70380D01*
X137335Y70274D01*
X137369Y70176D01*
X137410Y70086D01*
X137459Y70003D01*
X137515Y69928D01*
X137579Y69860D01*
X137650Y69800D01*
X136150D01*
X136221Y69860D01*
X136285Y69928D01*
X136341Y70003D01*
X136390Y70086D01*
X136431Y70176D01*
X136465Y70274D01*
X136491Y70380D01*
X136510Y70493D01*
X136521Y70614D01*
X136525Y70742D01*
X137275D01*
X137279Y70614D01*
D02*
G37*
G36*
X142579Y72740D02*
X142515Y72672D01*
X142459Y72597D01*
X142410Y72514D01*
X142369Y72424D01*
X142335Y72326D01*
X142309Y72220D01*
X142290Y72107D01*
X142279Y71986D01*
X142275Y71858D01*
X141525D01*
X141521Y71986D01*
X141510Y72107D01*
X141491Y72220D01*
X141465Y72326D01*
X141431Y72424D01*
X141390Y72514D01*
X141341Y72597D01*
X141285Y72672D01*
X141221Y72740D01*
X141150Y72800D01*
X142650D01*
X142579Y72740D01*
D02*
G37*
G36*
X142279Y70614D02*
X142290Y70493D01*
X142309Y70380D01*
X142335Y70274D01*
X142369Y70176D01*
X142410Y70086D01*
X142459Y70003D01*
X142515Y69928D01*
X142579Y69860D01*
X142650Y69800D01*
X141150D01*
X141221Y69860D01*
X141285Y69928D01*
X141341Y70003D01*
X141390Y70086D01*
X141431Y70176D01*
X141465Y70274D01*
X141491Y70380D01*
X141510Y70493D01*
X141521Y70614D01*
X141525Y70742D01*
X142275D01*
X142279Y70614D01*
D02*
G37*
G36*
X137579Y72740D02*
X137515Y72672D01*
X137459Y72597D01*
X137410Y72514D01*
X137369Y72424D01*
X137335Y72326D01*
X137309Y72220D01*
X137290Y72107D01*
X137279Y71986D01*
X137275Y71858D01*
X136525D01*
X136521Y71986D01*
X136510Y72107D01*
X136491Y72220D01*
X136465Y72326D01*
X136431Y72424D01*
X136390Y72514D01*
X136341Y72597D01*
X136285Y72672D01*
X136221Y72740D01*
X136150Y72800D01*
X137650D01*
X137579Y72740D01*
D02*
G37*
G36*
X125329Y71698D02*
X125245Y71606D01*
X125171Y71503D01*
X125106Y71390D01*
X125050Y71267D01*
X125002Y71133D01*
X124964Y70990D01*
X124935Y70837D01*
X124914Y70673D01*
X124902Y70499D01*
X124900Y70315D01*
X123358Y70089D01*
X123539Y69908D01*
X123450Y69815D01*
X123373Y69721D01*
X123306Y69628D01*
X123250Y69535D01*
X123205Y69442D01*
X123170Y69349D01*
X123146Y69255D01*
X123132Y69163D01*
X123130Y69070D01*
X123137Y68977D01*
X123019Y69096D01*
X122984Y68859D01*
X122907Y68876D01*
X122828Y68881D01*
X122749Y68876D01*
X122669Y68860D01*
X122587Y68833D01*
X122505Y68795D01*
X122422Y68747D01*
X122337Y68687D01*
X122252Y68616D01*
X122165Y68535D01*
X121635Y69065D01*
X121716Y69152D01*
X121787Y69237D01*
X121847Y69321D01*
X121895Y69405D01*
X121933Y69487D01*
X121960Y69569D01*
X121976Y69649D01*
X121981Y69728D01*
X121975Y69807D01*
X121959Y69884D01*
X122196Y69919D01*
X122077Y70037D01*
X122170Y70030D01*
X122262Y70032D01*
X122355Y70046D01*
X122449Y70070D01*
X122542Y70105D01*
X122635Y70150D01*
X122728Y70206D01*
X122821Y70273D01*
X122915Y70350D01*
X123008Y70439D01*
X123189Y70258D01*
X123415Y71800D01*
X123599Y71803D01*
X123937Y71835D01*
X124090Y71864D01*
X124233Y71902D01*
X124367Y71950D01*
X124490Y72006D01*
X124603Y72071D01*
X124705Y72145D01*
X124798Y72229D01*
X125329Y71698D01*
D02*
G37*
G36*
X137960Y69479D02*
X138028Y69415D01*
X138103Y69359D01*
X138186Y69310D01*
X138276Y69269D01*
X138374Y69235D01*
X138480Y69209D01*
X138593Y69190D01*
X138714Y69179D01*
X138842Y69175D01*
Y68425D01*
X138714Y68421D01*
X138593Y68410D01*
X138480Y68391D01*
X138374Y68365D01*
X138276Y68331D01*
X138186Y68290D01*
X138103Y68241D01*
X138028Y68185D01*
X137960Y68121D01*
X137900Y68050D01*
Y69550D01*
X137960Y69479D01*
D02*
G37*
G36*
X126723Y72563D02*
X126630Y72571D01*
X126538Y72568D01*
X126445Y72554D01*
X126351Y72530D01*
X126258Y72495D01*
X126165Y72450D01*
X126072Y72394D01*
X125978Y72327D01*
X125885Y72249D01*
X125792Y72161D01*
X125261Y72692D01*
X125350Y72785D01*
X125427Y72878D01*
X125494Y72972D01*
X125550Y73065D01*
X125595Y73158D01*
X125630Y73251D01*
X125654Y73344D01*
X125668Y73438D01*
X125670Y73530D01*
X125663Y73623D01*
X126723Y72563D01*
D02*
G37*
G36*
X140900Y68050D02*
X140840Y68121D01*
X140772Y68185D01*
X140697Y68241D01*
X140614Y68290D01*
X140524Y68331D01*
X140426Y68365D01*
X140320Y68391D01*
X140207Y68410D01*
X140086Y68421D01*
X139958Y68425D01*
Y69175D01*
X140086Y69179D01*
X140207Y69190D01*
X140320Y69209D01*
X140426Y69235D01*
X140524Y69269D01*
X140614Y69310D01*
X140697Y69359D01*
X140772Y69415D01*
X140840Y69479D01*
X140900Y69550D01*
Y68050D01*
D02*
G37*
G36*
X145900D02*
X145840Y68121D01*
X145772Y68185D01*
X145697Y68241D01*
X145614Y68290D01*
X145524Y68331D01*
X145426Y68365D01*
X145320Y68391D01*
X145207Y68410D01*
X145086Y68421D01*
X144958Y68425D01*
Y69175D01*
X145086Y69179D01*
X145207Y69190D01*
X145320Y69209D01*
X145426Y69235D01*
X145524Y69269D01*
X145614Y69310D01*
X145697Y69359D01*
X145772Y69415D01*
X145840Y69479D01*
X145900Y69550D01*
Y68050D01*
D02*
G37*
G36*
X142960Y69479D02*
X143028Y69415D01*
X143103Y69359D01*
X143186Y69310D01*
X143276Y69269D01*
X143374Y69235D01*
X143480Y69209D01*
X143593Y69190D01*
X143714Y69179D01*
X143842Y69175D01*
Y68425D01*
X143714Y68421D01*
X143593Y68410D01*
X143480Y68391D01*
X143374Y68365D01*
X143276Y68331D01*
X143186Y68290D01*
X143103Y68241D01*
X143028Y68185D01*
X142960Y68121D01*
X142900Y68050D01*
Y69550D01*
X142960Y69479D01*
D02*
G37*
G36*
X125900Y58050D02*
X125840Y58121D01*
X125772Y58185D01*
X125697Y58241D01*
X125614Y58290D01*
X125524Y58331D01*
X125426Y58365D01*
X125320Y58391D01*
X125207Y58410D01*
X125086Y58421D01*
X124958Y58425D01*
Y59175D01*
X125086Y59179D01*
X125207Y59190D01*
X125320Y59209D01*
X125426Y59235D01*
X125524Y59269D01*
X125614Y59310D01*
X125697Y59359D01*
X125772Y59415D01*
X125840Y59479D01*
X125900Y59550D01*
Y58050D01*
D02*
G37*
G36*
X122960Y59479D02*
X123028Y59415D01*
X123103Y59359D01*
X123186Y59310D01*
X123276Y59269D01*
X123374Y59235D01*
X123480Y59209D01*
X123593Y59190D01*
X123714Y59179D01*
X123842Y59175D01*
Y58425D01*
X123714Y58421D01*
X123593Y58410D01*
X123480Y58391D01*
X123374Y58365D01*
X123276Y58331D01*
X123186Y58290D01*
X123103Y58241D01*
X123028Y58185D01*
X122960Y58121D01*
X122900Y58050D01*
Y59550D01*
X122960Y59479D01*
D02*
G37*
G36*
X130603Y59722D02*
X130863Y59507D01*
X130900Y59550D01*
Y59482D01*
X130994Y59418D01*
X131122Y59344D01*
X131250Y59283D01*
X131377Y59236D01*
X131503Y59202D01*
X131628Y59182D01*
X131752Y59175D01*
Y58425D01*
X131628Y58418D01*
X131503Y58398D01*
X131377Y58364D01*
X131250Y58317D01*
X131122Y58256D01*
X130994Y58182D01*
X130900Y58118D01*
Y58050D01*
X130863Y58094D01*
X130734Y57993D01*
X130603Y57878D01*
X130471Y57750D01*
Y58349D01*
X130426Y58365D01*
X130320Y58391D01*
X130207Y58410D01*
X130086Y58421D01*
X129958Y58425D01*
Y59175D01*
X130086Y59179D01*
X130207Y59190D01*
X130320Y59209D01*
X130426Y59235D01*
X130471Y59251D01*
Y59850D01*
X130603Y59722D01*
D02*
G37*
G36*
X140900Y58050D02*
X140840Y58121D01*
X140772Y58185D01*
X140697Y58241D01*
X140614Y58290D01*
X140524Y58331D01*
X140426Y58365D01*
X140320Y58391D01*
X140207Y58410D01*
X140086Y58421D01*
X139958Y58425D01*
Y59175D01*
X140086Y59179D01*
X140207Y59190D01*
X140320Y59209D01*
X140426Y59235D01*
X140524Y59269D01*
X140614Y59310D01*
X140697Y59359D01*
X140772Y59415D01*
X140840Y59479D01*
X140900Y59550D01*
Y58050D01*
D02*
G37*
G36*
X132960Y59479D02*
X133028Y59415D01*
X133103Y59359D01*
X133186Y59310D01*
X133276Y59269D01*
X133374Y59235D01*
X133480Y59209D01*
X133593Y59190D01*
X133714Y59179D01*
X133842Y59175D01*
Y58425D01*
X133714Y58421D01*
X133593Y58410D01*
X133480Y58391D01*
X133374Y58365D01*
X133276Y58331D01*
X133186Y58290D01*
X133103Y58241D01*
X133028Y58185D01*
X132960Y58121D01*
X132900Y58050D01*
Y59550D01*
X132960Y59479D01*
D02*
G37*
G36*
X123539Y74908D02*
X123450Y74815D01*
X123373Y74721D01*
X123306Y74628D01*
X123250Y74535D01*
X123205Y74442D01*
X123170Y74349D01*
X123146Y74255D01*
X123132Y74163D01*
X123130Y74070D01*
X123137Y73977D01*
X122077Y75037D01*
X122170Y75030D01*
X122262Y75032D01*
X122355Y75046D01*
X122449Y75070D01*
X122542Y75105D01*
X122635Y75150D01*
X122728Y75206D01*
X122821Y75273D01*
X122915Y75350D01*
X123008Y75439D01*
X123539Y74908D01*
D02*
G37*
G36*
X126800Y78300D02*
X126672Y78293D01*
X126557Y78274D01*
X126456Y78242D01*
X126368Y78196D01*
X126294Y78137D01*
X126233Y78066D01*
X126186Y77982D01*
X126152Y77884D01*
X126132Y77773D01*
X126125Y77650D01*
X125375Y77829D01*
X125319Y79563D01*
X126800Y78300D01*
D02*
G37*
G36*
X133329Y74251D02*
X133374Y74235D01*
X133480Y74209D01*
X133593Y74190D01*
X133714Y74179D01*
X133842Y74175D01*
Y73425D01*
X133714Y73421D01*
X133593Y73410D01*
X133480Y73391D01*
X133374Y73365D01*
X133329Y73349D01*
Y72750D01*
X133197Y72878D01*
X132937Y73093D01*
X132900Y73050D01*
Y73118D01*
X132806Y73182D01*
X132678Y73256D01*
X132550Y73317D01*
X132423Y73364D01*
X132297Y73398D01*
X132172Y73418D01*
X132048Y73425D01*
Y74175D01*
X132172Y74182D01*
X132297Y74202D01*
X132423Y74236D01*
X132550Y74283D01*
X132678Y74344D01*
X132806Y74418D01*
X132900Y74482D01*
Y74550D01*
X132937Y74507D01*
X133066Y74607D01*
X133197Y74722D01*
X133329Y74850D01*
Y74251D01*
D02*
G37*
G36*
X137960Y74479D02*
X138028Y74415D01*
X138103Y74359D01*
X138186Y74310D01*
X138276Y74269D01*
X138374Y74235D01*
X138480Y74209D01*
X138593Y74190D01*
X138714Y74179D01*
X138842Y74175D01*
Y73425D01*
X138714Y73421D01*
X138593Y73410D01*
X138480Y73391D01*
X138374Y73365D01*
X138276Y73331D01*
X138186Y73290D01*
X138103Y73241D01*
X138028Y73185D01*
X137960Y73121D01*
X137900Y73050D01*
Y74550D01*
X137960Y74479D01*
D02*
G37*
G36*
X140900Y73050D02*
X140840Y73121D01*
X140772Y73185D01*
X140697Y73241D01*
X140614Y73290D01*
X140524Y73331D01*
X140426Y73365D01*
X140320Y73391D01*
X140207Y73410D01*
X140086Y73421D01*
X139958Y73425D01*
Y74175D01*
X140086Y74179D01*
X140207Y74190D01*
X140320Y74209D01*
X140426Y74235D01*
X140524Y74269D01*
X140614Y74310D01*
X140697Y74359D01*
X140772Y74415D01*
X140840Y74479D01*
X140900Y74550D01*
Y73050D01*
D02*
G37*
G36*
X143329Y59251D02*
X143374Y59235D01*
X143480Y59209D01*
X143593Y59190D01*
X143714Y59179D01*
X143842Y59175D01*
Y58425D01*
X143714Y58421D01*
X143593Y58410D01*
X143480Y58391D01*
X143374Y58365D01*
X143329Y58349D01*
Y57750D01*
X143197Y57878D01*
X142937Y58093D01*
X142900Y58050D01*
Y58118D01*
X142806Y58182D01*
X142678Y58256D01*
X142550Y58317D01*
X142423Y58364D01*
X142297Y58398D01*
X142172Y58418D01*
X142048Y58425D01*
Y59175D01*
X142172Y59182D01*
X142297Y59202D01*
X142423Y59236D01*
X142550Y59283D01*
X142678Y59344D01*
X142806Y59418D01*
X142900Y59482D01*
Y59550D01*
X142937Y59507D01*
X143066Y59607D01*
X143197Y59722D01*
X143329Y59850D01*
Y59251D01*
D02*
G37*
G36*
X128329D02*
X128374Y59235D01*
X128480Y59209D01*
X128593Y59190D01*
X128714Y59179D01*
X128842Y59175D01*
Y58425D01*
X128714Y58421D01*
X128593Y58410D01*
X128480Y58391D01*
X128374Y58365D01*
X128329Y58349D01*
Y57750D01*
X128197Y57878D01*
X127937Y58093D01*
X127900Y58050D01*
Y58118D01*
X127806Y58182D01*
X127678Y58256D01*
X127550Y58317D01*
X127423Y58364D01*
X127297Y58398D01*
X127172Y58418D01*
X127048Y58425D01*
Y59175D01*
X127172Y59182D01*
X127297Y59202D01*
X127423Y59236D01*
X127550Y59283D01*
X127678Y59344D01*
X127806Y59418D01*
X127900Y59482D01*
Y59550D01*
X127937Y59507D01*
X128066Y59607D01*
X128197Y59722D01*
X128329Y59850D01*
Y59251D01*
D02*
G37*
G36*
X147279Y60614D02*
X147290Y60493D01*
X147309Y60380D01*
X147335Y60274D01*
X147369Y60176D01*
X147410Y60086D01*
X147459Y60003D01*
X147515Y59928D01*
X147579Y59860D01*
X147650Y59800D01*
X146150D01*
X146221Y59860D01*
X146285Y59928D01*
X146341Y60003D01*
X146390Y60086D01*
X146431Y60176D01*
X146465Y60274D01*
X146491Y60380D01*
X146510Y60493D01*
X146521Y60614D01*
X146525Y60742D01*
X147275D01*
X147279Y60614D01*
D02*
G37*
G36*
X127960Y74479D02*
X128028Y74415D01*
X128103Y74359D01*
X128186Y74310D01*
X128276Y74269D01*
X128374Y74235D01*
X128480Y74209D01*
X128593Y74190D01*
X128714Y74179D01*
X128842Y74175D01*
Y73425D01*
X128714Y73421D01*
X128593Y73410D01*
X128480Y73391D01*
X128374Y73365D01*
X128276Y73331D01*
X128186Y73290D01*
X128103Y73241D01*
X128028Y73185D01*
X127960Y73121D01*
X127900Y73050D01*
Y74550D01*
X127960Y74479D01*
D02*
G37*
G36*
X152279Y60614D02*
X152290Y60493D01*
X152309Y60380D01*
X152335Y60274D01*
X152369Y60176D01*
X152410Y60086D01*
X152459Y60003D01*
X152515Y59928D01*
X152579Y59860D01*
X152650Y59800D01*
X151150D01*
X151221Y59860D01*
X151285Y59928D01*
X151341Y60003D01*
X151390Y60086D01*
X151431Y60176D01*
X151465Y60274D01*
X151491Y60380D01*
X151510Y60493D01*
X151521Y60614D01*
X151525Y60742D01*
X152275D01*
X152279Y60614D01*
D02*
G37*
G36*
X147960Y59479D02*
X148028Y59415D01*
X148103Y59359D01*
X148186Y59310D01*
X148276Y59269D01*
X148374Y59235D01*
X148480Y59209D01*
X148593Y59190D01*
X148714Y59179D01*
X148842Y59175D01*
Y58425D01*
X148714Y58421D01*
X148593Y58410D01*
X148480Y58391D01*
X148374Y58365D01*
X148276Y58331D01*
X148186Y58290D01*
X148103Y58241D01*
X148028Y58185D01*
X147960Y58121D01*
X147900Y58050D01*
Y59550D01*
X147960Y59479D01*
D02*
G37*
G36*
X145603Y59722D02*
X145863Y59507D01*
X145900Y59550D01*
Y59482D01*
X145994Y59418D01*
X146122Y59344D01*
X146250Y59283D01*
X146377Y59236D01*
X146503Y59202D01*
X146628Y59182D01*
X146752Y59175D01*
Y58425D01*
X146628Y58418D01*
X146503Y58398D01*
X146377Y58364D01*
X146250Y58317D01*
X146122Y58256D01*
X145994Y58182D01*
X145900Y58118D01*
Y58050D01*
X145863Y58094D01*
X145734Y57993D01*
X145603Y57878D01*
X145471Y57750D01*
Y58349D01*
X145426Y58365D01*
X145320Y58391D01*
X145207Y58410D01*
X145086Y58421D01*
X144958Y58425D01*
Y59175D01*
X145086Y59179D01*
X145207Y59190D01*
X145320Y59209D01*
X145426Y59235D01*
X145471Y59251D01*
Y59850D01*
X145603Y59722D01*
D02*
G37*
G36*
X150900Y58050D02*
X150840Y58121D01*
X150772Y58185D01*
X150697Y58241D01*
X150614Y58290D01*
X150524Y58331D01*
X150426Y58365D01*
X150320Y58391D01*
X150207Y58410D01*
X150086Y58421D01*
X149958Y58425D01*
Y59175D01*
X150086Y59179D01*
X150207Y59190D01*
X150320Y59209D01*
X150426Y59235D01*
X150524Y59269D01*
X150614Y59310D01*
X150697Y59359D01*
X150772Y59415D01*
X150840Y59479D01*
X150900Y59550D01*
Y58050D01*
D02*
G37*
G36*
X130900Y73050D02*
X130840Y73121D01*
X130772Y73185D01*
X130697Y73241D01*
X130614Y73290D01*
X130524Y73331D01*
X130426Y73365D01*
X130320Y73391D01*
X130207Y73410D01*
X130086Y73421D01*
X129958Y73425D01*
Y74175D01*
X130086Y74179D01*
X130207Y74190D01*
X130320Y74209D01*
X130426Y74235D01*
X130524Y74269D01*
X130614Y74310D01*
X130697Y74359D01*
X130772Y74415D01*
X130840Y74479D01*
X130900Y74550D01*
Y73050D01*
D02*
G37*
G36*
X135603Y74722D02*
X135863Y74507D01*
X135900Y74550D01*
Y74482D01*
X135994Y74418D01*
X136122Y74344D01*
X136250Y74283D01*
X136377Y74236D01*
X136503Y74202D01*
X136628Y74182D01*
X136752Y74175D01*
Y73425D01*
X136628Y73418D01*
X136503Y73398D01*
X136377Y73364D01*
X136250Y73317D01*
X136122Y73256D01*
X135994Y73182D01*
X135900Y73118D01*
Y73050D01*
X135863Y73094D01*
X135734Y72993D01*
X135603Y72878D01*
X135471Y72750D01*
Y73349D01*
X135426Y73365D01*
X135320Y73391D01*
X135207Y73410D01*
X135086Y73421D01*
X134958Y73425D01*
Y74175D01*
X135086Y74179D01*
X135207Y74190D01*
X135320Y74209D01*
X135426Y74235D01*
X135471Y74251D01*
Y74850D01*
X135603Y74722D01*
D02*
G37*
D10*
X171900Y38800D02*
D03*
Y33800D02*
D03*
Y28800D02*
D03*
X176900D02*
D03*
X91900Y13800D02*
D03*
Y23800D02*
D03*
Y28800D02*
D03*
Y33800D02*
D03*
Y38800D02*
D03*
Y43800D02*
D03*
Y48800D02*
D03*
Y53800D02*
D03*
Y58800D02*
D03*
Y63800D02*
D03*
Y68800D02*
D03*
Y73800D02*
D03*
Y78800D02*
D03*
Y83800D02*
D03*
Y88800D02*
D03*
Y93800D02*
D03*
Y98800D02*
D03*
Y103800D02*
D03*
X96900Y13800D02*
D03*
Y23800D02*
D03*
Y33800D02*
D03*
Y38800D02*
D03*
Y43800D02*
D03*
Y48800D02*
D03*
Y53800D02*
D03*
Y58800D02*
D03*
Y63800D02*
D03*
Y68800D02*
D03*
Y73800D02*
D03*
Y78800D02*
D03*
Y83800D02*
D03*
Y88800D02*
D03*
Y93800D02*
D03*
Y98800D02*
D03*
Y103800D02*
D03*
X101900Y13800D02*
D03*
Y18800D02*
D03*
Y23800D02*
D03*
Y28800D02*
D03*
Y33800D02*
D03*
Y38800D02*
D03*
Y43800D02*
D03*
Y48800D02*
D03*
Y53800D02*
D03*
Y58800D02*
D03*
Y63800D02*
D03*
Y68800D02*
D03*
Y73800D02*
D03*
Y78800D02*
D03*
Y83800D02*
D03*
Y88800D02*
D03*
Y93800D02*
D03*
Y98800D02*
D03*
Y103800D02*
D03*
X106900Y23800D02*
D03*
Y93800D02*
D03*
Y98800D02*
D03*
Y103800D02*
D03*
X111900Y13800D02*
D03*
Y18800D02*
D03*
Y23800D02*
D03*
Y93800D02*
D03*
Y98800D02*
D03*
Y103800D02*
D03*
X116900Y13800D02*
D03*
Y18800D02*
D03*
Y23800D02*
D03*
Y93800D02*
D03*
Y98800D02*
D03*
Y103800D02*
D03*
X121900Y13800D02*
D03*
Y18800D02*
D03*
Y23800D02*
D03*
Y43800D02*
D03*
Y48800D02*
D03*
Y53800D02*
D03*
Y58800D02*
D03*
Y63800D02*
D03*
Y68800D02*
D03*
Y73800D02*
D03*
Y93800D02*
D03*
Y98800D02*
D03*
Y103800D02*
D03*
X126900Y13800D02*
D03*
Y18800D02*
D03*
Y23800D02*
D03*
Y43800D02*
D03*
Y48800D02*
D03*
Y53800D02*
D03*
Y58800D02*
D03*
Y63800D02*
D03*
Y68800D02*
D03*
Y73800D02*
D03*
Y93800D02*
D03*
Y98800D02*
D03*
Y103800D02*
D03*
X131900Y13800D02*
D03*
Y18800D02*
D03*
Y23800D02*
D03*
Y43800D02*
D03*
Y48800D02*
D03*
Y53800D02*
D03*
Y58800D02*
D03*
Y63800D02*
D03*
Y68800D02*
D03*
Y73800D02*
D03*
Y93800D02*
D03*
Y98800D02*
D03*
Y103800D02*
D03*
X136900Y13800D02*
D03*
Y18800D02*
D03*
Y23800D02*
D03*
Y43800D02*
D03*
Y48800D02*
D03*
Y68800D02*
D03*
Y73800D02*
D03*
Y93800D02*
D03*
Y98800D02*
D03*
Y103800D02*
D03*
X141900Y13800D02*
D03*
Y18800D02*
D03*
Y23800D02*
D03*
Y43800D02*
D03*
Y48800D02*
D03*
Y53800D02*
D03*
Y58800D02*
D03*
Y63800D02*
D03*
Y68800D02*
D03*
Y73800D02*
D03*
Y93800D02*
D03*
Y98800D02*
D03*
Y103800D02*
D03*
X146900Y13800D02*
D03*
Y18800D02*
D03*
Y23800D02*
D03*
Y43800D02*
D03*
Y48800D02*
D03*
Y53800D02*
D03*
Y58800D02*
D03*
Y63800D02*
D03*
Y68800D02*
D03*
Y73800D02*
D03*
Y93800D02*
D03*
Y98800D02*
D03*
Y103800D02*
D03*
X151900Y13800D02*
D03*
Y18800D02*
D03*
Y23800D02*
D03*
Y43800D02*
D03*
Y48800D02*
D03*
Y53800D02*
D03*
Y58800D02*
D03*
Y63800D02*
D03*
Y68800D02*
D03*
Y73800D02*
D03*
Y93800D02*
D03*
Y98800D02*
D03*
Y103800D02*
D03*
X156900Y13800D02*
D03*
Y18800D02*
D03*
Y23800D02*
D03*
Y93800D02*
D03*
Y98800D02*
D03*
Y103800D02*
D03*
X161900Y13800D02*
D03*
Y18800D02*
D03*
Y23800D02*
D03*
Y93800D02*
D03*
Y98800D02*
D03*
Y103800D02*
D03*
X166900Y13800D02*
D03*
Y18800D02*
D03*
Y23800D02*
D03*
Y93800D02*
D03*
Y98800D02*
D03*
Y103800D02*
D03*
X171900Y13800D02*
D03*
Y18800D02*
D03*
Y23800D02*
D03*
Y43800D02*
D03*
Y48800D02*
D03*
Y53800D02*
D03*
Y58800D02*
D03*
Y63800D02*
D03*
Y68800D02*
D03*
Y73800D02*
D03*
Y78800D02*
D03*
Y83800D02*
D03*
Y88800D02*
D03*
Y93800D02*
D03*
Y98800D02*
D03*
Y103800D02*
D03*
X176900Y13800D02*
D03*
Y18800D02*
D03*
Y23800D02*
D03*
Y33800D02*
D03*
Y38800D02*
D03*
Y43800D02*
D03*
Y48800D02*
D03*
Y53800D02*
D03*
Y58800D02*
D03*
Y63800D02*
D03*
Y68800D02*
D03*
Y73800D02*
D03*
Y78800D02*
D03*
Y83800D02*
D03*
Y88800D02*
D03*
Y93800D02*
D03*
Y98800D02*
D03*
Y103800D02*
D03*
X181900Y13800D02*
D03*
Y18800D02*
D03*
Y23800D02*
D03*
Y28800D02*
D03*
Y33800D02*
D03*
Y38800D02*
D03*
Y43800D02*
D03*
Y48800D02*
D03*
Y53800D02*
D03*
Y58800D02*
D03*
Y63800D02*
D03*
Y68800D02*
D03*
Y73800D02*
D03*
Y78800D02*
D03*
Y83800D02*
D03*
Y88800D02*
D03*
Y93800D02*
D03*
Y98800D02*
D03*
Y103800D02*
D03*
X91900Y18800D02*
D03*
X96900D02*
D03*
X106900D02*
D03*
Y13800D02*
D03*
X96900Y28800D02*
D03*
D11*
X-39000Y23000D02*
D03*
Y34000D02*
D03*
Y45000D02*
D03*
Y67000D02*
D03*
Y89000D02*
D03*
Y100000D02*
D03*
D12*
X-40500Y56000D02*
D03*
Y78000D02*
D03*
D13*
X191000Y17400D02*
D03*
Y23400D02*
D03*
Y29400D02*
D03*
Y35400D02*
D03*
Y41400D02*
D03*
Y47400D02*
D03*
Y53400D02*
D03*
Y59400D02*
D03*
Y65400D02*
D03*
Y71400D02*
D03*
D14*
X204750Y7900D02*
D03*
Y80900D02*
D03*
D15*
X154450Y4800D02*
D03*
X148750D02*
D03*
X179750Y4600D02*
D03*
X185450D02*
D03*
X168550D02*
D03*
X174250D02*
D03*
X91250Y4800D02*
D03*
X85550D02*
D03*
D16*
X197400Y23300D02*
X200320Y26220D01*
X197200Y29500D02*
X198810Y31110D01*
Y54233D01*
X200320Y26220D02*
Y53641D01*
X197290Y54882D02*
X200780Y58372D01*
X197290Y53617D02*
Y54882D01*
X193965Y74535D02*
X200780Y67720D01*
Y58372D02*
Y67720D01*
X194546Y76175D02*
X202290Y68431D01*
Y57747D02*
Y68431D01*
X198810Y54267D02*
X202290Y57747D01*
X198810Y54253D02*
Y54267D01*
X198800Y54243D02*
X198810Y54253D01*
X200320Y53641D02*
X203800Y57121D01*
X198800Y54243D02*
X198810Y54233D01*
X197290Y53617D02*
X197300Y53607D01*
Y36800D02*
Y53607D01*
X181900Y74535D02*
X193965D01*
X203800Y57121D02*
Y69043D01*
X205320Y56506D02*
Y70180D01*
X203300Y54486D02*
X205320Y56506D01*
X203300Y23600D02*
Y54486D01*
X194315Y81185D02*
X205320Y70180D01*
X197350Y17650D02*
X203300Y23600D01*
X179285Y81185D02*
X194315D01*
X176900Y78800D02*
X179285Y81185D01*
X203810Y69043D02*
Y69047D01*
X194857Y78000D02*
X203810Y69047D01*
X184679Y78000D02*
X194857D01*
X181900Y73800D02*
Y74535D01*
X180912Y76185D02*
X194450D01*
X178541Y73814D02*
X180912Y76185D01*
X178541Y73800D02*
Y73814D01*
X195100Y11500D02*
X197200Y13600D01*
X184200Y11500D02*
X195100D01*
X154515Y10215D02*
Y14788D01*
X156900Y17173D01*
Y18800D01*
X154515Y22812D02*
Y29185D01*
Y22812D02*
X156900Y20427D01*
Y18800D02*
Y20427D01*
X182898Y61175D02*
X184375D01*
X182888Y61185D02*
X182898Y61175D01*
X180785Y61185D02*
X182888D01*
X179500Y59900D02*
X180785Y61185D01*
X174515D02*
Y66415D01*
X163100Y69300D02*
X164300Y70500D01*
X163100Y49700D02*
Y69300D01*
Y49700D02*
X164900Y47900D01*
X183879Y78800D02*
X184679Y78000D01*
X181900Y78800D02*
X183879D01*
X196100Y35600D02*
X197300Y36800D01*
X169424Y86200D02*
X192900D01*
X164990Y81766D02*
X169424Y86200D01*
X124275Y94798D02*
Y96425D01*
Y94798D02*
X124285Y94788D01*
Y92812D02*
Y94788D01*
X124275Y92802D02*
X124285Y92812D01*
X124275Y92375D02*
Y92802D01*
X121469Y89569D02*
X124275Y92375D01*
X129515Y103042D02*
Y105315D01*
X127888Y101415D02*
X129515Y103042D01*
X104935Y101415D02*
X127888D01*
X104925Y101425D02*
X104935Y101415D01*
X83100Y36245D02*
Y63900D01*
X-18800Y27800D02*
X74655D01*
X83100Y36245D01*
X74900Y30400D02*
X81300Y36800D01*
X81300Y78300D02*
X81300Y36800D01*
X81300Y78300D02*
X85147Y82147D01*
X83100Y63900D02*
X90500Y71300D01*
X98500D01*
X90912Y81415D02*
X94515D01*
X90181Y82147D02*
X90912Y81415D01*
X85147Y82147D02*
X90181D01*
X94515Y81415D02*
X96900Y83800D01*
X99500Y86400D02*
X101900Y88800D01*
X84400Y86400D02*
X99500D01*
X83100Y85100D02*
X84400Y86400D01*
X92898Y96175D02*
X94525D01*
X92888Y96185D02*
X92898Y96175D01*
X90912Y96185D02*
X92888D01*
X90902Y96175D02*
X90912Y96185D01*
X86025Y96175D02*
X90902D01*
X94525D02*
X96900Y93800D01*
X129300Y90300D02*
Y96400D01*
X126900Y98800D02*
X129300Y96400D01*
X122894Y86694D02*
X125500Y89300D01*
X117406Y86694D02*
X122894D01*
X115500Y88600D02*
X117406Y86694D01*
X115500Y88600D02*
Y92400D01*
X116900Y93800D01*
X106900Y103800D02*
Y106400D01*
X131800Y107600D02*
X187200D01*
X129515Y105315D02*
X131800Y107600D01*
X104300Y100800D02*
X104925Y101425D01*
X104300Y96200D02*
Y100800D01*
X119526Y89569D02*
X121469D01*
X121900Y98800D02*
X124275Y96425D01*
X108500Y97200D02*
X108500D01*
X106900Y98800D02*
X108500Y97200D01*
X116900Y98800D02*
X118700Y97000D01*
X187200Y107600D02*
X194500Y100300D01*
X166900Y28800D02*
X171900D01*
X160300Y20400D02*
X161900Y18800D01*
X159700Y21000D02*
X160300Y20400D01*
X157800Y36300D02*
X162830D01*
X165330Y33800D01*
X171900D01*
X165500Y20200D02*
X166900Y18800D01*
X183250Y22450D02*
X183500D01*
X181900Y23800D02*
X183250Y22450D01*
X175100Y20600D02*
X176900Y18800D01*
X100200Y65500D02*
X101900Y63800D01*
X135800Y102700D02*
X136900Y103800D01*
X140800Y102700D02*
X141900Y103800D01*
X170600Y97200D02*
Y97500D01*
X171900Y98800D01*
X169700Y96600D02*
Y101000D01*
X166900Y103800D02*
X169700Y101000D01*
X164990Y76810D02*
Y81766D01*
Y76810D02*
X169400Y72400D01*
Y66300D02*
Y72400D01*
X167865Y77835D02*
Y80575D01*
Y77835D02*
X171900Y73800D01*
X192500Y65400D02*
X192700D01*
X169400Y66300D02*
X171900Y63800D01*
X183800Y35700D02*
X184400D01*
X181900Y33800D02*
X183800Y35700D01*
X173900Y10600D02*
Y11800D01*
X171900Y13800D02*
X173900Y11800D01*
X151900Y93800D02*
X153600Y95500D01*
X145700Y91300D02*
Y92600D01*
X146900Y93800D01*
X154925Y68609D02*
X159644Y63890D01*
Y47951D02*
Y63890D01*
X154925Y75825D02*
X156200Y77100D01*
X154925Y68609D02*
Y75825D01*
X171000Y47900D02*
X171900Y48800D01*
X164900Y47900D02*
X171000D01*
X164300Y46200D02*
X174500D01*
X161300Y49200D02*
X164300Y46200D01*
X161300Y49200D02*
Y66300D01*
X163795Y43800D02*
X171900D01*
X159644Y47951D02*
X163795Y43800D01*
X194500Y92700D02*
X200900Y86300D01*
X194500Y92700D02*
Y100300D01*
X101900Y93800D02*
X104300Y96200D01*
X104000Y81900D02*
X106400Y84300D01*
X104000Y80900D02*
Y81900D01*
X101900Y78800D02*
X104000Y80900D01*
X121900Y48800D02*
X124400D01*
X116800D02*
X121900D01*
X99800Y51400D02*
X114200D01*
X116800Y48800D01*
X157800Y69800D02*
X161300Y66300D01*
X-23600Y23000D02*
X-18800Y27800D01*
X-39000Y23000D02*
X-23600D01*
X-18900Y30400D02*
X74900D01*
X-22500Y34000D02*
X-18900Y30400D01*
X-39000Y34000D02*
X-22500D01*
X181900Y13800D02*
X184200Y11500D01*
X192750Y17650D02*
X197350D01*
X191000Y15900D02*
X192750Y17650D01*
X191000Y15900D02*
X191000D01*
X192400Y23300D02*
X197400D01*
X191000Y21900D02*
X192400Y23300D01*
X192600Y29500D02*
X197200D01*
X191000Y27900D02*
X192600Y29500D01*
X192700Y35600D02*
X196100D01*
X191000Y33900D02*
X192700Y35600D01*
X189600Y41300D02*
X191000Y39900D01*
X117500Y41300D02*
X189600D01*
X189400Y47500D02*
X191000Y45900D01*
X185200Y47500D02*
X189400D01*
X183900Y48800D02*
X185200Y47500D01*
X189100Y53800D02*
X191000Y51900D01*
X181900Y53800D02*
X189100D01*
X189500Y59400D02*
X191000Y57900D01*
X186900Y59400D02*
X189500D01*
X185200Y57700D02*
X186900Y59400D01*
X183000Y57700D02*
X185200D01*
X191000Y63900D02*
X192500Y65400D01*
X184700Y71400D02*
X189500D01*
X191000Y69900D01*
X179900Y70800D02*
X181900Y68800D01*
X179700Y71000D02*
X179900Y70800D01*
X184100D02*
X184700Y71400D01*
X179900Y70800D02*
X184100D01*
X181900Y73800D02*
X182625Y74525D01*
X136900Y53800D02*
X141900D01*
X131900D02*
X136900D01*
X146900D02*
X151900D01*
X159300Y91200D02*
X161900Y93800D01*
X147700Y91200D02*
X159300D01*
X146900Y92000D02*
X147700Y91200D01*
X181900Y63800D02*
Y68800D01*
X176900Y63800D02*
X181900D01*
X171900Y58800D02*
X171900D01*
X171900Y73800D02*
X176900Y68800D01*
X96900D02*
X101900D01*
X96900Y63800D02*
Y68800D01*
X116900Y13800D02*
X121900D01*
X91700Y89000D02*
X91900Y88800D01*
X99500Y81400D02*
X101900Y83800D01*
X99500Y72300D02*
Y81400D01*
X121900Y58800D02*
X126900D01*
X131900D02*
X141900D01*
X146900D02*
Y63800D01*
X151900Y58800D02*
Y63800D01*
X126900Y73800D02*
X131900D01*
X136900D02*
X141900D01*
X136900Y68800D02*
X141900D01*
X146900D01*
X121900Y63800D02*
X126900D01*
X131900D01*
X146900Y73800D02*
X151900D01*
X141900Y53800D02*
X146900D01*
X141900Y48800D02*
Y53800D01*
X126900Y48800D02*
X131900D01*
X136900D01*
X141900D01*
X126900Y43800D02*
Y48800D01*
X91900Y53800D02*
X96900D01*
Y23800D02*
X101900D01*
X106900D01*
X111900D01*
Y23800D02*
Y23800D01*
X101900Y18800D02*
Y23800D01*
X131900Y63800D02*
Y68800D01*
X111900Y93800D02*
Y98800D01*
X96900Y103800D02*
X96900D01*
X136900Y68800D02*
Y73800D01*
X91900Y103800D02*
Y106400D01*
X101900Y103800D02*
Y106400D01*
X146900Y58800D02*
X151900D01*
Y68800D02*
Y73800D01*
X131900Y63800D02*
X139500D01*
X141900D01*
Y68800D02*
Y73800D01*
X126900Y58800D02*
X129400D01*
X131900D01*
X126900Y63800D02*
Y66300D01*
Y68800D01*
X121900D02*
X126900Y73800D01*
X176900Y53800D02*
Y58800D01*
X131900Y73800D02*
X134400D01*
X136900D01*
X91900Y63800D02*
X96900D01*
X91900Y73800D02*
X96900D01*
X146900Y92000D02*
Y93800D01*
X91900Y23800D02*
X96900D01*
X91900Y18800D02*
Y23800D01*
Y43800D02*
X96900D01*
X101900D01*
X91900Y33800D02*
X96900D01*
X101900D01*
X86700Y63800D02*
X91900D01*
X86000Y63100D02*
X86700Y63800D01*
X86000Y62000D02*
Y63100D01*
X91900Y13800D02*
Y18800D01*
X96900Y53800D02*
X101900Y58800D01*
Y73800D02*
X109100D01*
X113400Y69500D01*
Y64950D02*
Y69500D01*
X96900Y103800D02*
X101900Y98800D01*
X181900Y48800D02*
X183900D01*
X176900Y13800D02*
X179100Y11600D01*
X174700Y36600D02*
X176900Y38800D01*
X174515Y61185D02*
X176900Y58800D01*
X174515Y66415D02*
X176900Y68800D01*
X149150Y76550D02*
X151900Y73800D01*
Y43800D02*
Y48800D01*
X181900Y58800D02*
X183000Y57700D01*
X179500Y46200D02*
X181900Y43800D01*
X179500Y46200D02*
Y59900D01*
X184375Y61175D02*
X184600Y61400D01*
X174500Y46200D02*
X176900Y43800D01*
X171900Y53800D02*
Y58800D01*
X176600Y48800D02*
X176900D01*
X174000Y51400D02*
X176600Y48800D01*
X166100Y51400D02*
X174000D01*
X169000Y58800D02*
X171900D01*
X167500Y60300D02*
X169000Y58800D01*
X168600Y38800D02*
X171900D01*
X166500Y36700D02*
X168600Y38800D01*
X161900Y23800D02*
Y26400D01*
X160200Y28100D02*
X161900Y26400D01*
X159700Y28100D02*
X160200D01*
X146900Y48800D02*
X149400D01*
X151900D01*
X101900Y33800D02*
Y38800D01*
X176900Y73800D02*
X178541D01*
X179050Y4700D02*
X179100Y4750D01*
X174250Y5800D02*
X179100D01*
X179750D01*
X179100Y4750D02*
Y5800D01*
Y11600D01*
X165200Y5800D02*
X168550D01*
X158300Y6000D02*
X161900Y9600D01*
Y13800D01*
X143700Y5200D02*
X144500Y6000D01*
X169700Y96600D02*
X174700D01*
X176900Y98800D01*
X86200Y73800D02*
X91900D01*
X101900Y53800D02*
X105800D01*
X113400Y61400D01*
Y64950D01*
X101900Y48800D02*
X110000D01*
X117500Y41300D01*
X98500Y71300D02*
X99500Y72300D01*
X96900Y73800D02*
Y78800D01*
X86900D02*
X91900D01*
X87300Y98800D02*
X91900D01*
X85400Y100700D02*
X87300Y98800D01*
X116900Y13800D02*
Y16300D01*
Y18800D01*
X80900Y4800D02*
X85550D01*
X144500Y6000D02*
X148750D01*
X185450Y5800D02*
X190000D01*
X91650Y93550D02*
X91900Y93800D01*
X141900Y58800D02*
X144400D01*
X146900D01*
X101900Y28800D02*
Y33800D01*
Y23800D02*
Y28800D01*
Y38800D02*
Y41300D01*
Y43800D01*
X-39000Y100000D02*
X-24000D01*
X-15900Y91900D01*
X87100D01*
X88750Y93550D01*
X91650D01*
X-17500Y48700D02*
X49100D01*
X-21200Y45000D02*
X-17500Y48700D01*
X-39000Y45000D02*
X-21200D01*
X-39000Y67000D02*
X-21300D01*
X-17000Y62700D01*
X40700D01*
X154450Y6000D02*
X158300D01*
X91900Y13800D02*
X96900D01*
X101900D01*
X106900D01*
X111900D01*
X116900D01*
X87000Y23800D02*
X91900D01*
X86300Y24500D02*
X87000Y23800D01*
X87900Y18800D02*
X91900D01*
X87700Y19000D02*
X87900Y18800D01*
X89500Y13800D02*
X91900D01*
X86500Y16800D02*
X89500Y13800D01*
X91900Y18800D02*
X96900D01*
X101900D01*
Y13800D02*
Y18800D01*
X164000Y39200D02*
X166500Y36700D01*
X127000Y39200D02*
X164000D01*
X124300Y36500D02*
X127000Y39200D01*
X113600Y36500D02*
X124300D01*
X108800Y41300D02*
X113600Y36500D01*
X101900Y41300D02*
X108800D01*
X86000Y55200D02*
Y62000D01*
Y55200D02*
X87400Y53800D01*
X91900D01*
X87700Y48500D02*
X88000Y48800D01*
X91900D01*
X96900D01*
X87100Y43800D02*
X91900D01*
X86900Y44000D02*
X87100Y43800D01*
X91900Y38800D02*
X96900D01*
X91100D02*
X91900D01*
X88500Y41400D02*
X91100Y38800D01*
X85400Y28300D02*
X85900Y28800D01*
X91900D01*
X96900D01*
X101900D01*
X96900Y13800D02*
Y18800D01*
Y23800D01*
Y28800D01*
Y33800D01*
Y38800D01*
Y43800D01*
Y48800D01*
Y53800D01*
X106900Y13800D02*
Y18800D01*
Y23800D01*
X101900Y18800D02*
X106900D01*
X111900D01*
X116900D01*
X111900Y23800D02*
X116900D01*
Y18800D02*
Y23800D01*
X131900Y48800D02*
Y53800D01*
X121900D02*
X126900D01*
X131900D01*
X126900Y48800D02*
Y53800D01*
X124400Y48800D02*
X126900D01*
X121900Y43800D02*
X126900D01*
X121900D02*
Y48800D01*
Y53800D01*
X116900Y23800D02*
Y29100D01*
X124300Y36500D01*
X49100Y48700D02*
X84200Y83800D01*
X91900D01*
X63100Y85100D02*
X83100D01*
X40700Y62700D02*
X63100Y85100D01*
X86900Y89900D02*
X87800Y89000D01*
X91700D01*
X-39000D02*
X-22300D01*
X-21400Y89900D01*
X86900D01*
X87700Y58500D02*
X88000Y58800D01*
X91900D01*
X96900D01*
Y63800D01*
Y58800D02*
X101900D01*
X96900Y53800D02*
Y58800D01*
X81999Y16001D02*
Y18401D01*
Y16001D02*
X91250Y6750D01*
Y4800D02*
Y6750D01*
X121900Y73800D02*
X125750Y77650D01*
Y78750D01*
X126800Y79800D01*
D17*
X192700Y65400D02*
X197500Y60600D01*
D18*
X-40500Y78000D02*
X-18600D01*
X-40500Y56000D02*
X46800D01*
X65500Y74700D01*
Y80000D01*
D19*
X203700Y-0D02*
G03*
X211700Y8000I0J8000D01*
G01*
X-64000Y21000D02*
G03*
X-56000Y13000I8000J0D01*
G01*
Y110000D02*
G03*
X-64000Y102000I0J-8000D01*
G01*
X211700D02*
G03*
X203700Y110000I-8000J0D01*
G01*
X15100Y-0D02*
Y7200D01*
X34200Y-0D02*
X203700D01*
X27000Y7200D02*
X34200Y-0D01*
X0D02*
X15100D01*
X-13000Y13000D02*
X0Y0D01*
X-56000Y110000D02*
X203700D01*
X-64000Y21000D02*
Y102000D01*
X15100Y7200D02*
X27000D01*
X-56000Y13000D02*
X-13000D01*
X211700Y8000D02*
Y102000D01*
D20*
X106900Y106400D02*
D03*
X119526Y89569D02*
D03*
X114400Y104700D02*
D03*
X108500Y97200D02*
D03*
X118300Y97300D02*
D03*
X170500Y20200D02*
D03*
X166900Y28800D02*
D03*
X160300Y20400D02*
D03*
X165500Y20200D02*
D03*
X183500Y22450D02*
D03*
X175300Y20400D02*
D03*
X100400Y65300D02*
D03*
X98400Y102300D02*
D03*
X135600Y102500D02*
D03*
X140600D02*
D03*
X170600Y97400D02*
D03*
X167865Y80575D02*
D03*
X184400Y35700D02*
D03*
X179100Y10900D02*
D03*
X173900Y10600D02*
D03*
X153500Y95400D02*
D03*
X145700Y91300D02*
D03*
X123400Y70300D02*
D03*
X118600Y71900D02*
D03*
X126800Y79800D02*
D03*
X139400Y48800D02*
D03*
X136900Y53800D02*
D03*
X139500Y63800D02*
D03*
X101900Y26500D02*
D03*
X91900Y106400D02*
D03*
X101900D02*
D03*
X125500Y89300D02*
D03*
X-22600Y78000D02*
D03*
X-18600D02*
D03*
X129400Y58800D02*
D03*
X126900Y66300D02*
D03*
X113400Y64950D02*
D03*
X134400Y73800D02*
D03*
X106400Y84300D02*
D03*
X65500Y80000D02*
D03*
Y74700D02*
D03*
X86000Y62000D02*
D03*
X175300Y37200D02*
D03*
X180300Y70400D02*
D03*
X149150Y76550D02*
D03*
X184800Y61400D02*
D03*
X164300Y70500D02*
D03*
X157800Y69800D02*
D03*
X156200Y77000D02*
D03*
X166100Y51400D02*
D03*
X167200Y60600D02*
D03*
X157800Y36300D02*
D03*
X166500Y36700D02*
D03*
X159700Y28100D02*
D03*
X197200Y13600D02*
D03*
X149400Y48800D02*
D03*
X151250Y30250D02*
D03*
X197500Y60600D02*
D03*
X190000Y5800D02*
D03*
X165200D02*
D03*
X158300Y6000D02*
D03*
X143500Y5000D02*
D03*
X124400Y48800D02*
D03*
X144400Y58800D02*
D03*
X86200Y73800D02*
D03*
X81999Y18401D02*
D03*
X86200Y78800D02*
D03*
X86025Y96175D02*
D03*
X85400Y100700D02*
D03*
X116900Y16300D02*
D03*
X80900Y4800D02*
D03*
X122000Y27600D02*
D03*
X88900Y36500D02*
D03*
X192900Y86000D02*
D03*
X200900Y86600D02*
D03*
X188200Y95100D02*
D03*
X197900Y100100D02*
D03*
X124300Y36500D02*
D03*
X102200Y41300D02*
D03*
X73900Y37700D02*
D03*
X73500Y98800D02*
D03*
X73900Y65100D02*
D03*
X55300Y84400D02*
D03*
X69500Y6200D02*
D03*
X-14400Y20200D02*
D03*
X-13900Y40900D02*
D03*
X-12600Y103200D02*
D03*
X117700Y55900D02*
D03*
M02*
