%FSLAX44Y44*%
%MOMM*%
G71*
G01*
G75*
G04 Layer_Physical_Order=3*
G04 Layer_Color=16440176*
%ADD10C,0.2500*%
%ADD11R,2.9000X0.8000*%
%ADD12R,3.2000X0.8000*%
%ADD13O,0.6000X0.4000*%
%ADD14O,1.0500X0.7000*%
G04:AMPARAMS|DCode=15|XSize=0.4mm|YSize=0.37mm|CornerRadius=0.037mm|HoleSize=0mm|Usage=FLASHONLY|Rotation=270.000|XOffset=0mm|YOffset=0mm|HoleType=Round|Shape=RoundedRectangle|*
%AMROUNDEDRECTD15*
21,1,0.4000,0.2960,0,0,270.0*
21,1,0.3260,0.3700,0,0,270.0*
1,1,0.0740,-0.1480,-0.1630*
1,1,0.0740,-0.1480,0.1630*
1,1,0.0740,0.1480,0.1630*
1,1,0.0740,0.1480,-0.1630*
%
%ADD15ROUNDEDRECTD15*%
%ADD16C,0.0750*%
%ADD17C,0.1500*%
%ADD18C,0.7500*%
%ADD19C,0.0100*%
%ADD20C,0.3000*%
%ADD21C,0.2000*%
G36*
X82999Y39500D02*
X82999Y39500D01*
X83019Y39120D01*
X83079Y38780D01*
X83179Y38480D01*
X83319Y38220D01*
X83499Y38000D01*
X83719Y37820D01*
X83979Y37680D01*
X84279Y37580D01*
X84619Y37520D01*
X84999Y37500D01*
Y37500D01*
X84999D01*
Y35500D01*
X84619Y35480D01*
X84279Y35420D01*
X83979Y35320D01*
X83719Y35180D01*
X83499Y35000D01*
X83319Y34780D01*
X83179Y34520D01*
X83079Y34220D01*
X83019Y33880D01*
X82999Y33500D01*
X82999Y33500D01*
Y33500D01*
X80999Y36500D01*
X82999Y39500D01*
Y39500D01*
D02*
G37*
G36*
X105329Y83250D02*
X105310Y83259D01*
X105275Y83268D01*
X105223Y83275D01*
X105068Y83287D01*
X104553Y83300D01*
X104382Y83300D01*
Y85300D01*
X105329Y85350D01*
Y83250D01*
D02*
G37*
G36*
X66540Y78910D02*
X66532Y78875D01*
X66525Y78823D01*
X66512Y78668D01*
X66501Y78153D01*
X66500Y77982D01*
X64500D01*
X64450Y78929D01*
X66550D01*
X66540Y78910D01*
D02*
G37*
G36*
X87829Y35450D02*
X87810Y35459D01*
X87775Y35468D01*
X87723Y35475D01*
X87568Y35487D01*
X87053Y35499D01*
X86882Y35500D01*
Y37500D01*
X87829Y37550D01*
Y35450D01*
D02*
G37*
G36*
X99338Y86197D02*
X99586Y86009D01*
X99852Y85843D01*
X100136Y85699D01*
X100437Y85577D01*
X100757Y85477D01*
X101095Y85400D01*
X101450Y85344D01*
X101823Y85311D01*
X102214Y85300D01*
X99800Y83300D01*
Y84300D01*
X99107Y86407D01*
X99338Y86197D01*
D02*
G37*
G36*
X66550Y75771D02*
X64450D01*
X64460Y75789D01*
X64468Y75825D01*
X64475Y75877D01*
X64488Y76032D01*
X64500Y76547D01*
X64500Y76718D01*
X66500D01*
X66550Y75771D01*
D02*
G37*
G36*
X67634Y80720D02*
X67000Y80015D01*
X65515Y81500D01*
X65535Y81506D01*
X65566Y81525D01*
X65608Y81557D01*
X65726Y81658D01*
X66098Y82014D01*
X66220Y82134D01*
X67634Y80720D01*
D02*
G37*
G36*
X143768Y6476D02*
X142030Y5298D01*
X142029Y5329D01*
X142014Y5370D01*
X141987Y5422D01*
X141946Y5483D01*
X141892Y5554D01*
X141745Y5727D01*
X141425Y6061D01*
X143221Y7093D01*
X143768Y6476D01*
D02*
G37*
G36*
X99440Y101210D02*
X99432Y101175D01*
X99424Y101123D01*
X99412Y100968D01*
X99401Y100453D01*
X99400Y100282D01*
X97400D01*
X97350Y101229D01*
X99450D01*
X99440Y101210D01*
D02*
G37*
G36*
X204399Y108211D02*
X205090Y108093D01*
X205764Y107899D01*
X206411Y107631D01*
X207025Y107292D01*
X207596Y106886D01*
X208119Y106419D01*
X208586Y105897D01*
X208992Y105325D01*
X209331Y104712D01*
X209599Y104064D01*
X209793Y103391D01*
X209910Y102700D01*
X209946Y102054D01*
X209941Y102000D01*
Y8000D01*
X209946Y7946D01*
X209910Y7300D01*
X209793Y6609D01*
X209599Y5936D01*
X209331Y5288D01*
X208992Y4675D01*
X208586Y4103D01*
X208119Y3581D01*
X207596Y3114D01*
X207025Y2708D01*
X206411Y2369D01*
X205764Y2101D01*
X205090Y1907D01*
X204399Y1789D01*
X203753Y1753D01*
X203700Y1758D01*
X145611D01*
X145041Y2869D01*
X145041Y3028D01*
X145273Y3227D01*
X145529Y3526D01*
X145734Y3862D01*
X145885Y4225D01*
X145977Y4608D01*
X146008Y5000D01*
X145977Y5392D01*
X145885Y5775D01*
X145734Y6138D01*
X145529Y6474D01*
X145273Y6773D01*
X144974Y7029D01*
X144639Y7234D01*
X144415Y7327D01*
X139571Y12171D01*
X139267Y12421D01*
X138919Y12607D01*
X138542Y12721D01*
X138150Y12760D01*
X90482D01*
X84718Y18524D01*
X84477Y18776D01*
X84476Y18793D01*
X84384Y19176D01*
X84234Y19539D01*
X84039Y19857D01*
X84009Y20426D01*
Y33493D01*
X84023Y33765D01*
X84060Y33972D01*
X84108Y34118D01*
X84161Y34216D01*
X84216Y34283D01*
X84283Y34338D01*
X84381Y34391D01*
X84528Y34440D01*
X84694Y34469D01*
X84734Y34476D01*
X85006Y34490D01*
X87064D01*
X87413Y34482D01*
X87426Y34471D01*
X87761Y34266D01*
X88125Y34115D01*
X88508Y34023D01*
X88900Y33992D01*
X89292Y34023D01*
X89675Y34115D01*
X90038Y34266D01*
X90374Y34471D01*
X90673Y34727D01*
X90929Y35026D01*
X91134Y35361D01*
X91285Y35725D01*
X91377Y36108D01*
X91408Y36500D01*
X91377Y36892D01*
X91285Y37275D01*
X91134Y37638D01*
X90929Y37974D01*
X90673Y38273D01*
X90374Y38529D01*
X90038Y38734D01*
X89675Y38885D01*
X89292Y38977D01*
X88900Y39008D01*
X88508Y38977D01*
X88125Y38885D01*
X87761Y38734D01*
X87444Y38540D01*
X86875Y38510D01*
X85006D01*
X84734Y38524D01*
X84528Y38560D01*
X84454Y38585D01*
X84381Y38609D01*
X84283Y38662D01*
X84216Y38717D01*
X84161Y38784D01*
X84108Y38882D01*
X84060Y39028D01*
X84023Y39235D01*
X84009Y39507D01*
Y42801D01*
X83970Y43193D01*
X83883Y43482D01*
X83856Y43570D01*
X83670Y43917D01*
X83420Y44222D01*
X67510Y60132D01*
Y72864D01*
X67518Y73213D01*
X67529Y73226D01*
X67734Y73562D01*
X67885Y73925D01*
X67977Y74308D01*
X68008Y74700D01*
X67977Y75092D01*
X67885Y75475D01*
X67734Y75838D01*
X67540Y76156D01*
X67510Y76725D01*
Y78164D01*
X67518Y78513D01*
X67529Y78526D01*
X67734Y78861D01*
X67885Y79225D01*
X67972Y79587D01*
X68353Y80011D01*
X70632Y82290D01*
X84775D01*
X85062Y81034D01*
X84726Y80829D01*
X84427Y80573D01*
X84171Y80274D01*
X83966Y79939D01*
X83815Y79575D01*
X83723Y79192D01*
X83692Y78800D01*
X83723Y78408D01*
X83815Y78025D01*
X83966Y77661D01*
X84171Y77326D01*
X84427Y77027D01*
X84726Y76771D01*
X85062Y76566D01*
X85425Y76415D01*
X85808Y76323D01*
X86200Y76292D01*
X86592Y76323D01*
X86975Y76415D01*
X87338Y76566D01*
X87674Y76771D01*
X87973Y77027D01*
X88229Y77326D01*
X88434Y77661D01*
X88585Y78025D01*
X88677Y78408D01*
X88708Y78800D01*
X88677Y79192D01*
X88585Y79575D01*
X88434Y79939D01*
X88229Y80274D01*
X87973Y80573D01*
X87674Y80829D01*
X87338Y81034D01*
X87625Y82290D01*
X104564D01*
X104913Y82282D01*
X104926Y82271D01*
X105261Y82066D01*
X105625Y81915D01*
X106008Y81823D01*
X106400Y81792D01*
X106792Y81823D01*
X107175Y81915D01*
X107538Y82066D01*
X107874Y82271D01*
X108173Y82527D01*
X108429Y82826D01*
X108634Y83161D01*
X108785Y83525D01*
X108877Y83908D01*
X108908Y84300D01*
X108877Y84692D01*
X108785Y85075D01*
X108634Y85438D01*
X108429Y85774D01*
X108173Y86073D01*
X107874Y86329D01*
X107538Y86534D01*
X107175Y86685D01*
X106792Y86777D01*
X106400Y86808D01*
X106008Y86777D01*
X105625Y86685D01*
X105261Y86534D01*
X104944Y86340D01*
X104375Y86310D01*
X102192D01*
X101882Y86318D01*
X101573Y86346D01*
X101285Y86391D01*
X101020Y86452D01*
X100777Y86528D01*
X100553Y86618D01*
X100410Y86691D01*
Y100464D01*
X100418Y100813D01*
X100429Y100826D01*
X100634Y101161D01*
X100785Y101525D01*
X100877Y101908D01*
X100908Y102300D01*
X100877Y102692D01*
X100785Y103075D01*
X100634Y103439D01*
X100429Y103774D01*
X100173Y104073D01*
X99874Y104329D01*
X99538Y104534D01*
X99175Y104685D01*
X98792Y104777D01*
X98400Y104808D01*
X98008Y104777D01*
X97625Y104685D01*
X97261Y104534D01*
X96926Y104329D01*
X96627Y104073D01*
X96371Y103774D01*
X96166Y103439D01*
X96015Y103075D01*
X95923Y102692D01*
X95892Y102300D01*
X95923Y101908D01*
X96015Y101525D01*
X96166Y101161D01*
X96360Y100844D01*
X96390Y100275D01*
Y86310D01*
X69800D01*
X69408Y86271D01*
X69031Y86157D01*
X68684Y85971D01*
X68379Y85721D01*
X65377Y82719D01*
X65125Y82478D01*
X65108Y82477D01*
X64725Y82385D01*
X64362Y82234D01*
X64026Y82029D01*
X63727Y81773D01*
X63471Y81474D01*
X63266Y81138D01*
X63115Y80775D01*
X63023Y80392D01*
X62992Y80000D01*
X63023Y79608D01*
X63115Y79225D01*
X63266Y78861D01*
X63460Y78544D01*
X63490Y77975D01*
Y76536D01*
X63482Y76187D01*
X63471Y76174D01*
X63266Y75838D01*
X63115Y75475D01*
X63023Y75092D01*
X62992Y74700D01*
X63023Y74308D01*
X63115Y73925D01*
X63266Y73562D01*
X63460Y73244D01*
X63490Y72675D01*
Y59300D01*
X63529Y58908D01*
X63643Y58531D01*
X63829Y58183D01*
X64079Y57879D01*
X79990Y41968D01*
Y36500D01*
Y20236D01*
X79981Y19888D01*
X79970Y19875D01*
X79765Y19539D01*
X79614Y19176D01*
X79522Y18793D01*
X79492Y18401D01*
X79522Y18009D01*
X79614Y17626D01*
X79765Y17262D01*
X79970Y16927D01*
X80226Y16628D01*
X80525Y16372D01*
X80861Y16166D01*
X81224Y16016D01*
X81587Y15929D01*
X82010Y15548D01*
X88229Y9329D01*
X88533Y9079D01*
X88881Y8893D01*
X89258Y8779D01*
X89650Y8740D01*
X137318D01*
X140737Y5321D01*
X140996Y5050D01*
X140992Y5000D01*
X141023Y4608D01*
X141115Y4225D01*
X141266Y3862D01*
X141471Y3526D01*
X141727Y3227D01*
X141959Y3028D01*
X141959Y2869D01*
X141389Y1758D01*
X83089D01*
X83028Y1843D01*
X82673Y3027D01*
X82929Y3326D01*
X83134Y3661D01*
X83285Y4025D01*
X83377Y4408D01*
X83408Y4800D01*
X83377Y5192D01*
X83285Y5575D01*
X83134Y5939D01*
X82929Y6274D01*
X82673Y6573D01*
X82374Y6829D01*
X82038Y7034D01*
X81675Y7185D01*
X81292Y7277D01*
X80900Y7308D01*
X80508Y7277D01*
X80125Y7185D01*
X79762Y7034D01*
X79426Y6829D01*
X79127Y6573D01*
X78871Y6274D01*
X78666Y5939D01*
X78515Y5575D01*
X78423Y5192D01*
X78392Y4800D01*
X78423Y4408D01*
X78515Y4025D01*
X78666Y3661D01*
X78871Y3326D01*
X79127Y3027D01*
X78772Y1843D01*
X78712Y1758D01*
X34928D01*
X28243Y8443D01*
X27977Y8662D01*
X27673Y8825D01*
X27343Y8925D01*
X27000Y8959D01*
X15100D01*
X14757Y8925D01*
X14427Y8825D01*
X14123Y8662D01*
X13857Y8443D01*
X13638Y8177D01*
X13475Y7873D01*
X13375Y7543D01*
X13342Y7200D01*
Y1758D01*
X728D01*
X-11757Y14244D01*
X-12023Y14462D01*
X-12327Y14625D01*
X-12657Y14725D01*
X-13000Y14759D01*
X-56000D01*
X-56055Y14753D01*
X-56700Y14790D01*
X-57391Y14907D01*
X-58064Y15101D01*
X-58712Y15369D01*
X-59325Y15708D01*
X-59897Y16114D01*
X-60419Y16581D01*
X-60886Y17103D01*
X-61292Y17675D01*
X-61631Y18288D01*
X-61899Y18936D01*
X-62093Y19609D01*
X-62211Y20300D01*
X-62247Y20947D01*
X-62242Y21000D01*
Y102000D01*
X-62247Y102054D01*
X-62211Y102700D01*
X-62093Y103391D01*
X-61899Y104064D01*
X-61631Y104712D01*
X-61292Y105325D01*
X-60886Y105897D01*
X-60419Y106419D01*
X-59897Y106886D01*
X-59325Y107292D01*
X-58712Y107631D01*
X-58064Y107899D01*
X-57391Y108093D01*
X-56700Y108211D01*
X-56054Y108247D01*
X-56000Y108242D01*
X103607D01*
X103812Y108105D01*
X104085Y107744D01*
X104466Y106972D01*
X104423Y106792D01*
X104392Y106400D01*
X104423Y106008D01*
X104515Y105625D01*
X104666Y105261D01*
X104871Y104926D01*
X105127Y104627D01*
X105426Y104371D01*
X105761Y104166D01*
X106125Y104015D01*
X106508Y103923D01*
X106900Y103892D01*
X107292Y103923D01*
X107675Y104015D01*
X108039Y104166D01*
X108374Y104371D01*
X108673Y104627D01*
X108929Y104926D01*
X109134Y105261D01*
X109285Y105625D01*
X109377Y106008D01*
X109408Y106400D01*
X109377Y106792D01*
X109334Y106972D01*
X109715Y107744D01*
X109987Y108105D01*
X110193Y108242D01*
X203700D01*
X203753Y108247D01*
X204399Y108211D01*
D02*
G37*
G36*
X66540Y73611D02*
X66532Y73575D01*
X66525Y73523D01*
X66512Y73368D01*
X66501Y72853D01*
X66500Y72682D01*
X64500D01*
X64450Y73629D01*
X66550D01*
X66540Y73611D01*
D02*
G37*
G36*
X83049Y19472D02*
X80949D01*
X80959Y19490D01*
X80967Y19526D01*
X80975Y19578D01*
X80987Y19733D01*
X80999Y20248D01*
X80999Y20419D01*
X82999D01*
X83049Y19472D01*
D02*
G37*
G36*
X83505Y18366D02*
X83524Y18335D01*
X83556Y18293D01*
X83657Y18175D01*
X84013Y17802D01*
X84133Y17681D01*
X82719Y16267D01*
X82014Y16901D01*
X83499Y18386D01*
X83505Y18366D01*
D02*
G37*
%LPC*%
G36*
X100400Y67808D02*
X100008Y67777D01*
X99625Y67685D01*
X99262Y67534D01*
X98926Y67329D01*
X98627Y67073D01*
X98371Y66774D01*
X98166Y66438D01*
X98015Y66075D01*
X97923Y65692D01*
X97892Y65300D01*
X97923Y64908D01*
X98015Y64525D01*
X98166Y64162D01*
X98371Y63826D01*
X98627Y63527D01*
X98926Y63271D01*
X99262Y63066D01*
X99625Y62915D01*
X100008Y62823D01*
X100400Y62792D01*
X100792Y62823D01*
X101175Y62915D01*
X101538Y63066D01*
X101874Y63271D01*
X102173Y63527D01*
X102429Y63826D01*
X102634Y64162D01*
X102785Y64525D01*
X102877Y64908D01*
X102908Y65300D01*
X102877Y65692D01*
X102785Y66075D01*
X102634Y66438D01*
X102429Y66774D01*
X102173Y67073D01*
X101874Y67329D01*
X101538Y67534D01*
X101175Y67685D01*
X100792Y67777D01*
X100400Y67808D01*
D02*
G37*
G36*
X164300Y73008D02*
X163908Y72977D01*
X163525Y72885D01*
X163162Y72734D01*
X162826Y72529D01*
X162527Y72273D01*
X162271Y71974D01*
X162066Y71638D01*
X161915Y71275D01*
X161823Y70892D01*
X161792Y70500D01*
X161823Y70108D01*
X161915Y69725D01*
X162066Y69362D01*
X162271Y69026D01*
X162527Y68727D01*
X162826Y68471D01*
X163162Y68266D01*
X163525Y68115D01*
X163908Y68023D01*
X164300Y67992D01*
X164692Y68023D01*
X165075Y68115D01*
X165438Y68266D01*
X165774Y68471D01*
X166073Y68727D01*
X166329Y69026D01*
X166534Y69362D01*
X166685Y69725D01*
X166777Y70108D01*
X166808Y70500D01*
X166777Y70892D01*
X166685Y71275D01*
X166534Y71638D01*
X166329Y71974D01*
X166073Y72273D01*
X165774Y72529D01*
X165438Y72734D01*
X165075Y72885D01*
X164692Y72977D01*
X164300Y73008D01*
D02*
G37*
G36*
X184800Y63908D02*
X184408Y63877D01*
X184025Y63785D01*
X183661Y63634D01*
X183326Y63429D01*
X183027Y63173D01*
X182771Y62874D01*
X182566Y62538D01*
X182415Y62175D01*
X182323Y61792D01*
X182292Y61400D01*
X182323Y61008D01*
X182415Y60625D01*
X182566Y60262D01*
X182771Y59926D01*
X183027Y59627D01*
X183326Y59371D01*
X183661Y59166D01*
X184025Y59015D01*
X184408Y58923D01*
X184800Y58892D01*
X185192Y58923D01*
X185575Y59015D01*
X185938Y59166D01*
X186274Y59371D01*
X186573Y59627D01*
X186829Y59926D01*
X187034Y60262D01*
X187185Y60625D01*
X187277Y61008D01*
X187308Y61400D01*
X187277Y61792D01*
X187185Y62175D01*
X187034Y62538D01*
X186829Y62874D01*
X186573Y63173D01*
X186274Y63429D01*
X185938Y63634D01*
X185575Y63785D01*
X185192Y63877D01*
X184800Y63908D01*
D02*
G37*
G36*
X144400Y61308D02*
X144008Y61277D01*
X143625Y61185D01*
X143261Y61034D01*
X142944Y60840D01*
X142375Y60810D01*
X131236D01*
X130887Y60818D01*
X130874Y60829D01*
X130539Y61034D01*
X130175Y61185D01*
X129792Y61277D01*
X129400Y61308D01*
X129008Y61277D01*
X128625Y61185D01*
X128261Y61034D01*
X127944Y60840D01*
X127375Y60810D01*
X120600D01*
X120208Y60771D01*
X119919Y60683D01*
X119831Y60657D01*
X119483Y60471D01*
X119179Y60221D01*
X117577Y58619D01*
X117324Y58378D01*
X117308Y58377D01*
X116925Y58285D01*
X116561Y58134D01*
X116226Y57929D01*
X115927Y57673D01*
X115671Y57374D01*
X115466Y57038D01*
X115315Y56675D01*
X115223Y56292D01*
X115192Y55900D01*
X115223Y55508D01*
X115315Y55125D01*
X115466Y54762D01*
X115671Y54426D01*
X115927Y54127D01*
X116226Y53871D01*
X116561Y53666D01*
X116925Y53515D01*
X117308Y53423D01*
X117700Y53392D01*
X118092Y53423D01*
X118475Y53515D01*
X118839Y53666D01*
X119174Y53871D01*
X119473Y54127D01*
X119729Y54426D01*
X119934Y54762D01*
X120085Y55125D01*
X120172Y55487D01*
X120553Y55911D01*
X121432Y56790D01*
X127564D01*
X127913Y56782D01*
X127926Y56771D01*
X128261Y56566D01*
X128625Y56415D01*
X129008Y56323D01*
X129400Y56292D01*
X129792Y56323D01*
X130175Y56415D01*
X130539Y56566D01*
X130856Y56760D01*
X131425Y56790D01*
X142564D01*
X142913Y56782D01*
X142926Y56771D01*
X143261Y56566D01*
X143625Y56415D01*
X144008Y56323D01*
X144400Y56292D01*
X144792Y56323D01*
X145175Y56415D01*
X145539Y56566D01*
X145874Y56771D01*
X146173Y57027D01*
X146429Y57326D01*
X146634Y57661D01*
X146785Y58025D01*
X146877Y58408D01*
X146908Y58800D01*
X146877Y59192D01*
X146785Y59575D01*
X146634Y59939D01*
X146429Y60274D01*
X146173Y60573D01*
X145874Y60829D01*
X145539Y61034D01*
X145175Y61185D01*
X144792Y61277D01*
X144400Y61308D01*
D02*
G37*
G36*
X159700Y30608D02*
X159308Y30577D01*
X158925Y30485D01*
X158561Y30334D01*
X158226Y30129D01*
X157927Y29873D01*
X157671Y29574D01*
X157466Y29239D01*
X157315Y28875D01*
X157223Y28492D01*
X157192Y28100D01*
X157223Y27708D01*
X157315Y27325D01*
X157466Y26962D01*
X157671Y26626D01*
X157927Y26327D01*
X158226Y26071D01*
X158561Y25866D01*
X158925Y25715D01*
X159308Y25623D01*
X159700Y25592D01*
X160092Y25623D01*
X160475Y25715D01*
X160839Y25866D01*
X161174Y26071D01*
X161473Y26327D01*
X161729Y26626D01*
X161934Y26962D01*
X162085Y27325D01*
X162177Y27708D01*
X162208Y28100D01*
X162177Y28492D01*
X162085Y28875D01*
X161934Y29239D01*
X161729Y29574D01*
X161473Y29873D01*
X161174Y30129D01*
X160839Y30334D01*
X160475Y30485D01*
X160092Y30577D01*
X159700Y30608D01*
D02*
G37*
G36*
X122000Y30108D02*
X121608Y30077D01*
X121225Y29985D01*
X120862Y29834D01*
X120526Y29629D01*
X120227Y29373D01*
X119971Y29074D01*
X119766Y28739D01*
X119615Y28375D01*
X119523Y27992D01*
X119492Y27600D01*
X119523Y27208D01*
X119615Y26825D01*
X119766Y26462D01*
X119971Y26126D01*
X120227Y25827D01*
X120526Y25571D01*
X120862Y25366D01*
X121225Y25215D01*
X121608Y25123D01*
X122000Y25092D01*
X122392Y25123D01*
X122775Y25215D01*
X123139Y25366D01*
X123474Y25571D01*
X123773Y25827D01*
X124029Y26126D01*
X124234Y26462D01*
X124385Y26825D01*
X124477Y27208D01*
X124508Y27600D01*
X124477Y27992D01*
X124385Y28375D01*
X124234Y28739D01*
X124029Y29074D01*
X123773Y29373D01*
X123474Y29629D01*
X123139Y29834D01*
X122775Y29985D01*
X122392Y30077D01*
X122000Y30108D01*
D02*
G37*
G36*
X183500Y24958D02*
X183108Y24927D01*
X182725Y24835D01*
X182362Y24684D01*
X182026Y24479D01*
X181727Y24223D01*
X181471Y23924D01*
X181266Y23589D01*
X181115Y23225D01*
X181023Y22842D01*
X180992Y22450D01*
X181023Y22058D01*
X181115Y21675D01*
X181266Y21312D01*
X181471Y20976D01*
X181727Y20677D01*
X182026Y20421D01*
X182362Y20216D01*
X182725Y20065D01*
X183108Y19973D01*
X183500Y19942D01*
X183892Y19973D01*
X184275Y20065D01*
X184639Y20216D01*
X184974Y20421D01*
X185273Y20677D01*
X185529Y20976D01*
X185734Y21312D01*
X185885Y21675D01*
X185977Y22058D01*
X186008Y22450D01*
X185977Y22842D01*
X185885Y23225D01*
X185734Y23589D01*
X185529Y23924D01*
X185273Y24223D01*
X184974Y24479D01*
X184639Y24684D01*
X184275Y24835D01*
X183892Y24927D01*
X183500Y24958D01*
D02*
G37*
G36*
X166900Y31308D02*
X166508Y31277D01*
X166125Y31185D01*
X165762Y31034D01*
X165426Y30829D01*
X165127Y30573D01*
X164871Y30274D01*
X164666Y29938D01*
X164515Y29575D01*
X164423Y29192D01*
X164392Y28800D01*
X164423Y28408D01*
X164515Y28025D01*
X164666Y27661D01*
X164871Y27326D01*
X165127Y27027D01*
X165426Y26771D01*
X165762Y26566D01*
X166125Y26415D01*
X166508Y26323D01*
X166900Y26292D01*
X167292Y26323D01*
X167675Y26415D01*
X168039Y26566D01*
X168374Y26771D01*
X168673Y27027D01*
X168929Y27326D01*
X169134Y27661D01*
X169285Y28025D01*
X169377Y28408D01*
X169408Y28800D01*
X169377Y29192D01*
X169285Y29575D01*
X169134Y29938D01*
X168929Y30274D01*
X168673Y30573D01*
X168374Y30829D01*
X168039Y31034D01*
X167675Y31185D01*
X167292Y31277D01*
X166900Y31308D01*
D02*
G37*
G36*
X166100Y53908D02*
X165708Y53877D01*
X165325Y53785D01*
X164961Y53634D01*
X164626Y53429D01*
X164327Y53173D01*
X164071Y52874D01*
X163866Y52538D01*
X163715Y52175D01*
X163623Y51792D01*
X163592Y51400D01*
X163623Y51008D01*
X163715Y50625D01*
X163866Y50262D01*
X164071Y49926D01*
X164327Y49627D01*
X164626Y49371D01*
X164961Y49166D01*
X165325Y49015D01*
X165708Y48923D01*
X166100Y48892D01*
X166492Y48923D01*
X166875Y49015D01*
X167239Y49166D01*
X167574Y49371D01*
X167873Y49627D01*
X168129Y49926D01*
X168334Y50262D01*
X168485Y50625D01*
X168577Y51008D01*
X168608Y51400D01*
X168577Y51792D01*
X168485Y52175D01*
X168334Y52538D01*
X168129Y52874D01*
X167873Y53173D01*
X167574Y53429D01*
X167239Y53634D01*
X166875Y53785D01*
X166492Y53877D01*
X166100Y53908D01*
D02*
G37*
G36*
X149400Y51308D02*
X149008Y51277D01*
X148625Y51185D01*
X148261Y51034D01*
X147926Y50829D01*
X147627Y50573D01*
X147371Y50274D01*
X147166Y49939D01*
X147015Y49575D01*
X146923Y49192D01*
X146892Y48800D01*
X146923Y48408D01*
X147015Y48025D01*
X147166Y47661D01*
X147371Y47326D01*
X147627Y47027D01*
X147926Y46771D01*
X148261Y46566D01*
X148625Y46415D01*
X148987Y46328D01*
X149411Y45947D01*
X150753Y44605D01*
X150935Y44402D01*
X151055Y44231D01*
X151124Y44092D01*
X151156Y43986D01*
X151165Y43900D01*
X151156Y43814D01*
X151124Y43707D01*
X151055Y43569D01*
X150935Y43398D01*
X150753Y43195D01*
X149829Y42271D01*
X149579Y41967D01*
X149393Y41619D01*
X149279Y41242D01*
X149240Y40850D01*
Y32086D01*
X149232Y31737D01*
X149221Y31724D01*
X149016Y31388D01*
X148865Y31025D01*
X148773Y30642D01*
X148742Y30250D01*
X148773Y29858D01*
X148865Y29475D01*
X149016Y29111D01*
X149210Y28794D01*
X149240Y28225D01*
Y13050D01*
X149279Y12658D01*
X149393Y12281D01*
X149579Y11933D01*
X149829Y11629D01*
X155581Y5877D01*
X155822Y5624D01*
X155823Y5608D01*
X155915Y5225D01*
X156066Y4861D01*
X156271Y4526D01*
X156527Y4227D01*
X156826Y3971D01*
X157162Y3766D01*
X157525Y3615D01*
X157908Y3523D01*
X158300Y3492D01*
X158692Y3523D01*
X159075Y3615D01*
X159438Y3766D01*
X159774Y3971D01*
X160073Y4227D01*
X160329Y4526D01*
X160534Y4861D01*
X160685Y5225D01*
X160772Y5587D01*
X161153Y6011D01*
X168332Y13190D01*
X171154D01*
X171620Y12465D01*
X171777Y11920D01*
X171666Y11739D01*
X171515Y11375D01*
X171423Y10992D01*
X171392Y10600D01*
X171423Y10208D01*
X171515Y9825D01*
X171666Y9462D01*
X171871Y9126D01*
X172127Y8827D01*
X172426Y8571D01*
X172761Y8366D01*
X173125Y8215D01*
X173508Y8123D01*
X173900Y8092D01*
X174292Y8123D01*
X174675Y8215D01*
X175039Y8366D01*
X175374Y8571D01*
X175673Y8827D01*
X175834Y9015D01*
X176221Y9143D01*
X177143Y9178D01*
X177327Y9127D01*
X177626Y8871D01*
X177962Y8666D01*
X178325Y8515D01*
X178708Y8423D01*
X179100Y8392D01*
X179492Y8423D01*
X179875Y8515D01*
X180238Y8666D01*
X180574Y8871D01*
X180873Y9127D01*
X181129Y9426D01*
X181334Y9761D01*
X181485Y10125D01*
X181577Y10508D01*
X181608Y10900D01*
X181577Y11292D01*
X181485Y11675D01*
X181334Y12039D01*
X181140Y12356D01*
X181110Y12925D01*
Y13700D01*
X181071Y14092D01*
X180983Y14381D01*
X180957Y14469D01*
X180771Y14816D01*
X180521Y15121D01*
X179021Y16621D01*
X178717Y16871D01*
X178369Y17057D01*
X177992Y17171D01*
X177600Y17210D01*
X177309D01*
X176935Y18021D01*
X176901Y18480D01*
X177073Y18627D01*
X177329Y18926D01*
X177534Y19261D01*
X177685Y19625D01*
X177777Y20008D01*
X177808Y20400D01*
X177777Y20792D01*
X177685Y21175D01*
X177534Y21539D01*
X177329Y21874D01*
X177073Y22173D01*
X176774Y22429D01*
X176439Y22634D01*
X176075Y22785D01*
X175692Y22877D01*
X175300Y22908D01*
X174908Y22877D01*
X174525Y22785D01*
X174161Y22634D01*
X173826Y22429D01*
X173649Y22277D01*
X173426Y22157D01*
X172664Y22036D01*
X171991Y22215D01*
X171974Y22229D01*
X171639Y22434D01*
X171275Y22585D01*
X170892Y22677D01*
X170500Y22708D01*
X170108Y22677D01*
X169725Y22585D01*
X169361Y22434D01*
X169026Y22229D01*
X168798Y22034D01*
X168629Y21949D01*
X168518Y21921D01*
X167482D01*
X167371Y21949D01*
X167202Y22034D01*
X166974Y22229D01*
X166639Y22434D01*
X166275Y22585D01*
X165892Y22677D01*
X165500Y22708D01*
X165108Y22677D01*
X164725Y22585D01*
X164361Y22434D01*
X164026Y22229D01*
X163727Y21973D01*
X163520Y21898D01*
X162722Y21882D01*
X162198Y22027D01*
X162073Y22173D01*
X161774Y22429D01*
X161439Y22634D01*
X161075Y22785D01*
X160692Y22877D01*
X160300Y22908D01*
X159908Y22877D01*
X159525Y22785D01*
X159162Y22634D01*
X158826Y22429D01*
X158527Y22173D01*
X158271Y21874D01*
X158066Y21539D01*
X157915Y21175D01*
X157823Y20792D01*
X157792Y20400D01*
X157823Y20008D01*
X157915Y19625D01*
X158066Y19261D01*
X158271Y18926D01*
X158527Y18627D01*
X158826Y18371D01*
X159162Y18166D01*
X159525Y18015D01*
X159908Y17923D01*
X160300Y17892D01*
X160692Y17923D01*
X161075Y18015D01*
X161439Y18166D01*
X161774Y18371D01*
X162073Y18627D01*
X162280Y18702D01*
X163078Y18718D01*
X163602Y18573D01*
X163727Y18427D01*
X164026Y18171D01*
X164361Y17966D01*
X164725Y17815D01*
X165108Y17723D01*
X165393Y17701D01*
X165732Y17225D01*
X165908Y16451D01*
X158301Y8843D01*
X158289Y8853D01*
X153260Y13882D01*
Y28414D01*
X153268Y28763D01*
X153279Y28776D01*
X153484Y29111D01*
X153635Y29475D01*
X153727Y29858D01*
X153758Y30250D01*
X153727Y30642D01*
X153635Y31025D01*
X153484Y31388D01*
X153290Y31706D01*
X153260Y32275D01*
Y40017D01*
X154022Y40780D01*
X154248Y40991D01*
X154489Y41183D01*
X154735Y41350D01*
X154987Y41493D01*
X155247Y41614D01*
X155516Y41712D01*
X155796Y41789D01*
X156088Y41845D01*
X156394Y41879D01*
X156703Y41890D01*
X166568D01*
X173279Y35179D01*
X173584Y34929D01*
X173931Y34743D01*
X174308Y34629D01*
X174700Y34590D01*
X175092Y34629D01*
X175301Y34692D01*
X175692Y34723D01*
X176075Y34815D01*
X176439Y34966D01*
X176774Y35171D01*
X177073Y35427D01*
X177329Y35726D01*
X177534Y36061D01*
X177685Y36425D01*
X177777Y36808D01*
X177808Y37200D01*
X177777Y37592D01*
X177685Y37975D01*
X177534Y38338D01*
X177329Y38674D01*
X177073Y38973D01*
X176774Y39229D01*
X176439Y39434D01*
X176075Y39585D01*
X175692Y39677D01*
X175300Y39708D01*
X174908Y39677D01*
X174554Y39592D01*
X174526Y39616D01*
X168821Y45321D01*
X168517Y45571D01*
X168169Y45757D01*
X167792Y45871D01*
X167400Y45910D01*
X156703D01*
X156394Y45921D01*
X156088Y45955D01*
X155796Y46010D01*
X155516Y46087D01*
X155247Y46186D01*
X154987Y46307D01*
X154735Y46450D01*
X154489Y46617D01*
X154248Y46809D01*
X154021Y47021D01*
X152119Y48923D01*
X151878Y49176D01*
X151877Y49192D01*
X151785Y49575D01*
X151634Y49939D01*
X151429Y50274D01*
X151173Y50573D01*
X150874Y50829D01*
X150539Y51034D01*
X150175Y51185D01*
X149792Y51277D01*
X149400Y51308D01*
D02*
G37*
G36*
X157800Y38808D02*
X157408Y38777D01*
X157025Y38685D01*
X156662Y38534D01*
X156326Y38329D01*
X156027Y38073D01*
X155771Y37774D01*
X155566Y37438D01*
X155415Y37075D01*
X155323Y36692D01*
X155292Y36300D01*
X155323Y35908D01*
X155415Y35525D01*
X155566Y35161D01*
X155771Y34826D01*
X156027Y34527D01*
X156326Y34271D01*
X156662Y34066D01*
X157025Y33915D01*
X157408Y33823D01*
X157800Y33792D01*
X158192Y33823D01*
X158575Y33915D01*
X158939Y34066D01*
X159274Y34271D01*
X159573Y34527D01*
X159829Y34826D01*
X160034Y35161D01*
X160185Y35525D01*
X160277Y35908D01*
X160308Y36300D01*
X160277Y36692D01*
X160185Y37075D01*
X160034Y37438D01*
X159829Y37774D01*
X159573Y38073D01*
X159274Y38329D01*
X158939Y38534D01*
X158575Y38685D01*
X158192Y38777D01*
X157800Y38808D01*
D02*
G37*
G36*
X134400Y76308D02*
X134008Y76277D01*
X133625Y76185D01*
X133261Y76034D01*
X132944Y75840D01*
X132375Y75810D01*
X131500D01*
X131108Y75771D01*
X130731Y75657D01*
X130384Y75471D01*
X130079Y75221D01*
X127168Y72310D01*
X125236D01*
X124887Y72318D01*
X124874Y72329D01*
X124538Y72534D01*
X124175Y72685D01*
X123792Y72777D01*
X123400Y72808D01*
X123008Y72777D01*
X122625Y72685D01*
X122261Y72534D01*
X121926Y72329D01*
X121627Y72073D01*
X121371Y71774D01*
X121166Y71438D01*
X121015Y71075D01*
X120923Y70692D01*
X120892Y70300D01*
X120923Y69908D01*
X121015Y69525D01*
X121166Y69162D01*
X121371Y68826D01*
X121627Y68527D01*
X121926Y68271D01*
X122261Y68066D01*
X122625Y67915D01*
X123008Y67823D01*
X123400Y67792D01*
X123792Y67823D01*
X124175Y67915D01*
X124538Y68066D01*
X124856Y68260D01*
X125425Y68290D01*
X128000D01*
X128392Y68329D01*
X128769Y68443D01*
X129116Y68629D01*
X129421Y68879D01*
X132332Y71790D01*
X132564D01*
X132913Y71782D01*
X132926Y71771D01*
X133261Y71566D01*
X133625Y71415D01*
X134008Y71323D01*
X134400Y71292D01*
X134792Y71323D01*
X135175Y71415D01*
X135539Y71566D01*
X135856Y71760D01*
X136425Y71790D01*
X141168D01*
X149979Y62979D01*
X150283Y62729D01*
X150631Y62543D01*
X151008Y62429D01*
X151400Y62390D01*
X170468D01*
X184979Y47879D01*
X187990Y44868D01*
Y36812D01*
X186785Y36475D01*
X186634Y36839D01*
X186429Y37174D01*
X186173Y37473D01*
X185874Y37729D01*
X185539Y37934D01*
X185175Y38085D01*
X184792Y38177D01*
X184400Y38208D01*
X184008Y38177D01*
X183625Y38085D01*
X183262Y37934D01*
X182926Y37729D01*
X182627Y37473D01*
X182371Y37174D01*
X182166Y36839D01*
X182015Y36475D01*
X181923Y36092D01*
X181892Y35700D01*
X181923Y35308D01*
X182015Y34925D01*
X182166Y34562D01*
X182371Y34226D01*
X182627Y33927D01*
X182926Y33671D01*
X183262Y33466D01*
X183625Y33315D01*
X184008Y33223D01*
X184400Y33192D01*
X184792Y33223D01*
X185175Y33315D01*
X185539Y33466D01*
X185874Y33671D01*
X186173Y33927D01*
X186429Y34226D01*
X186634Y34562D01*
X186785Y34925D01*
X187990Y34588D01*
Y7636D01*
X187982Y7287D01*
X187971Y7274D01*
X187766Y6938D01*
X187615Y6575D01*
X187523Y6192D01*
X187492Y5800D01*
X187523Y5408D01*
X187615Y5025D01*
X187766Y4661D01*
X187971Y4326D01*
X188227Y4027D01*
X188526Y3771D01*
X188862Y3566D01*
X189225Y3415D01*
X189608Y3323D01*
X190000Y3292D01*
X190392Y3323D01*
X190775Y3415D01*
X191138Y3566D01*
X191474Y3771D01*
X191773Y4027D01*
X192029Y4326D01*
X192234Y4661D01*
X192385Y5025D01*
X192477Y5408D01*
X192508Y5800D01*
X192477Y6192D01*
X192385Y6575D01*
X192234Y6938D01*
X192040Y7256D01*
X192010Y7825D01*
Y45700D01*
X191971Y46092D01*
X191857Y46469D01*
X191671Y46817D01*
X191421Y47121D01*
X189142Y49400D01*
X197623Y57881D01*
X197875Y58122D01*
X197892Y58123D01*
X198275Y58215D01*
X198638Y58366D01*
X198974Y58571D01*
X199273Y58827D01*
X199529Y59126D01*
X199734Y59461D01*
X199885Y59825D01*
X199977Y60208D01*
X200008Y60600D01*
X199977Y60992D01*
X199885Y61375D01*
X199734Y61739D01*
X199529Y62074D01*
X199273Y62373D01*
X198974Y62629D01*
X198638Y62834D01*
X198275Y62985D01*
X197892Y63077D01*
X197500Y63108D01*
X197108Y63077D01*
X196725Y62985D01*
X196362Y62834D01*
X196026Y62629D01*
X195727Y62373D01*
X195471Y62074D01*
X195266Y61739D01*
X195115Y61375D01*
X195028Y61013D01*
X194647Y60589D01*
X186300Y52242D01*
X172721Y65821D01*
X172416Y66071D01*
X172069Y66257D01*
X171692Y66371D01*
X171300Y66410D01*
X159442D01*
X159132Y67122D01*
X159125Y67680D01*
X159274Y67771D01*
X159573Y68027D01*
X159829Y68326D01*
X160034Y68661D01*
X160185Y69025D01*
X160277Y69408D01*
X160308Y69800D01*
X160277Y70192D01*
X160185Y70575D01*
X160034Y70939D01*
X159829Y71274D01*
X159573Y71573D01*
X159274Y71829D01*
X158939Y72034D01*
X158575Y72185D01*
X158192Y72277D01*
X157800Y72308D01*
X157408Y72277D01*
X157025Y72185D01*
X156662Y72034D01*
X156326Y71829D01*
X156027Y71573D01*
X155771Y71274D01*
X155566Y70939D01*
X155415Y70575D01*
X155323Y70192D01*
X155292Y69800D01*
X155323Y69408D01*
X155415Y69025D01*
X155566Y68661D01*
X155771Y68326D01*
X156027Y68027D01*
X156326Y67771D01*
X156475Y67680D01*
X156468Y67122D01*
X156158Y66410D01*
X152232D01*
X143421Y75221D01*
X143117Y75471D01*
X142769Y75657D01*
X142392Y75771D01*
X142000Y75810D01*
X136236D01*
X135887Y75818D01*
X135874Y75829D01*
X135539Y76034D01*
X135175Y76185D01*
X134792Y76277D01*
X134400Y76308D01*
D02*
G37*
G36*
X188200Y97608D02*
X187808Y97577D01*
X187425Y97485D01*
X187062Y97334D01*
X186726Y97129D01*
X186427Y96873D01*
X186171Y96574D01*
X185966Y96238D01*
X185815Y95875D01*
X185728Y95513D01*
X185347Y95089D01*
X181868Y91610D01*
X148183D01*
X148177Y91692D01*
X148085Y92075D01*
X147934Y92438D01*
X147729Y92774D01*
X147473Y93073D01*
X147174Y93329D01*
X146839Y93534D01*
X146475Y93685D01*
X146092Y93777D01*
X145700Y93808D01*
X145308Y93777D01*
X144925Y93685D01*
X144735Y93606D01*
X144700Y93610D01*
X144308Y93571D01*
X144019Y93483D01*
X143931Y93457D01*
X143583Y93271D01*
X143279Y93021D01*
X141568Y91310D01*
X127336D01*
X126987Y91318D01*
X126974Y91329D01*
X126638Y91534D01*
X126275Y91685D01*
X125892Y91777D01*
X125500Y91808D01*
X125108Y91777D01*
X124725Y91685D01*
X124361Y91534D01*
X124026Y91329D01*
X123727Y91073D01*
X123471Y90774D01*
X123266Y90438D01*
X123221Y90330D01*
X122327Y90251D01*
X122170Y90286D01*
X121893Y90389D01*
X121761Y90708D01*
X121555Y91043D01*
X121299Y91342D01*
X121000Y91598D01*
X120665Y91803D01*
X120301Y91954D01*
X119918Y92046D01*
X119526Y92077D01*
X119134Y92046D01*
X118751Y91954D01*
X118388Y91803D01*
X118052Y91598D01*
X117753Y91342D01*
X117497Y91043D01*
X117292Y90708D01*
X117141Y90344D01*
X117049Y89961D01*
X117018Y89569D01*
X117049Y89177D01*
X117141Y88794D01*
X117292Y88431D01*
X117497Y88095D01*
X117753Y87796D01*
X118052Y87540D01*
X118388Y87335D01*
X118751Y87184D01*
X119161Y86223D01*
X119173Y85815D01*
X111979Y78621D01*
X111729Y78316D01*
X111543Y77969D01*
X111429Y77592D01*
X111390Y77200D01*
Y66786D01*
X111382Y66437D01*
X111371Y66424D01*
X111166Y66089D01*
X111015Y65725D01*
X110923Y65342D01*
X110892Y64950D01*
X110923Y64558D01*
X111015Y64175D01*
X111166Y63811D01*
X111371Y63476D01*
X111627Y63177D01*
X111926Y62921D01*
X112261Y62716D01*
X112625Y62565D01*
X113008Y62473D01*
X113400Y62442D01*
X113792Y62473D01*
X114175Y62565D01*
X114538Y62716D01*
X114874Y62921D01*
X115173Y63177D01*
X115429Y63476D01*
X115634Y63811D01*
X115785Y64175D01*
X115877Y64558D01*
X115908Y64950D01*
X115877Y65342D01*
X115785Y65725D01*
X115634Y66089D01*
X115440Y66406D01*
X115410Y66975D01*
Y76368D01*
X125623Y86581D01*
X125876Y86822D01*
X125892Y86823D01*
X126275Y86915D01*
X126638Y87066D01*
X126956Y87260D01*
X127525Y87290D01*
X142400D01*
X142792Y87329D01*
X143169Y87443D01*
X143517Y87629D01*
X143821Y87879D01*
X144700Y88758D01*
X145279Y88179D01*
X145583Y87929D01*
X145931Y87743D01*
X146308Y87629D01*
X146700Y87590D01*
X165856D01*
Y82410D01*
X165847Y82062D01*
X165837Y82049D01*
X165631Y81713D01*
X165480Y81350D01*
X165388Y80967D01*
X165358Y80575D01*
X165388Y80183D01*
X165480Y79800D01*
X165631Y79436D01*
X165837Y79101D01*
X166092Y78802D01*
X166391Y78546D01*
X166727Y78341D01*
X167090Y78190D01*
X167473Y78098D01*
X167865Y78067D01*
X168258Y78098D01*
X168640Y78190D01*
X169004Y78341D01*
X169339Y78546D01*
X169639Y78802D01*
X169894Y79101D01*
X170100Y79436D01*
X170250Y79800D01*
X170342Y80183D01*
X170373Y80575D01*
X170342Y80967D01*
X170250Y81350D01*
X170100Y81713D01*
X169905Y82031D01*
X169875Y82600D01*
Y87590D01*
X182700D01*
X183092Y87629D01*
X183469Y87743D01*
X183817Y87929D01*
X184121Y88179D01*
X188323Y92381D01*
X188575Y92622D01*
X188592Y92623D01*
X188975Y92715D01*
X189338Y92866D01*
X189674Y93071D01*
X189973Y93327D01*
X190229Y93626D01*
X190434Y93961D01*
X190585Y94325D01*
X190677Y94708D01*
X190708Y95100D01*
X190677Y95492D01*
X190585Y95875D01*
X190434Y96238D01*
X190229Y96574D01*
X189973Y96873D01*
X189674Y97129D01*
X189338Y97334D01*
X188975Y97485D01*
X188592Y97577D01*
X188200Y97608D01*
D02*
G37*
G36*
X153500Y97908D02*
X153108Y97877D01*
X152725Y97785D01*
X152361Y97634D01*
X152026Y97429D01*
X151727Y97173D01*
X151471Y96874D01*
X151266Y96538D01*
X151115Y96175D01*
X151023Y95792D01*
X150992Y95400D01*
X151023Y95008D01*
X151115Y94625D01*
X151266Y94262D01*
X151471Y93926D01*
X151727Y93627D01*
X152026Y93371D01*
X152361Y93166D01*
X152725Y93015D01*
X153108Y92923D01*
X153500Y92892D01*
X153892Y92923D01*
X154275Y93015D01*
X154639Y93166D01*
X154974Y93371D01*
X155273Y93627D01*
X155529Y93926D01*
X155734Y94262D01*
X155885Y94625D01*
X155977Y95008D01*
X156008Y95400D01*
X155977Y95792D01*
X155885Y96175D01*
X155734Y96538D01*
X155529Y96874D01*
X155273Y97173D01*
X154974Y97429D01*
X154639Y97634D01*
X154275Y97785D01*
X153892Y97877D01*
X153500Y97908D01*
D02*
G37*
G36*
X192900Y88508D02*
X192508Y88477D01*
X192125Y88385D01*
X191761Y88234D01*
X191426Y88029D01*
X191127Y87773D01*
X190871Y87474D01*
X190666Y87139D01*
X190515Y86775D01*
X190423Y86392D01*
X190392Y86000D01*
X190423Y85608D01*
X190515Y85225D01*
X190666Y84861D01*
X190871Y84526D01*
X191127Y84227D01*
X191426Y83971D01*
X191761Y83766D01*
X192125Y83615D01*
X192508Y83523D01*
X192900Y83492D01*
X193292Y83523D01*
X193675Y83615D01*
X194039Y83766D01*
X194374Y83971D01*
X194673Y84227D01*
X194929Y84526D01*
X195134Y84861D01*
X195285Y85225D01*
X195377Y85608D01*
X195408Y86000D01*
X195377Y86392D01*
X195285Y86775D01*
X195134Y87139D01*
X194929Y87474D01*
X194673Y87773D01*
X194374Y88029D01*
X194039Y88234D01*
X193675Y88385D01*
X193292Y88477D01*
X192900Y88508D01*
D02*
G37*
G36*
X200900Y89108D02*
X200508Y89077D01*
X200125Y88985D01*
X199762Y88834D01*
X199426Y88629D01*
X199127Y88373D01*
X198871Y88074D01*
X198666Y87739D01*
X198515Y87375D01*
X198423Y86992D01*
X198392Y86600D01*
X198423Y86208D01*
X198515Y85825D01*
X198666Y85462D01*
X198871Y85126D01*
X199127Y84827D01*
X199426Y84571D01*
X199762Y84366D01*
X200125Y84215D01*
X200508Y84123D01*
X200900Y84092D01*
X201292Y84123D01*
X201675Y84215D01*
X202038Y84366D01*
X202374Y84571D01*
X202673Y84827D01*
X202929Y85126D01*
X203134Y85462D01*
X203285Y85825D01*
X203377Y86208D01*
X203408Y86600D01*
X203377Y86992D01*
X203285Y87375D01*
X203134Y87739D01*
X202929Y88074D01*
X202673Y88373D01*
X202374Y88629D01*
X202038Y88834D01*
X201675Y88985D01*
X201292Y89077D01*
X200900Y89108D01*
D02*
G37*
G36*
X118300Y99808D02*
X117908Y99777D01*
X117525Y99685D01*
X117162Y99534D01*
X116826Y99329D01*
X116527Y99073D01*
X116271Y98774D01*
X116066Y98439D01*
X115915Y98075D01*
X115823Y97692D01*
X115792Y97300D01*
X115823Y96908D01*
X115915Y96525D01*
X116066Y96161D01*
X116271Y95826D01*
X116527Y95527D01*
X116826Y95271D01*
X117162Y95066D01*
X117525Y94915D01*
X117908Y94823D01*
X118300Y94792D01*
X118692Y94823D01*
X119075Y94915D01*
X119438Y95066D01*
X119774Y95271D01*
X120073Y95527D01*
X120329Y95826D01*
X120534Y96161D01*
X120685Y96525D01*
X120777Y96908D01*
X120808Y97300D01*
X120777Y97692D01*
X120685Y98075D01*
X120534Y98439D01*
X120329Y98774D01*
X120073Y99073D01*
X119774Y99329D01*
X119438Y99534D01*
X119075Y99685D01*
X118692Y99777D01*
X118300Y99808D01*
D02*
G37*
G36*
X135600Y105008D02*
X135208Y104977D01*
X134825Y104885D01*
X134461Y104734D01*
X134126Y104529D01*
X133827Y104273D01*
X133571Y103974D01*
X133366Y103638D01*
X133215Y103275D01*
X133123Y102892D01*
X133092Y102500D01*
X133123Y102108D01*
X133215Y101725D01*
X133366Y101362D01*
X133571Y101026D01*
X133827Y100727D01*
X134126Y100471D01*
X134461Y100266D01*
X134825Y100115D01*
X135208Y100023D01*
X135600Y99992D01*
X135992Y100023D01*
X136375Y100115D01*
X136739Y100266D01*
X137074Y100471D01*
X137373Y100727D01*
X137629Y101026D01*
X137834Y101362D01*
X137985Y101725D01*
X138077Y102108D01*
X138108Y102500D01*
X138077Y102892D01*
X137985Y103275D01*
X137834Y103638D01*
X137629Y103974D01*
X137373Y104273D01*
X137074Y104529D01*
X136739Y104734D01*
X136375Y104885D01*
X135992Y104977D01*
X135600Y105008D01*
D02*
G37*
G36*
X85400Y103208D02*
X85008Y103177D01*
X84625Y103085D01*
X84262Y102934D01*
X83926Y102729D01*
X83627Y102473D01*
X83371Y102174D01*
X83166Y101839D01*
X83015Y101475D01*
X82923Y101092D01*
X82892Y100700D01*
X82923Y100308D01*
X83015Y99925D01*
X83166Y99562D01*
X83371Y99226D01*
X83627Y98927D01*
X83942Y98433D01*
X83986Y97792D01*
X83791Y97313D01*
X83640Y96950D01*
X83548Y96567D01*
X83517Y96175D01*
X83548Y95783D01*
X83640Y95400D01*
X83791Y95036D01*
X83996Y94701D01*
X84252Y94402D01*
X84551Y94146D01*
X84887Y93941D01*
X85250Y93790D01*
X85633Y93698D01*
X86025Y93667D01*
X86417Y93698D01*
X86800Y93790D01*
X87163Y93941D01*
X87499Y94146D01*
X87798Y94402D01*
X88054Y94701D01*
X88259Y95036D01*
X88410Y95400D01*
X88502Y95783D01*
X88533Y96175D01*
X88502Y96567D01*
X88410Y96950D01*
X88259Y97313D01*
X88054Y97649D01*
X87798Y97948D01*
X87483Y98442D01*
X87439Y99083D01*
X87634Y99562D01*
X87785Y99925D01*
X87877Y100308D01*
X87908Y100700D01*
X87877Y101092D01*
X87785Y101475D01*
X87634Y101839D01*
X87429Y102174D01*
X87173Y102473D01*
X86874Y102729D01*
X86538Y102934D01*
X86175Y103085D01*
X85792Y103177D01*
X85400Y103208D01*
D02*
G37*
G36*
X108500Y99708D02*
X108108Y99677D01*
X107725Y99585D01*
X107361Y99434D01*
X107026Y99229D01*
X106727Y98973D01*
X106471Y98674D01*
X106266Y98338D01*
X106115Y97975D01*
X106023Y97592D01*
X105992Y97200D01*
X106023Y96808D01*
X106115Y96425D01*
X106266Y96061D01*
X106471Y95726D01*
X106727Y95427D01*
X107026Y95171D01*
X107361Y94966D01*
X107725Y94815D01*
X108108Y94723D01*
X108500Y94692D01*
X108892Y94723D01*
X109275Y94815D01*
X109639Y94966D01*
X109974Y95171D01*
X110273Y95427D01*
X110529Y95726D01*
X110734Y96061D01*
X110885Y96425D01*
X110977Y96808D01*
X111008Y97200D01*
X110977Y97592D01*
X110885Y97975D01*
X110734Y98338D01*
X110529Y98674D01*
X110273Y98973D01*
X109974Y99229D01*
X109639Y99434D01*
X109275Y99585D01*
X108892Y99677D01*
X108500Y99708D01*
D02*
G37*
G36*
X156200Y79508D02*
X155808Y79477D01*
X155425Y79385D01*
X155062Y79234D01*
X154726Y79029D01*
X154427Y78773D01*
X154171Y78474D01*
X153966Y78138D01*
X153815Y77775D01*
X153723Y77392D01*
X153692Y77000D01*
X153723Y76608D01*
X153815Y76225D01*
X153966Y75862D01*
X154171Y75526D01*
X154427Y75227D01*
X154726Y74971D01*
X155062Y74766D01*
X155425Y74615D01*
X155808Y74523D01*
X156200Y74492D01*
X156592Y74523D01*
X156975Y74615D01*
X157338Y74766D01*
X157674Y74971D01*
X157973Y75227D01*
X158229Y75526D01*
X158434Y75862D01*
X158585Y76225D01*
X158677Y76608D01*
X158708Y77000D01*
X158677Y77392D01*
X158585Y77775D01*
X158434Y78138D01*
X158229Y78474D01*
X157973Y78773D01*
X157674Y79029D01*
X157338Y79234D01*
X156975Y79385D01*
X156592Y79477D01*
X156200Y79508D01*
D02*
G37*
G36*
X126800Y82308D02*
X126408Y82277D01*
X126025Y82185D01*
X125661Y82034D01*
X125326Y81829D01*
X125027Y81573D01*
X124771Y81274D01*
X124566Y80939D01*
X124415Y80575D01*
X124323Y80192D01*
X124292Y79800D01*
X124323Y79408D01*
X124415Y79025D01*
X124566Y78661D01*
X124771Y78326D01*
X125027Y78027D01*
X125326Y77771D01*
X125661Y77566D01*
X126025Y77415D01*
X126408Y77323D01*
X126800Y77292D01*
X127192Y77323D01*
X127575Y77415D01*
X127938Y77566D01*
X128274Y77771D01*
X128573Y78027D01*
X128829Y78326D01*
X129034Y78661D01*
X129185Y79025D01*
X129277Y79408D01*
X129308Y79800D01*
X129277Y80192D01*
X129185Y80575D01*
X129034Y80939D01*
X128829Y81274D01*
X128573Y81573D01*
X128274Y81829D01*
X127938Y82034D01*
X127575Y82185D01*
X127192Y82277D01*
X126800Y82308D01*
D02*
G37*
%LPD*%
G36*
X135490Y74840D02*
X135525Y74832D01*
X135577Y74825D01*
X135732Y74812D01*
X136247Y74801D01*
X136418Y74800D01*
Y72800D01*
X135471Y72750D01*
Y74850D01*
X135490Y74840D01*
D02*
G37*
G36*
X114450Y66021D02*
X112350D01*
X112360Y66040D01*
X112368Y66075D01*
X112375Y66127D01*
X112388Y66282D01*
X112400Y66797D01*
X112400Y66968D01*
X114400D01*
X114450Y66021D01*
D02*
G37*
G36*
X152290Y29160D02*
X152282Y29125D01*
X152275Y29073D01*
X152262Y28918D01*
X152250Y28403D01*
X152250Y28232D01*
X150250D01*
X150200Y29179D01*
X152300D01*
X152290Y29160D01*
D02*
G37*
G36*
X188185Y93600D02*
X188165Y93594D01*
X188134Y93575D01*
X188092Y93543D01*
X187974Y93442D01*
X187602Y93087D01*
X187480Y92966D01*
X186066Y94380D01*
X186700Y95085D01*
X188185Y93600D01*
D02*
G37*
G36*
X160434Y6720D02*
X159800Y6015D01*
X158315Y7500D01*
X158335Y7506D01*
X158366Y7525D01*
X158408Y7557D01*
X158526Y7658D01*
X158898Y8013D01*
X159020Y8134D01*
X160434Y6720D01*
D02*
G37*
G36*
X158285Y7500D02*
X156800Y6015D01*
X156794Y6035D01*
X156775Y6066D01*
X156743Y6108D01*
X156642Y6226D01*
X156286Y6599D01*
X156166Y6720D01*
X157580Y8134D01*
X158285Y7500D01*
D02*
G37*
G36*
X124489Y71340D02*
X124525Y71332D01*
X124577Y71325D01*
X124732Y71312D01*
X125247Y71301D01*
X125418Y71300D01*
Y69300D01*
X124471Y69250D01*
Y71350D01*
X124489Y71340D01*
D02*
G37*
G36*
X133329Y72750D02*
X133310Y72759D01*
X133275Y72768D01*
X133223Y72776D01*
X133068Y72787D01*
X132553Y72800D01*
X132382Y72800D01*
Y74800D01*
X133329Y74850D01*
Y72750D01*
D02*
G37*
G36*
X180150Y11971D02*
X178050D01*
X178060Y11990D01*
X178068Y12025D01*
X178076Y12077D01*
X178088Y12232D01*
X178099Y12747D01*
X178100Y12918D01*
X180100D01*
X180150Y11971D01*
D02*
G37*
G36*
X191050Y6871D02*
X188950D01*
X188960Y6890D01*
X188968Y6925D01*
X188976Y6977D01*
X188988Y7132D01*
X189000Y7647D01*
X189000Y7818D01*
X191000D01*
X191050Y6871D01*
D02*
G37*
G36*
X168915Y81646D02*
X166815D01*
X166825Y81664D01*
X166833Y81700D01*
X166841Y81752D01*
X166853Y81907D01*
X166865Y82422D01*
X166865Y82593D01*
X168865D01*
X168915Y81646D01*
D02*
G37*
G36*
X150906Y48765D02*
X150925Y48734D01*
X150957Y48692D01*
X151058Y48574D01*
X151413Y48201D01*
X151534Y48080D01*
X150120Y46666D01*
X149415Y47300D01*
X150900Y48785D01*
X150906Y48765D01*
D02*
G37*
G36*
X153589Y46045D02*
X153889Y45805D01*
X154201Y45593D01*
X154525Y45409D01*
X154861Y45254D01*
X155208Y45126D01*
X155567Y45027D01*
X155938Y44957D01*
X156320Y44914D01*
X156714Y44900D01*
Y42900D01*
X156320Y42886D01*
X155938Y42843D01*
X155567Y42773D01*
X155208Y42674D01*
X154861Y42546D01*
X154525Y42391D01*
X154201Y42207D01*
X153889Y41995D01*
X153589Y41754D01*
X153300Y41486D01*
X151472Y42486D01*
X151726Y42769D01*
X151924Y43052D01*
X152066Y43334D01*
X152150Y43617D01*
X152179Y43900D01*
X152150Y44183D01*
X152066Y44466D01*
X151924Y44749D01*
X151726Y45031D01*
X151472Y45314D01*
X153300Y46314D01*
X153589Y46045D01*
D02*
G37*
G36*
X130490Y59840D02*
X130525Y59832D01*
X130577Y59825D01*
X130732Y59812D01*
X131247Y59801D01*
X131418Y59800D01*
Y57800D01*
X130471Y57750D01*
Y59850D01*
X130490Y59840D01*
D02*
G37*
G36*
X128329Y57750D02*
X128310Y57759D01*
X128275Y57768D01*
X128223Y57776D01*
X128068Y57787D01*
X127553Y57800D01*
X127382Y57800D01*
Y59800D01*
X128329Y59850D01*
Y57750D01*
D02*
G37*
G36*
X119834Y56620D02*
X119200Y55915D01*
X117715Y57400D01*
X117735Y57406D01*
X117766Y57425D01*
X117808Y57457D01*
X117926Y57558D01*
X118299Y57913D01*
X118420Y58034D01*
X119834Y56620D01*
D02*
G37*
G36*
X125485Y87800D02*
X125465Y87794D01*
X125434Y87775D01*
X125392Y87743D01*
X125274Y87642D01*
X124902Y87287D01*
X124780Y87166D01*
X123366Y88580D01*
X124000Y89285D01*
X125485Y87800D01*
D02*
G37*
G36*
X126589Y90340D02*
X126625Y90332D01*
X126677Y90324D01*
X126832Y90312D01*
X127347Y90301D01*
X127518Y90300D01*
Y88300D01*
X126571Y88250D01*
Y90350D01*
X126589Y90340D01*
D02*
G37*
G36*
X152300Y31321D02*
X150200D01*
X150210Y31339D01*
X150218Y31375D01*
X150225Y31427D01*
X150238Y31582D01*
X150250Y32097D01*
X150250Y32268D01*
X152250D01*
X152300Y31321D01*
D02*
G37*
G36*
X173837Y38879D02*
X174280Y38489D01*
X174336Y38453D01*
X174381Y38431D01*
X174416Y38423D01*
X174439Y38428D01*
X173996Y36458D01*
X172482Y37404D01*
X173715Y38999D01*
X173837Y38879D01*
D02*
G37*
G36*
X143329Y57750D02*
X143310Y57759D01*
X143275Y57768D01*
X143223Y57776D01*
X143068Y57787D01*
X142553Y57800D01*
X142382Y57800D01*
Y59800D01*
X143329Y59850D01*
Y57750D01*
D02*
G37*
G36*
X197485Y59100D02*
X197465Y59094D01*
X197434Y59075D01*
X197392Y59043D01*
X197274Y58942D01*
X196901Y58587D01*
X196780Y58466D01*
X195366Y59880D01*
X196000Y60585D01*
X197485Y59100D01*
D02*
G37*
D19*
X203700Y-0D02*
G03*
X211700Y8000I0J8000D01*
G01*
X-64000Y21000D02*
G03*
X-56000Y13000I8000J0D01*
G01*
Y110000D02*
G03*
X-64000Y102000I0J-8000D01*
G01*
X211700D02*
G03*
X203700Y110000I-8000J0D01*
G01*
X15100Y-0D02*
Y7200D01*
X34200Y-0D02*
X203700D01*
X27000Y7200D02*
X34200Y-0D01*
X0D02*
X15100D01*
X-13000Y13000D02*
X0Y0D01*
X-56000Y110000D02*
X203700D01*
X-64000Y21000D02*
Y102000D01*
X15100Y7200D02*
X27000D01*
X-56000Y13000D02*
X-13000D01*
X211700Y8000D02*
Y102000D01*
D20*
X106900Y106400D02*
D03*
X119526Y89569D02*
D03*
X114400Y104700D02*
D03*
X108500Y97200D02*
D03*
X118300Y97300D02*
D03*
X170500Y20200D02*
D03*
X166900Y28800D02*
D03*
X160300Y20400D02*
D03*
X165500Y20200D02*
D03*
X183500Y22450D02*
D03*
X175300Y20400D02*
D03*
X100400Y65300D02*
D03*
X98400Y102300D02*
D03*
X135600Y102500D02*
D03*
X140600D02*
D03*
X170600Y97400D02*
D03*
X167865Y80575D02*
D03*
X184400Y35700D02*
D03*
X179100Y10900D02*
D03*
X173900Y10600D02*
D03*
X153500Y95400D02*
D03*
X145700Y91300D02*
D03*
X123400Y70300D02*
D03*
X118600Y71900D02*
D03*
X126800Y79800D02*
D03*
X139400Y48800D02*
D03*
X136900Y53800D02*
D03*
X139500Y63800D02*
D03*
X101900Y26500D02*
D03*
X91900Y106400D02*
D03*
X101900D02*
D03*
X125500Y89300D02*
D03*
X-22600Y78000D02*
D03*
X-18600D02*
D03*
X129400Y58800D02*
D03*
X126900Y66300D02*
D03*
X113400Y64950D02*
D03*
X134400Y73800D02*
D03*
X106400Y84300D02*
D03*
X65500Y80000D02*
D03*
Y74700D02*
D03*
X86000Y62000D02*
D03*
X175300Y37200D02*
D03*
X180300Y70400D02*
D03*
X149150Y76550D02*
D03*
X184800Y61400D02*
D03*
X164300Y70500D02*
D03*
X157800Y69800D02*
D03*
X156200Y77000D02*
D03*
X166100Y51400D02*
D03*
X167200Y60600D02*
D03*
X157800Y36300D02*
D03*
X166500Y36700D02*
D03*
X159700Y28100D02*
D03*
X197200Y13600D02*
D03*
X149400Y48800D02*
D03*
X151250Y30250D02*
D03*
X197500Y60600D02*
D03*
X190000Y5800D02*
D03*
X165200D02*
D03*
X158300Y6000D02*
D03*
X143500Y5000D02*
D03*
X124400Y48800D02*
D03*
X144400Y58800D02*
D03*
X86200Y73800D02*
D03*
X81999Y18401D02*
D03*
X86200Y78800D02*
D03*
X86025Y96175D02*
D03*
X85400Y100700D02*
D03*
X116900Y16300D02*
D03*
X80900Y4800D02*
D03*
X122000Y27600D02*
D03*
X88900Y36500D02*
D03*
X192900Y86000D02*
D03*
X200900Y86600D02*
D03*
X188200Y95100D02*
D03*
X197900Y100100D02*
D03*
X124300Y36500D02*
D03*
X102200Y41300D02*
D03*
X73900Y37700D02*
D03*
X73500Y98800D02*
D03*
X73900Y65100D02*
D03*
X55300Y84400D02*
D03*
X69500Y6200D02*
D03*
X-14400Y20200D02*
D03*
X-13900Y40900D02*
D03*
X-12600Y103200D02*
D03*
X117700Y55900D02*
D03*
D21*
X125500Y89300D02*
X142400D01*
X98400Y85700D02*
X99800Y84300D01*
X98400Y85700D02*
Y102300D01*
X168000Y89600D02*
X182700D01*
X146700D02*
X168000D01*
X167865Y89465D02*
X168000Y89600D01*
X167865Y80575D02*
Y89465D01*
X179100Y10900D02*
Y13700D01*
X128000Y70300D02*
X131500Y73800D01*
X123400Y70300D02*
X128000D01*
X113400Y77200D02*
X125500Y89300D01*
X113400Y64950D02*
Y77200D01*
X131500Y73800D02*
X134400D01*
X65500Y74700D02*
Y80000D01*
X69800Y84300D01*
X99800D01*
X106400D01*
X149400Y48800D02*
X154300Y43900D01*
X167400D01*
X174700Y36600D01*
X151250Y30250D02*
Y40850D01*
X154300Y43900D01*
X81999Y18401D02*
X82100Y18300D01*
X190000Y5800D02*
Y45700D01*
X151250Y13050D02*
X158300Y6000D01*
X151250Y13050D02*
Y30250D01*
X65500Y59300D02*
Y74700D01*
Y59300D02*
X81999Y42801D01*
X81999Y36500D02*
X88900D01*
X81999Y36500D02*
X81999Y36500D01*
X81999Y18401D02*
Y36500D01*
Y42801D01*
X142400Y89300D02*
X144700Y91600D01*
X129400Y58800D02*
X144400D01*
X120600D02*
X129400D01*
X117700Y55900D02*
X120600Y58800D01*
X81999Y18401D02*
X89650Y10750D01*
X138150D01*
X143700Y5200D01*
X177600Y15200D02*
X179100Y13700D01*
X167500Y15200D02*
X177600D01*
X158300Y6000D02*
X167500Y15200D01*
X186400Y49500D02*
X197500Y60600D01*
X186400Y49300D02*
Y49500D01*
X171300Y64400D02*
X186400Y49300D01*
X190000Y45700D01*
X134400Y73800D02*
X142000D01*
X151400Y64400D01*
X171300D01*
X144700Y91600D02*
X146700Y89600D01*
X182700D02*
X188200Y95100D01*
M02*
