%FSLAX44Y44*%
%MOMM*%
G71*
G01*
G75*
G04 Layer_Color=8388736*
%ADD10C,0.2500*%
%ADD11R,2.9000X0.8000*%
%ADD12R,3.2000X0.8000*%
%ADD13O,0.6000X0.4000*%
%ADD14O,1.0500X0.7000*%
G04:AMPARAMS|DCode=15|XSize=0.4mm|YSize=0.37mm|CornerRadius=0.037mm|HoleSize=0mm|Usage=FLASHONLY|Rotation=270.000|XOffset=0mm|YOffset=0mm|HoleType=Round|Shape=RoundedRectangle|*
%AMROUNDEDRECTD15*
21,1,0.4000,0.2960,0,0,270.0*
21,1,0.3260,0.3700,0,0,270.0*
1,1,0.0740,-0.1480,-0.1630*
1,1,0.0740,-0.1480,0.1630*
1,1,0.0740,0.1480,0.1630*
1,1,0.0740,0.1480,-0.1630*
%
%ADD15ROUNDEDRECTD15*%
%ADD16C,0.0750*%
%ADD17C,0.1500*%
%ADD18C,0.7500*%
%ADD19C,0.0100*%
%ADD20C,0.3000*%
%ADD21C,0.2000*%
%ADD22C,0.4000*%
%ADD23R,0.6000X0.8500*%
%ADD24R,0.8500X0.6000*%
G04:AMPARAMS|DCode=25|XSize=0.4mm|YSize=0.37mm|CornerRadius=0.037mm|HoleSize=0mm|Usage=FLASHONLY|Rotation=0.000|XOffset=0mm|YOffset=0mm|HoleType=Round|Shape=RoundedRectangle|*
%AMROUNDEDRECTD25*
21,1,0.4000,0.2960,0,0,0.0*
21,1,0.3260,0.3700,0,0,0.0*
1,1,0.0740,0.1630,-0.1480*
1,1,0.0740,-0.1630,-0.1480*
1,1,0.0740,-0.1630,0.1480*
1,1,0.0740,0.1630,0.1480*
%
%ADD25ROUNDEDRECTD25*%
G04:AMPARAMS|DCode=26|XSize=0.93mm|YSize=0.89mm|CornerRadius=0.089mm|HoleSize=0mm|Usage=FLASHONLY|Rotation=180.000|XOffset=0mm|YOffset=0mm|HoleType=Round|Shape=RoundedRectangle|*
%AMROUNDEDRECTD26*
21,1,0.9300,0.7120,0,0,180.0*
21,1,0.7520,0.8900,0,0,180.0*
1,1,0.1780,-0.3760,0.3560*
1,1,0.1780,0.3760,0.3560*
1,1,0.1780,0.3760,-0.3560*
1,1,0.1780,-0.3760,-0.3560*
%
%ADD26ROUNDEDRECTD26*%
G04:AMPARAMS|DCode=27|XSize=0.6mm|YSize=0.5mm|CornerRadius=0.05mm|HoleSize=0mm|Usage=FLASHONLY|Rotation=0.000|XOffset=0mm|YOffset=0mm|HoleType=Round|Shape=RoundedRectangle|*
%AMROUNDEDRECTD27*
21,1,0.6000,0.4000,0,0,0.0*
21,1,0.5000,0.5000,0,0,0.0*
1,1,0.1000,0.2500,-0.2000*
1,1,0.1000,-0.2500,-0.2000*
1,1,0.1000,-0.2500,0.2000*
1,1,0.1000,0.2500,0.2000*
%
%ADD27ROUNDEDRECTD27*%
G04:AMPARAMS|DCode=28|XSize=0.9mm|YSize=0.8mm|CornerRadius=0.08mm|HoleSize=0mm|Usage=FLASHONLY|Rotation=180.000|XOffset=0mm|YOffset=0mm|HoleType=Round|Shape=RoundedRectangle|*
%AMROUNDEDRECTD28*
21,1,0.9000,0.6400,0,0,180.0*
21,1,0.7400,0.8000,0,0,180.0*
1,1,0.1600,-0.3700,0.3200*
1,1,0.1600,0.3700,0.3200*
1,1,0.1600,0.3700,-0.3200*
1,1,0.1600,-0.3700,-0.3200*
%
%ADD28ROUNDEDRECTD28*%
G04:AMPARAMS|DCode=29|XSize=0.8mm|YSize=0.8mm|CornerRadius=0.12mm|HoleSize=0mm|Usage=FLASHONLY|Rotation=0.000|XOffset=0mm|YOffset=0mm|HoleType=Round|Shape=RoundedRectangle|*
%AMROUNDEDRECTD29*
21,1,0.8000,0.5600,0,0,0.0*
21,1,0.5600,0.8000,0,0,0.0*
1,1,0.2400,0.2800,-0.2800*
1,1,0.2400,-0.2800,-0.2800*
1,1,0.2400,-0.2800,0.2800*
1,1,0.2400,0.2800,0.2800*
%
%ADD29ROUNDEDRECTD29*%
G04:AMPARAMS|DCode=30|XSize=0.76mm|YSize=0.27mm|CornerRadius=0.027mm|HoleSize=0mm|Usage=FLASHONLY|Rotation=90.000|XOffset=0mm|YOffset=0mm|HoleType=Round|Shape=RoundedRectangle|*
%AMROUNDEDRECTD30*
21,1,0.7600,0.2160,0,0,90.0*
21,1,0.7060,0.2700,0,0,90.0*
1,1,0.0540,0.1080,0.3530*
1,1,0.0540,0.1080,-0.3530*
1,1,0.0540,-0.1080,-0.3530*
1,1,0.0540,-0.1080,0.3530*
%
%ADD30ROUNDEDRECTD30*%
G04:AMPARAMS|DCode=31|XSize=0.76mm|YSize=0.27mm|CornerRadius=0.027mm|HoleSize=0mm|Usage=FLASHONLY|Rotation=0.000|XOffset=0mm|YOffset=0mm|HoleType=Round|Shape=RoundedRectangle|*
%AMROUNDEDRECTD31*
21,1,0.7600,0.2160,0,0,0.0*
21,1,0.7060,0.2700,0,0,0.0*
1,1,0.0540,0.3530,-0.1080*
1,1,0.0540,-0.3530,-0.1080*
1,1,0.0540,-0.3530,0.1080*
1,1,0.0540,0.3530,0.1080*
%
%ADD31ROUNDEDRECTD31*%
%ADD32R,0.7400X0.5400*%
G04:AMPARAMS|DCode=33|XSize=0.6mm|YSize=0.5mm|CornerRadius=0.05mm|HoleSize=0mm|Usage=FLASHONLY|Rotation=90.000|XOffset=0mm|YOffset=0mm|HoleType=Round|Shape=RoundedRectangle|*
%AMROUNDEDRECTD33*
21,1,0.6000,0.4000,0,0,90.0*
21,1,0.5000,0.5000,0,0,90.0*
1,1,0.1000,0.2000,0.2500*
1,1,0.1000,0.2000,-0.2500*
1,1,0.1000,-0.2000,-0.2500*
1,1,0.1000,-0.2000,0.2500*
%
%ADD33ROUNDEDRECTD33*%
%ADD34C,0.1000*%
%ADD35C,0.4000*%
%ADD36R,0.6800X0.5800*%
%ADD37R,0.7000X0.5600*%
%ADD38R,3.2300X1.2300*%
%ADD39R,3.2600X1.5500*%
%ADD40R,4.1135X8.2200*%
%ADD41C,0.4532*%
%ADD42R,3.1032X1.0032*%
%ADD43R,3.4032X1.0032*%
%ADD44O,0.8032X0.6032*%
%ADD45O,1.2532X0.9032*%
G04:AMPARAMS|DCode=46|XSize=0.6032mm|YSize=0.5732mm|CornerRadius=0.1386mm|HoleSize=0mm|Usage=FLASHONLY|Rotation=270.000|XOffset=0mm|YOffset=0mm|HoleType=Round|Shape=RoundedRectangle|*
%AMROUNDEDRECTD46*
21,1,0.6032,0.2960,0,0,270.0*
21,1,0.3260,0.5732,0,0,270.0*
1,1,0.2772,-0.1480,-0.1630*
1,1,0.2772,-0.1480,0.1630*
1,1,0.2772,0.1480,0.1630*
1,1,0.2772,0.1480,-0.1630*
%
%ADD46ROUNDEDRECTD46*%
D19*
X203700Y-0D02*
G03*
X211700Y8000I0J8000D01*
G01*
X-64000Y21000D02*
G03*
X-56000Y13000I8000J0D01*
G01*
Y110000D02*
G03*
X-64000Y102000I0J-8000D01*
G01*
X211700D02*
G03*
X203700Y110000I-8000J0D01*
G01*
X15100Y-0D02*
Y7200D01*
X34200Y-0D02*
X203700D01*
X27000Y7200D02*
X34200Y-0D01*
X0D02*
X15100D01*
X-13000Y13000D02*
X0Y0D01*
X-56000Y110000D02*
X203700D01*
X-64000Y21000D02*
Y102000D01*
X15100Y7200D02*
X27000D01*
X-56000Y13000D02*
X-13000D01*
X211700Y8000D02*
Y102000D01*
D35*
X-49900Y102100D02*
G03*
X-49900Y102100I-6000J0D01*
G01*
X-50000Y21000D02*
G03*
X-50000Y21000I-6000J0D01*
G01*
D36*
X-57700Y104200D02*
D03*
D37*
X-57500Y19200D02*
D03*
D38*
X-39050Y19150D02*
D03*
D39*
X-39100Y102350D02*
D03*
D40*
X-43467Y61300D02*
D03*
D41*
X171900Y38800D02*
D03*
Y33800D02*
D03*
Y28800D02*
D03*
X176900D02*
D03*
X91900Y13800D02*
D03*
Y23800D02*
D03*
Y28800D02*
D03*
Y33800D02*
D03*
Y38800D02*
D03*
Y43800D02*
D03*
Y48800D02*
D03*
Y53800D02*
D03*
Y58800D02*
D03*
Y63800D02*
D03*
Y68800D02*
D03*
Y73800D02*
D03*
Y78800D02*
D03*
Y83800D02*
D03*
Y88800D02*
D03*
Y93800D02*
D03*
Y98800D02*
D03*
Y103800D02*
D03*
X96900Y13800D02*
D03*
Y23800D02*
D03*
Y33800D02*
D03*
Y38800D02*
D03*
Y43800D02*
D03*
Y48800D02*
D03*
Y53800D02*
D03*
Y58800D02*
D03*
Y63800D02*
D03*
Y68800D02*
D03*
Y73800D02*
D03*
Y78800D02*
D03*
Y83800D02*
D03*
Y88800D02*
D03*
Y93800D02*
D03*
Y98800D02*
D03*
Y103800D02*
D03*
X101900Y13800D02*
D03*
Y18800D02*
D03*
Y23800D02*
D03*
Y28800D02*
D03*
Y33800D02*
D03*
Y38800D02*
D03*
Y43800D02*
D03*
Y48800D02*
D03*
Y53800D02*
D03*
Y58800D02*
D03*
Y63800D02*
D03*
Y68800D02*
D03*
Y73800D02*
D03*
Y78800D02*
D03*
Y83800D02*
D03*
Y88800D02*
D03*
Y93800D02*
D03*
Y98800D02*
D03*
Y103800D02*
D03*
X106900Y23800D02*
D03*
Y93800D02*
D03*
Y98800D02*
D03*
Y103800D02*
D03*
X111900Y13800D02*
D03*
Y18800D02*
D03*
Y23800D02*
D03*
Y93800D02*
D03*
Y98800D02*
D03*
Y103800D02*
D03*
X116900Y13800D02*
D03*
Y18800D02*
D03*
Y23800D02*
D03*
Y93800D02*
D03*
Y98800D02*
D03*
Y103800D02*
D03*
X121900Y13800D02*
D03*
Y18800D02*
D03*
Y23800D02*
D03*
Y43800D02*
D03*
Y48800D02*
D03*
Y53800D02*
D03*
Y58800D02*
D03*
Y63800D02*
D03*
Y68800D02*
D03*
Y73800D02*
D03*
Y93800D02*
D03*
Y98800D02*
D03*
Y103800D02*
D03*
X126900Y13800D02*
D03*
Y18800D02*
D03*
Y23800D02*
D03*
Y43800D02*
D03*
Y48800D02*
D03*
Y53800D02*
D03*
Y58800D02*
D03*
Y63800D02*
D03*
Y68800D02*
D03*
Y73800D02*
D03*
Y93800D02*
D03*
Y98800D02*
D03*
Y103800D02*
D03*
X131900Y13800D02*
D03*
Y18800D02*
D03*
Y23800D02*
D03*
Y43800D02*
D03*
Y48800D02*
D03*
Y53800D02*
D03*
Y58800D02*
D03*
Y63800D02*
D03*
Y68800D02*
D03*
Y73800D02*
D03*
Y93800D02*
D03*
Y98800D02*
D03*
Y103800D02*
D03*
X136900Y13800D02*
D03*
Y18800D02*
D03*
Y23800D02*
D03*
Y43800D02*
D03*
Y48800D02*
D03*
Y68800D02*
D03*
Y73800D02*
D03*
Y93800D02*
D03*
Y98800D02*
D03*
Y103800D02*
D03*
X141900Y13800D02*
D03*
Y18800D02*
D03*
Y23800D02*
D03*
Y43800D02*
D03*
Y48800D02*
D03*
Y53800D02*
D03*
Y58800D02*
D03*
Y63800D02*
D03*
Y68800D02*
D03*
Y73800D02*
D03*
Y93800D02*
D03*
Y98800D02*
D03*
Y103800D02*
D03*
X146900Y13800D02*
D03*
Y18800D02*
D03*
Y23800D02*
D03*
Y43800D02*
D03*
Y48800D02*
D03*
Y53800D02*
D03*
Y58800D02*
D03*
Y63800D02*
D03*
Y68800D02*
D03*
Y73800D02*
D03*
Y93800D02*
D03*
Y98800D02*
D03*
Y103800D02*
D03*
X151900Y13800D02*
D03*
Y18800D02*
D03*
Y23800D02*
D03*
Y43800D02*
D03*
Y48800D02*
D03*
Y53800D02*
D03*
Y58800D02*
D03*
Y63800D02*
D03*
Y68800D02*
D03*
Y73800D02*
D03*
Y93800D02*
D03*
Y98800D02*
D03*
Y103800D02*
D03*
X156900Y13800D02*
D03*
Y18800D02*
D03*
Y23800D02*
D03*
Y93800D02*
D03*
Y98800D02*
D03*
Y103800D02*
D03*
X161900Y13800D02*
D03*
Y18800D02*
D03*
Y23800D02*
D03*
Y93800D02*
D03*
Y98800D02*
D03*
Y103800D02*
D03*
X166900Y13800D02*
D03*
Y18800D02*
D03*
Y23800D02*
D03*
Y93800D02*
D03*
Y98800D02*
D03*
Y103800D02*
D03*
X171900Y13800D02*
D03*
Y18800D02*
D03*
Y23800D02*
D03*
Y43800D02*
D03*
Y48800D02*
D03*
Y53800D02*
D03*
Y58800D02*
D03*
Y63800D02*
D03*
Y68800D02*
D03*
Y73800D02*
D03*
Y78800D02*
D03*
Y83800D02*
D03*
Y88800D02*
D03*
Y93800D02*
D03*
Y98800D02*
D03*
Y103800D02*
D03*
X176900Y13800D02*
D03*
Y18800D02*
D03*
Y23800D02*
D03*
Y33800D02*
D03*
Y38800D02*
D03*
Y43800D02*
D03*
Y48800D02*
D03*
Y53800D02*
D03*
Y58800D02*
D03*
Y63800D02*
D03*
Y68800D02*
D03*
Y73800D02*
D03*
Y78800D02*
D03*
Y83800D02*
D03*
Y88800D02*
D03*
Y93800D02*
D03*
Y98800D02*
D03*
Y103800D02*
D03*
X181900Y13800D02*
D03*
Y18800D02*
D03*
Y23800D02*
D03*
Y28800D02*
D03*
Y33800D02*
D03*
Y38800D02*
D03*
Y43800D02*
D03*
Y48800D02*
D03*
Y53800D02*
D03*
Y58800D02*
D03*
Y63800D02*
D03*
Y68800D02*
D03*
Y73800D02*
D03*
Y78800D02*
D03*
Y83800D02*
D03*
Y88800D02*
D03*
Y93800D02*
D03*
Y98800D02*
D03*
Y103800D02*
D03*
X91900Y18800D02*
D03*
X96900D02*
D03*
X106900D02*
D03*
Y13800D02*
D03*
X96900Y28800D02*
D03*
D42*
X-39000Y23000D02*
D03*
Y34000D02*
D03*
Y45000D02*
D03*
Y67000D02*
D03*
Y89000D02*
D03*
Y100000D02*
D03*
D43*
X-40500Y56000D02*
D03*
Y78000D02*
D03*
D44*
X191000Y17400D02*
D03*
Y23400D02*
D03*
Y29400D02*
D03*
Y35400D02*
D03*
Y41400D02*
D03*
Y47400D02*
D03*
Y53400D02*
D03*
Y59400D02*
D03*
Y65400D02*
D03*
Y71400D02*
D03*
D45*
X204750Y7900D02*
D03*
Y80900D02*
D03*
D46*
X154450Y4800D02*
D03*
X148750D02*
D03*
X179750Y4600D02*
D03*
X185450D02*
D03*
X168550D02*
D03*
X174250D02*
D03*
X91250Y4800D02*
D03*
X85550D02*
D03*
M02*
